<svg width="70" height="70" viewBox="0 0 70 70" fill="none" xmlns="http://www.w3.org/2000/svg">
<rect width="70" height="70" rx="20" fill="#FF9429"/>
<path fill-rule="evenodd" clip-rule="evenodd" d="M41.4375 18C44.2944 18 46.7269 19.8266 47.6281 22.375H28.3125C25.4117 22.375 22.6297 23.5273 20.5785 25.5785C18.5273 27.6297 17.375 30.4117 17.375 33.3125V43.8781C16.0951 43.4253 14.9872 42.5868 14.2036 41.4781C13.4201 40.3694 12.9996 39.0451 13 37.6875V24.5625C13 22.822 13.6914 21.1528 14.9221 19.9221C16.1528 18.6914 17.822 18 19.5625 18H41.4375ZM50.1875 26.75H28.3125C26.572 26.75 24.9028 27.4414 23.6721 28.6721C22.4414 29.9028 21.75 31.572 21.75 33.3125V46.4375C21.75 48.178 22.4414 49.8472 23.6721 51.0779C24.9028 52.3086 26.572 53 28.3125 53H50.1875C51.928 53 53.5972 52.3086 54.8279 51.0779C56.0586 49.8472 56.75 48.178 56.75 46.4375V33.3125C56.75 31.572 56.0586 29.9028 54.8279 28.6721C53.5972 27.4414 51.928 26.75 50.1875 26.75ZM43.625 39.875C43.625 41.0353 43.1641 42.1481 42.3436 42.9686C41.5231 43.7891 40.4103 44.25 39.25 44.25C38.0897 44.25 36.9769 43.7891 36.1564 42.9686C35.3359 42.1481 34.875 41.0353 34.875 39.875C34.875 38.7147 35.3359 37.6019 36.1564 36.7814C36.9769 35.9609 38.0897 35.5 39.25 35.5C40.4103 35.5 41.5231 35.9609 42.3436 36.7814C43.1641 37.6019 43.625 38.7147 43.625 39.875V39.875Z" fill="white"/>
</svg>
