<svg width="70" height="70" viewBox="0 0 70 70" fill="none" xmlns="http://www.w3.org/2000/svg">
<rect width="70" height="70" rx="10" fill="#E11D2E"/>
<path d="M51.0283 18H41.1691C40.0801 18 39.1973 18.8828 39.1973 19.9718V29.831C39.1973 30.92 40.0801 31.8028 41.1691 31.8028H51.0283C52.1173 31.8028 53.0001 30.92 53.0001 29.831V19.9718C53.0001 18.8828 52.1173 18 51.0283 18Z" fill="white"/>
<path d="M29.831 39.1968H19.9718C18.8828 39.1968 18 40.0796 18 41.1686V51.0278C18 52.1168 18.8828 52.9996 19.9718 52.9996H29.831C30.92 52.9996 31.8028 52.1168 31.8028 51.0278V41.1686C31.8028 40.0796 30.92 39.1968 29.831 39.1968Z" fill="white"/>
<path d="M24.9014 31.8028C25.8077 31.8028 26.7052 31.6243 27.5425 31.2775C28.3798 30.9307 29.1406 30.4223 29.7815 29.7815C30.4223 29.1406 30.9307 28.3798 31.2775 27.5425C31.6243 26.7052 31.8028 25.8077 31.8028 24.9014C31.8028 23.9951 31.6243 23.0977 31.2775 22.2604C30.9307 21.423 30.4223 20.6622 29.7815 20.0214C29.1406 19.3805 28.3798 18.8722 27.5425 18.5253C26.7052 18.1785 25.8077 18 24.9014 18C23.0711 18 21.3156 18.7271 20.0214 20.0214C18.7271 21.3156 18 23.0711 18 24.9014C18 26.7318 18.7271 28.4872 20.0214 29.7815C21.3156 31.0757 23.0711 31.8028 24.9014 31.8028Z" fill="white"/>
<path d="M53.0001 51.0283L46.0987 39.1973L39.1973 51.0283C39.1973 52.1173 40.0801 53.0001 41.1691 53.0001H51.0283C52.1173 53.0001 53.0001 52.1173 53.0001 51.0283Z" fill="white"/>
</svg>
