<svg width="70" height="70" viewBox="0 0 70 70" fill="none" xmlns="http://www.w3.org/2000/svg">
<rect width="70" height="70" rx="20" fill="#0096F2"/>
<path d="M35.5 18C25.8506 18 18 25.8514 18 35.5C18 45.1637 25.8363 53 35.5 53C45.1494 53 53 45.1494 53 35.5C53 25.8355 45.1645 18 35.5 18ZM35.5 44.3341C33.4025 44.3341 31.3909 43.5009 29.9077 42.0177C28.4246 40.5346 27.5913 38.523 27.5913 36.4255C27.5913 34.328 28.4246 32.3164 29.9077 30.8332C31.3909 29.3501 33.4025 28.5168 35.5 28.5168H35.8542L34.6671 27.3305C34.4462 27.1096 34.3221 26.81 34.3221 26.4976C34.3221 26.1852 34.4462 25.8856 34.6671 25.6647C34.888 25.4438 35.1876 25.3197 35.5 25.3197C35.8124 25.3197 36.112 25.4438 36.3329 25.6647L39.6983 29.03C39.8077 29.1394 39.8945 29.2693 39.9537 29.4122C40.0129 29.5551 40.0434 29.7083 40.0434 29.863C40.0434 30.0177 40.0129 30.1708 39.9537 30.3138C39.8945 30.4567 39.8077 30.5865 39.6983 30.6959L36.3329 34.0613C36.112 34.2822 35.8124 34.4063 35.5 34.4063C35.1876 34.4063 34.888 34.2822 34.6671 34.0613C34.4462 33.8404 34.3221 33.5408 34.3221 33.2284C34.3221 32.916 34.4462 32.6163 34.6671 32.3954L36.1815 30.881C35.9813 30.8726 35.7524 30.8726 35.5 30.8726C34.4017 30.8726 33.3282 31.1983 32.415 31.8084C31.5018 32.4186 30.7901 33.2858 30.3698 34.3005C29.9495 35.3151 29.8396 36.4316 30.0538 37.5088C30.2681 38.5859 30.7969 39.5754 31.5735 40.352C32.3501 41.1285 33.3395 41.6574 34.4167 41.8717C35.4938 42.0859 36.6103 41.976 37.625 41.5557C38.6397 41.1354 39.5069 40.4237 40.1171 39.5105C40.7272 38.5973 41.0529 37.5237 41.0529 36.4255C41.0529 36.1131 41.177 35.8135 41.3979 35.5926C41.6188 35.3717 41.9184 35.2476 42.2308 35.2476C42.5432 35.2476 42.8428 35.3717 43.0637 35.5926C43.2846 35.8135 43.4087 36.1131 43.4087 36.4255C43.4062 38.5222 42.5722 40.5324 41.0896 42.015C39.6069 43.4977 37.5968 44.3317 35.5 44.3341Z" fill="white"/>
</svg>
