<svg width="950" height="950" viewBox="0 0 950 950" fill="none" xmlns="http://www.w3.org/2000/svg">
<rect opacity="0.05" width="950" height="950" rx="475" fill="#143D85"/>
<path opacity="0.03" fill-rule="evenodd" clip-rule="evenodd" d="M801.028 107.964C777.807 133.108 754.481 158.193 730.902 183.68C762.033 208.705 780.26 242.736 801.95 274.271C818.378 298.093 836.382 320.86 853.464 344.251C857.061 349.125 860.748 349.407 866.294 347.624C887.404 340.758 908.634 334.353 929.879 327.963C931.975 327.324 934.517 328.141 936.822 328.305L937 331.128C934.651 331.99 932.272 332.971 929.909 333.714C908.218 340.491 886.587 347.475 864.718 353.821C858.295 355.693 855.485 358.636 854.088 365.219C842.447 421.616 848.454 477.062 861.09 532.567C864.718 548.587 870.441 558.112 888.653 559.093C901.201 559.717 913.54 563.774 925.939 566.316C926.177 567.163 926.4 568.01 926.578 568.886C924.542 569.585 922.312 571.071 920.453 570.729C905.089 567.967 889.774 564.94 874.515 561.649C868.94 560.445 864.554 561.233 859.827 564.592C827.447 587.656 804.745 618.299 787.44 652.909C775.889 675.944 766.3 699.87 755.819 723.364C754.362 726.664 752.652 729.859 750.734 733.871C773.941 754.736 797.624 776.016 821.351 797.297C818.616 803.539 815.984 800.76 813.041 798.144C795.037 782.02 776.974 766 759.03 749.876C743.955 736.383 744.014 736.353 725.817 745.953C701.109 759.016 676.192 771.647 651.796 785.2C631.057 796.658 612.979 811.296 598.082 829.694C594.975 833.557 594.217 836.693 596.045 841.567C605.679 866.831 614.926 892.228 624.262 917.565C624.441 918.056 624.783 918.517 624.842 919.052C625.08 922.217 625.244 925.457 625.422 928.652C623.356 926.2 620.516 924.089 619.475 921.31C609.702 896.108 600.276 870.773 591.199 845.312C589.073 839.338 586.203 837.525 579.9 837.599C537.976 837.971 497.404 846.858 456.788 855.863C434.354 860.842 411.891 866.117 389.471 871.036C384.907 872.002 382.96 874.053 381.919 878.467C376.894 899.703 371.527 920.805 366.279 941.952C365.58 944.672 364.837 947.376 364.198 949.947C357.389 950.482 358.95 946.856 359.812 943.453C365.521 920.285 371.468 897.176 376.597 873.83C377.816 868.48 377.474 861.897 375.437 856.8C356.913 809.958 319.999 786.478 270.775 779.271C252.95 776.67 235.006 775.006 217.18 772.583C212.393 771.885 209.45 773.222 206.283 776.67C185.181 799.605 163.951 822.421 142.594 845.119C140.914 846.813 138.089 847.482 135.844 848.626C135.264 847.749 134.625 846.902 134.045 846.026C158.338 819.781 182.675 793.552 207.666 766.535C202.655 760.754 197.913 754.973 192.799 749.534C175.494 731.642 157.728 714.225 140.765 695.976C114.287 667.488 105.456 652.152 86.546 605.266C83.0225 606.276 79.3356 607.242 75.7081 608.386C57.5409 614.034 39.3588 619.785 21.1916 625.253C18.8872 625.982 16.0626 625.194 13.5203 625.075C15.6017 623.381 17.4452 620.959 19.809 620.156C39.4183 613.751 59.0424 607.465 78.8301 601.58C84.3159 599.975 86.8582 597.077 88.2854 591.727C98.4394 554.412 96.477 517.126 88.0624 480.019C82.4725 455.454 75.5445 431.231 68.6761 407.008C67.9327 404.481 64.0079 401.673 61.0346 401.019C45.3798 397.378 29.5021 394.45 13.6987 391.27L13 388.729C15.0219 388.075 17.2073 386.589 19.0656 386.886C30.5428 388.848 42.02 390.75 53.3336 393.574C60.3804 395.357 64.8107 394.034 70.1182 388.669C98.6178 359.691 120.829 326.908 135.428 289.28C146.742 260.183 152.911 230.03 154.755 199.06C154.918 195.538 152.956 190.991 150.429 188.39C134.045 171.464 117.201 154.939 100.283 138.042C102.186 133.688 104.55 135.531 107.434 138.324C123.416 153.869 139.397 169.443 155.602 184.72C157.565 186.563 161.147 188.361 163.556 187.915C219.514 177.453 271.622 158.297 315.39 121.249C322.601 115.171 328.949 108.097 335.817 101.678C339.564 98.2151 340.025 94.6633 338.582 89.8336C330.971 63.6785 323.716 37.3898 316.312 11.1456C315.97 9.92702 315.331 8.63413 315.39 7.40068C315.465 4.91893 315.866 2.46689 316.148 0C317.695 1.84274 320.133 3.46257 320.772 5.5728C326.079 23.5098 331.09 41.5211 336.233 59.4581C338.776 68.4489 341.66 77.3951 343.801 86.4453C345.005 91.6614 347.889 94.1432 352.736 96.0751C399.982 114.829 448.27 115.052 497.181 104.471C510.1 101.678 522.797 97.7544 535.597 94.6633C540.384 93.5339 542.48 91.2156 543.551 86.475C549.438 60.6767 555.623 34.9526 561.837 9.22856C562.417 7.0886 564.275 5.24586 565.524 3.28424C566.446 3.68548 567.323 4.11644 568.259 4.54741C567.962 6.71708 567.798 8.93134 567.338 11.0564C561.614 35.5619 555.756 60.0079 550.375 84.6471C549.735 87.753 550.717 92.5085 552.842 94.7971C598.483 143.362 655.022 171.211 721.774 179.162C724.42 179.474 728.285 177.497 730.248 175.417C751.121 153.334 771.771 131.013 792.48 108.841C794.695 106.522 796.925 101.99 801.088 107.964H801.028ZM211.903 761.988C223.216 749.846 233.995 738.478 244.387 726.782C245.769 725.222 246.007 721.418 245.085 719.337C240.984 709.215 236.5 699.251 231.646 689.467C212.497 650.992 186.748 617.556 151.975 591.178C149.551 589.365 145.983 586.883 143.783 587.522C126.88 592.233 110.08 597.672 93.013 602.962C100.803 630.945 113.321 655.465 131.89 676.345C157.624 705.249 184.682 732.95 211.903 761.988V761.988ZM850.297 352.29C832.754 327.904 815.747 304.513 799.14 280.78C784.645 260.079 771.265 238.575 756.22 218.186C748.147 207.204 737.696 197.886 727.646 187.142C714.727 201.037 703.086 213.357 691.817 226.063C690.628 227.445 691.267 231.427 692.367 233.552C699.979 248.086 707.472 262.694 715.767 276.872C735.942 311.215 761.468 341.085 794.74 364.09C796.91 365.591 800.226 367.433 802.352 366.824C818.556 362.262 834.627 357.135 850.297 352.29V352.29ZM385.264 865.924C452.581 852.609 516.924 831.967 586.085 831.67C580.599 816.869 575.752 803.004 570.147 789.332C568.514 786.002 565.668 783.423 562.194 782.124C543.67 776.239 524.596 776.477 505.596 779.479C469.187 785.245 435.618 799.6 401.707 812.797C400.674 813.242 399.745 813.897 398.979 814.721C398.214 815.545 397.629 816.519 397.262 817.582C393.173 833.141 389.486 848.745 385.264 865.924V865.924ZM71.2778 395.461C73.2402 396.59 74.043 397.333 74.9796 397.541C90.0396 400.632 105.01 403.738 120.145 406.458C122.107 406.8 125.081 405.328 126.657 403.798C172.357 359.513 196.01 305.449 200.782 243.078C200.901 240.834 201.184 237.684 199.92 236.421C187.685 224.041 175.122 211.989 161.326 198.555C155.097 275.817 126.894 341.531 71.2332 395.461H71.2778ZM166.485 193.592C178.779 206.075 190.42 218.038 202.373 229.748C203.696 231.071 206.818 231.531 208.84 231.16C258.168 221.768 303.973 204.722 341.749 170.899C357.612 156.707 357.552 156.633 351.903 136.898C348.712 125.751 345.501 114.611 342.269 103.476C294.324 155.251 233.37 179.667 166.485 193.532V193.592ZM148.362 579.467C166.068 573.969 182.452 569.005 198.731 563.522C200.812 562.838 202.938 559.539 203.354 557.176C205.257 546.194 207.339 535.197 207.859 524.141C209.078 497.837 200.931 472.99 195.46 447.607C191.892 431.231 185.083 422.403 167.258 421.423C155.379 420.799 143.664 417.187 131.087 414.735C132.737 470.448 151.365 523.1 148.362 579.393V579.467ZM849.331 358.621C834.285 363.228 820.786 367.731 807.05 371.446C800.835 373.11 798.278 376.201 797 382.368C786.801 431.736 792.331 480.167 803.883 528.599C806.47 539.388 811.019 544.173 822.169 545.481C834.568 546.892 846.788 550.073 858.147 552.257C852.973 519.979 846.967 488.475 843.102 456.702C839.251 424.41 842.12 392.117 849.331 358.621V358.621ZM746.482 729.784C773.138 665.17 798.174 601.476 858.043 558.38C841.198 554.977 826.213 551.722 811.093 549.032C808.744 548.601 805.221 549.909 803.318 551.574C792.257 561.203 780.587 570.373 770.879 581.176C750.749 603.616 737.428 630.232 725.728 657.561C720.183 670.371 714.875 683.285 709.271 696.63L746.482 729.784V729.784ZM130.403 408.449C149.611 412.313 167.154 415.939 184.801 419.119C186.703 419.461 189.588 417.455 191.268 415.776C226.517 380.749 245.323 338.41 249.129 289.548C249.307 287.185 249.07 283.931 247.628 282.4C234.991 269.189 222.072 256.334 209.212 243.39C208.454 243.658 207.651 243.94 206.967 244.222C201.273 307.411 177.427 362.485 130.403 408.434V408.449ZM540.518 98.9284C475.862 118.396 412.678 126.094 347.948 100.147C352.037 114.77 356.021 127.342 358.965 140.167C360.57 147.315 364.451 150.837 371.245 153.453C422.699 173.143 473.707 167.095 524.655 151.58C525.673 151.154 526.589 150.518 527.345 149.714C528.1 148.91 528.678 147.956 529.041 146.914C532.921 131.622 536.43 116.226 540.518 98.9284V98.9284ZM547.148 97.6058C543.283 114.057 539.715 128.62 536.548 143.273C536.39 144.46 536.479 145.666 536.809 146.817C537.139 147.968 537.703 149.038 538.466 149.96C576.421 190.902 623.311 215.348 679.27 223.001C681.708 223.313 685.216 223.313 686.614 221.902C698.076 210.191 709.122 198.109 721.461 184.913C652.346 175.863 594.826 147.716 547.148 97.6058V97.6058ZM685.216 232.69C672.817 245.961 661.147 258.266 649.908 270.868C648.808 272.131 649.298 275.713 650.25 277.644C654.457 286.293 658.902 294.794 663.57 303.279C680.533 334.19 701.585 361.875 730.783 382.829C733.191 384.568 736.759 386.901 739.034 386.262C756.458 381.358 773.644 375.83 792.896 369.856C742.097 334.472 711.114 286.145 685.216 232.69V232.69ZM210.49 236.896C219.544 245.946 227.736 254.313 236.106 262.501C252.667 278.64 252.727 278.7 275.443 272.904C311.034 263.764 343.518 248.889 369.996 223.061C373.564 219.539 374.724 216.492 373.163 211.469C369.238 199.387 366.116 187.083 362.607 174.852C361.566 171.107 360.303 167.362 358.742 162.429C317.784 205.064 266.612 225.186 210.49 236.881V236.896ZM792.079 376.231C775.621 381.284 760.918 386.128 745.962 390.274C740.119 391.924 737.488 394.658 736.209 400.632C727.438 442.748 732.522 484.106 743.732 525.047C744.341 527.44 747.999 530.07 750.764 530.754C760.457 533.176 770.358 534.796 780.23 536.757C786.816 538.021 793.327 539.343 801.103 540.844C786.533 486.171 779.591 432.598 792.079 376.186V376.231ZM798.813 546.967C796.004 546.149 794.309 545.525 792.629 545.183C779.13 542.434 765.765 539.403 752.147 537.307C748.281 536.713 743.197 537.679 739.956 539.848C724.851 549.865 712.051 562.63 703.339 578.115C689.141 603.453 676.504 629.608 663.243 655.347C677.619 668.231 690.42 679.659 704.558 692.276C727.037 637.543 748.415 583.643 798.813 546.967V546.967ZM152.703 584.044C200.069 619.681 229.951 665.764 251.181 717.569C252.444 717.197 253.084 717.227 253.366 716.9C260.755 709.128 268.084 701.266 275.399 693.435C288.095 679.674 288.095 679.644 280.305 662.465C264.263 627.111 242.454 596.022 211.1 571.992C208.647 570.105 204.663 568.114 202.18 568.812C186.228 573.27 170.469 578.486 152.703 584.044V584.044ZM526.751 157.019C472.012 173.158 418.655 178.879 363.841 156.559C369.03 174.986 373.653 191.615 378.5 208.17C378.842 209.3 380.343 210.355 381.562 210.89C423.561 228.737 466.125 226.419 508.822 213.654C510.859 213.03 513.669 211.469 514.085 209.82C518.396 192.834 522.321 175.714 526.751 157.019ZM680.102 229.168C651.32 224.502 624.783 216.997 599.896 204.321C575.217 191.689 553.868 174.733 533.754 154.211L521.176 207.695C524.343 210.667 527.331 213.208 529.977 215.913C558.373 244.579 592.611 262.472 632.796 269.248C636.364 269.828 641.686 269.887 643.678 267.866C655.884 255.695 667.406 242.826 680.102 229.168V229.168ZM591.303 828.207C606.714 808.907 625.754 792.808 647.351 780.816C670.751 767.665 694.746 755.553 718.458 742.921C725.104 739.414 731.675 735.729 739.019 731.761C727.111 721.121 716.288 711.208 705.138 701.668C703.77 700.434 700.143 700.092 698.463 700.94C673.263 714.091 647.975 727.184 623.058 740.93C605.696 750.394 590.465 763.322 578.309 778.914C576.719 781.024 575.5 784.769 576.302 787.043C580.733 800.329 585.817 813.391 591.318 828.207H591.303ZM216.229 765.852C219.455 766.416 221.194 766.788 222.919 767.026C240.744 769.388 258.629 771.231 276.365 774.203C323.522 782.094 359.292 805.322 379.139 849.25C379.6 850.246 380.581 851.123 381.86 852.787C385.264 838.996 388.609 826.201 391.493 813.347C392.073 811.013 391.493 808.145 390.69 805.842C377.756 770.265 353.241 746.577 315.167 738.433C295.32 734.198 274.953 732.296 254.823 729.517C252.92 729.249 250.155 729.636 249.055 730.825C238.217 742.045 227.661 753.532 216.229 765.807V765.852ZM74.1917 403.129C92.1953 467.164 112.325 529.357 92.9387 596.617C109.441 591.46 124.263 587.017 138.922 582.068C140.527 581.488 142.088 578.085 142.088 575.99C142.148 563.819 142.668 551.559 141.167 539.507C136.097 498.684 130.329 457.921 124.605 417.143C124.308 415.434 122.241 412.997 120.621 412.64C105.754 409.4 90.7384 406.532 74.1917 403.203V403.129ZM565.39 775.912C559.473 759.967 554.032 744.942 548.145 730.096C547.416 728.224 544.279 726.292 542.109 726.069C530.26 724.969 518.381 723.067 506.681 723.825C481.289 725.43 458.215 735.833 434.28 743.204C417.956 748.256 409.244 756.697 407.505 773.505C406.405 784.294 402.658 794.845 399.834 806.615C416.618 800.388 431.797 794.369 447.259 789.049C478.821 778.216 510.77 768.928 544.919 772.673C551.4 773.356 557.778 774.679 565.39 775.912V775.912ZM572.273 776.759C605.084 735.149 654.531 720.303 697.214 694.356C684.696 683.166 672.877 672.466 660.835 661.989C659.556 660.875 656.271 660.444 654.769 661.246C631.562 673.64 607.998 685.529 585.668 699.245C575.158 705.71 566.787 715.681 557.971 724.509C556.232 726.233 555.385 730.364 556.143 732.697C560.945 746.934 566.371 760.962 572.273 776.759V776.759ZM395.448 797.981C399.194 782.585 402.777 768.11 406.182 753.576C406.524 752.165 406.018 750.471 405.498 749.014C395.983 721.343 378.723 700.583 348.959 693.048C331.878 688.754 314.171 686.851 296.628 684.37C294.205 684.058 290.741 686.094 288.779 688.055C281.732 695.069 275.072 702.485 268.352 709.797C264.427 714.062 260.621 718.446 256.057 723.528C270.924 725.46 284.259 727.109 297.535 728.952C340.976 735.03 374.843 754.379 393.069 795.32C393.367 795.9 394.065 796.361 395.448 797.981V797.981ZM257.677 290.484L255.314 291.703C250.304 341.204 231.2 384.494 194.449 421.155C210.252 424.291 224.48 427.278 238.707 429.804C240.432 430.116 243.153 428.541 244.639 427.099C272.158 399.533 286.935 366.259 290.161 327.978C290.325 325.897 289.7 323.133 288.303 321.692C278.283 311.126 267.95 300.827 257.677 290.484V290.484ZM729.653 389.383C688.799 360.122 664.343 320.756 643.292 277.778C633.064 288.701 623.668 298.509 614.748 308.659C613.618 309.982 613.9 313.504 614.807 315.406C618.762 323.594 623.029 331.663 627.474 339.629C640.452 362.782 656.33 383.632 678.14 399.666C680.37 401.331 684.012 403.159 686.331 402.52C700.291 398.701 714.058 394.227 729.653 389.383V389.383ZM297.922 320.696C310.618 333.551 322.853 346.019 335.312 358.294C336.471 359.453 339.207 359.735 341.021 359.423C359.084 356.109 376.329 350.537 391.954 340.684C406.821 331.232 406.821 331.262 402.108 314.276L399.923 306.816C396.92 296.206 393.872 285.595 390.809 274.865C358.727 289.444 324.979 298.331 297.922 320.696V320.696ZM728.523 395.892C716.526 399.592 703.383 403.441 690.449 407.855C688.353 408.583 686.42 411.719 685.826 414.052C677.634 448.246 681.559 481.921 690.791 515.298C691.172 516.331 691.788 517.26 692.591 518.013C693.393 518.767 694.36 519.323 695.415 519.638C708.973 522.625 722.621 525.196 736.358 527.945C732.909 505.624 728.003 484.091 726.724 462.364C725.416 440.653 727.765 418.673 728.523 395.892V395.892ZM737.176 534.186C728.226 532.403 721.149 532.002 714.965 529.49C695.593 521.629 682.213 529.803 670.602 543.995C667.436 547.873 663.511 551.321 661.251 555.586C650.202 577.045 639.379 598.619 628.782 620.305C628.143 621.523 628.44 624.094 629.362 624.941C639.114 633.932 649.075 642.759 660.002 652.508C678.288 608.282 695.653 564.8 737.176 534.186V534.186ZM195.638 427.382C208.275 471.429 221.313 514.02 209.018 560.208C216.452 557.993 222.458 556.255 228.405 554.353C255.923 545.704 256.666 544.426 257.202 515.417C257.603 489.322 249.59 464.846 242.543 440.177C242.142 438.676 240.7 436.566 239.376 436.283C225.298 433.237 211.159 430.503 195.638 427.382V427.382ZM292.391 675.171C302.203 664.679 311.019 655.421 319.479 645.88C320.11 645.014 320.54 644.016 320.735 642.962C320.931 641.908 320.887 640.823 320.609 639.787C307.57 606.648 288.883 577.253 259.907 555.021C258.242 553.728 255.403 552.227 253.678 552.748C240.402 556.567 227.201 560.832 212.482 565.439C250.735 594.67 274.73 631.985 292.391 675.171V675.171ZM394.095 263.527C395.656 263.155 396.875 262.576 398.02 262.68C399.521 262.798 401.082 263.319 402.524 263.913C433.67 276.664 465.114 274.643 496.676 265.681C498.713 265.102 501.522 263.512 501.939 261.877C505.566 248.19 508.673 234.37 512.331 218.855C468.132 231.487 425.315 235.068 380.953 216.611C385.725 233.835 389.828 248.443 394.095 263.527ZM519.808 214.129L509.179 259.366C512.985 262.427 516.122 264.507 518.768 267.123C540.919 289.176 567.352 303.458 598.498 309.045C600.907 309.476 604.594 309.907 605.872 308.614C616.071 298.36 625.853 287.675 636.855 275.891C590.247 268.401 552.322 248.324 519.808 214.129V214.129ZM676.43 405.878C644.11 381.655 624.738 350.165 608.132 315.51C595.272 329.345 583.542 341.917 572.645 353.657L582.665 372.278C592.016 389.546 602.929 405.715 618.792 418.034C621.111 419.818 625.214 421.378 627.741 420.665C643.441 416.311 658.947 411.243 676.43 405.878V405.878ZM298.739 330.014C297.922 330.445 297.119 330.935 296.316 331.396C291.693 369.544 276.766 403.114 248.549 431.885C266.493 435.466 282.758 438.869 299.141 441.693C301.222 442.035 304.404 439.91 306.128 438.067C323.195 420.011 332.844 398.478 336.01 374.165C336.352 371.58 336.01 367.998 334.449 366.274C322.794 353.969 310.737 342.036 298.799 330.014H298.739ZM544.725 720.259C539.938 707.166 535.835 695.396 531.167 683.865C530.29 681.725 527.138 679.272 524.893 679.154C514.382 678.455 503.321 676.36 493.39 678.752C471.863 683.879 450.975 691.443 429.879 698.131C428.318 698.651 426.296 700.122 425.895 701.534C422.268 715.444 418.922 729.443 415.161 744.586C457.546 729.145 497.761 710.807 544.725 720.259ZM680.057 410.99C664.849 415.657 651.231 420.278 637.315 423.904C630.834 425.569 628.425 429.031 627.325 434.946C623.237 457.787 625.154 480.301 630.893 502.607C631.354 504.509 633.272 507.199 634.952 507.541C651.097 511.078 667.302 514.169 684.726 517.661C675.91 482.099 671.464 447.474 680.057 410.99V410.99ZM684.785 523.739C671.048 520.96 658.709 519.326 646.89 515.804C636.141 512.579 628.544 515.833 621.572 523.219C620.115 524.72 618.494 526.102 617.126 527.663C602.408 543.608 594.559 563.195 586.724 582.766C586.203 584.059 586.605 586.601 587.571 587.477C598.84 597.865 610.243 608.045 622.538 618.997C637.375 583.064 651.454 548.23 684.785 523.739V523.739ZM259.447 544.604C274.849 539.819 288.348 535.316 302.025 531.511C307.392 530.011 309.637 527.128 310.737 522.045C314.364 504.807 310.276 488.267 307.674 471.325C304.894 453.373 296.777 443.848 277.643 443.506C270.656 443.327 263.684 440.846 256.666 439.523C254.273 439.062 251.85 438.721 248.505 438.171C258.659 473.45 268.872 507.288 259.417 544.604H259.447ZM653.149 655.02C642.846 645.761 633.019 636.756 622.924 628.136C621.795 627.126 618.42 627.527 616.77 628.404C602.691 635.537 588.077 642.016 574.935 650.576C562.773 658.497 552.084 668.647 540.964 678.054C539.403 679.377 537.797 682.438 538.318 684.043C542.406 696.362 547.089 708.504 552.025 721.997C578.785 688.129 618.36 675.884 653.149 655.02ZM326.734 638.316C337.869 626.323 348.082 615.549 358.058 604.448C359.218 603.081 359.559 600.035 358.905 598.311C349.881 574.89 336.947 554.026 316.936 537.931C315.033 536.43 311.986 534.588 310.187 535.108C294.844 539.551 279.665 544.485 263 549.731C293.343 573.612 312.491 603.363 326.734 638.316V638.316ZM408.308 739.578C408.893 739.307 409.473 739.025 410.047 738.731C411.95 731.241 413.912 723.721 415.637 716.261C416.737 711.55 419.19 706.2 417.971 701.995C411.593 680.075 399.655 661.707 376.285 654.678C361.983 650.353 346.804 648.897 331.982 646.371C330.376 646.073 327.834 646.371 326.853 647.366C317.338 657.234 308.046 667.324 297.372 678.767C345.139 682.542 388.594 690.611 408.308 739.578V739.578ZM500.155 270.927C464.772 280.825 430.875 281.909 395.344 267.925L410.404 321.32C414.894 321.528 418.477 320.86 421.361 321.944C441.728 329.702 462.259 329.122 482.969 323.906C485.228 323.326 488.112 320.874 488.692 318.779C492.662 303.502 496.051 288.106 500.095 270.927H500.155ZM600.059 315.376C565.45 308.882 537.084 294.214 513.698 270.496C509.952 266.662 507.246 267.554 506.027 272.681C502.4 288.017 498.772 303.383 495.397 317.561C499.723 320.414 503.678 322.286 506.607 325.05C521.206 338.93 538.109 348.664 557.942 353.108C560.439 353.657 564.305 353.449 565.717 351.948C577.06 340.402 587.958 328.409 600.059 315.376V315.376ZM292.822 316.832C317.174 297.335 346.358 286.962 375.036 275.549C378.722 274.135 382.258 272.358 385.591 270.244C386.974 269.382 388.386 266.841 388.074 265.518C384.61 252.307 380.745 239.214 376.641 224.74C343.533 257.761 302.739 273.587 259.417 282.638C270.493 293.991 281.405 305.122 292.822 316.832V316.832ZM615.892 621.717C603.954 611.046 592.983 600.956 581.625 591.326C580.287 590.167 576.719 590.286 574.86 591.178C566.089 595.353 557.035 599.336 549.022 604.76C539.329 611.269 530.438 619.027 521.488 626.531C519.942 627.824 518.5 630.886 519.021 632.431C523.867 646.549 529.13 660.518 534.764 675.795C556.128 648.629 587.378 638.494 615.892 621.717V621.717ZM427.917 692.187C460.683 680.298 491.666 667.042 527.197 673.15C522.113 659.433 517.028 646.906 512.881 634.11C510.933 628.062 507.484 626.279 501.418 625.982C480.62 624.941 462.081 632.669 443.378 639.772C442.055 640.278 440.494 641.675 440.212 642.878C436.123 658.824 432.199 674.814 427.917 692.187V692.187ZM332.74 640.62C371.676 643.503 405.423 651.988 421.346 692.93C425.508 675.973 429.017 661.752 432.481 647.515C432.659 646.787 432.942 645.821 432.6 645.241C427.649 636.889 423.606 627.616 417.257 620.349C404.859 606.202 386.795 605.043 369.372 603.393C368.108 603.245 366.368 604.523 365.387 605.578C355.01 616.575 344.737 627.706 332.74 640.62V640.62ZM543.581 384.984L550.285 394.331C559.057 406.562 567.59 418.956 576.615 430.978C578.042 432.851 581.848 434.753 583.84 434.173C594.469 431.469 604.832 427.947 615.119 424.722C606.467 414.854 597.696 406.205 590.619 396.352C583.453 386.485 577.982 375.473 571.857 364.862C569.478 360.657 567.011 359.676 563.443 363.599C556.738 370.881 549.943 378.148 543.581 384.984V384.984ZM625.928 511.97C615.075 509.785 606.363 507.704 597.532 506.501C594.044 506.101 590.523 506.892 587.542 508.745C570.697 520.5 563.725 538.615 556.619 556.552C556.188 557.756 556.961 560.178 558.076 561.144C565.108 567.742 572.333 574.088 580.287 581.176C591.169 555.452 601.278 530.248 625.928 511.97V511.97ZM622.389 428.779C611.849 432.033 602.676 434.426 593.905 437.799C592.387 438.476 591.025 439.457 589.902 440.681C588.779 441.906 587.92 443.348 587.378 444.918C583.23 461.324 584.509 477.79 588.597 494.077C589.058 495.831 590.455 498.461 591.823 498.773C602.453 501.255 613.172 503.246 625.006 505.669C618.821 479.766 616.294 455.231 622.389 428.779ZM344.737 373.972L342.017 375.711C338.27 401.375 327.596 423.979 309.25 443.922C320.846 446.285 330.881 448.618 341.035 450.104C343.459 450.446 347.086 448.633 348.826 446.671C359.562 434.881 366.409 420.073 368.435 404.258C368.732 402.178 368.316 399.384 367.052 397.972C359.857 389.769 352.245 381.923 344.737 373.972V373.972ZM307.704 449.688C314.736 475.412 322.407 500.066 315.896 526.875C325.767 523.828 333.944 520.975 342.314 518.835C347.859 517.423 349.866 514.273 350.625 509.087C353.167 491.848 348.201 475.754 343.414 459.615C343.013 458.114 340.694 456.39 339.028 456.004C329.216 453.834 319.419 451.991 307.704 449.688V449.688ZM365.045 597.003C372.598 588.874 379.124 581.994 385.294 575.024C386.394 573.79 387.093 571.101 386.513 569.644C379.763 552.257 370.531 536.401 355.59 524.423C354.029 523.16 351.145 522.283 349.301 522.818C339.727 525.478 330.272 528.643 319.419 532.046C341.05 549.686 354.891 571.368 365.105 597.003H365.045ZM486.061 330.371C474.257 331.53 463.463 333.714 452.848 333.254C441.892 332.763 431.098 329.509 420.142 327.77C415.295 327.012 413.095 329.954 414.225 334.338C416.915 344.548 419.963 354.698 422.223 362.559C427.991 362.871 432.317 362.351 436.064 363.51C448.287 367.255 461.281 367.711 473.736 364.833C475.773 364.372 478.464 362.173 478.999 360.27C481.631 350.596 483.712 340.699 486.061 330.4V330.371ZM343.816 365.16C352.29 373.898 360.139 382.086 368.212 390.156C368.911 390.78 370.695 390.78 371.854 390.557C386.721 387.852 401.157 383.528 413.511 374.522C415.414 373.17 417.376 369.767 416.975 367.835C414.552 357.61 411.43 347.535 408.204 336.211C389.04 352.097 367.186 359.988 343.816 365.16ZM485.942 358.74C490.788 361.593 494.386 363.792 497.999 365.918C508.331 371.966 518.56 378.148 529.07 383.959C530.78 384.91 534.527 385.222 535.582 384.196C543.417 376.469 550.85 368.34 558.834 359.825C528.803 350.195 524.402 347.832 502.013 328.721C497.687 325.021 494.059 325.08 492.543 330.653C489.778 340.58 487.8 350.7 485.942 358.74V358.74ZM574.221 584.461C566.327 577.387 559.651 571.22 552.649 565.32C551.341 564.19 548.501 563.046 547.371 563.641C533.352 571.145 517.757 576.54 507.737 589.855C506.577 591.415 504.719 593.704 505.18 595.027C508.198 604.225 511.706 613.261 515.571 623.782C531.479 604.062 553.571 596.305 574.221 584.461V584.461ZM372.538 597.924C401.276 599.946 423.65 608.624 434.726 635.359C437.952 625.491 440.316 616.084 442.576 606.633C442.813 605.682 442.917 604.448 442.457 603.69C439.691 599.247 436.629 594.982 433.923 590.539C425.732 577.164 412.292 574.192 397.871 573.181C396.607 573.092 394.809 574.103 393.842 575.143C387.197 582.068 380.685 589.157 372.538 597.924V597.924ZM507.677 620.528C504.421 611.76 501.195 604.151 498.846 596.305C497.166 590.895 494.119 588.057 488.514 589.335C476.977 591.98 465.56 595.012 454.142 598.043C452.819 598.4 451.079 599.767 450.797 600.941C447.972 611.299 445.43 621.731 442.427 633.665C464.281 625.491 484.366 618.105 507.677 620.528V620.528ZM571.768 438.215C562.417 423.86 553.363 410.039 544.413 396.204C542.005 392.459 538.719 390.928 535.359 394.123C528.223 401.197 521.622 408.746 515.928 414.884C519.273 418.688 521.845 421.229 523.882 424.142C528.506 430.681 532.653 437.636 537.559 443.952C538.868 445.631 542.703 446.835 544.814 446.255C554.225 443.862 563.457 440.742 571.768 438.215V438.215ZM583.929 503.662C572.809 501.389 563.576 499.397 554.285 497.763C552.768 497.465 550.776 498.416 549.319 499.368C537.738 507.036 532.713 519.028 527.97 531.199C527.569 532.24 528.268 534.32 529.13 535.182C535.924 541.513 542.867 547.65 550.523 554.576C558.432 535.346 566.163 517.483 583.929 503.662ZM580.301 496.752V441.945C570.073 445.051 560.35 448.009 550.717 451.115C549.735 451.412 548.516 452.809 548.516 453.76C548.338 464.772 548.115 475.843 548.516 486.87C548.576 488.415 551.772 490.733 553.824 491.254C562.759 493.408 571.887 495.043 580.301 496.752V496.752ZM358.89 512.549C389.858 504.331 393.56 509.399 385.532 473.361C385.13 471.608 384.788 469.735 383.926 468.175C383.168 466.704 381.964 464.742 380.581 464.43C370.769 462.186 360.853 460.299 351.784 458.486C354.282 477.225 356.586 494.984 358.89 512.549ZM394.199 565.676C400.428 558.974 407.297 551.618 415.429 542.85C408.798 533.22 402.272 523.353 395.344 513.842C394.021 512.059 390.676 510.157 388.936 510.588C379.421 513.069 370.13 516.264 362.235 518.746C372.969 534.499 383.406 549.775 394.199 565.676ZM476.695 370.554C460.832 373.66 446.515 373.08 432.332 368.697C430.89 368.295 425.702 372.962 426.044 374.492C428.289 384.895 431.53 395.104 434.875 406.844C439.082 400.855 442.784 400.187 448.151 402.089C452.938 403.753 458.542 403.872 463.731 403.694C465.872 403.575 469.083 401.271 469.663 399.34C472.309 390.453 474.153 381.313 476.695 370.554ZM476.635 398.403C481.898 401.063 485.823 402.817 489.451 404.942C493.955 407.632 498.103 410.886 502.771 413.279C504.362 414.126 507.826 414.037 508.926 412.937C515.988 406.012 522.544 398.7 529.546 391.255C522.143 387.822 515.467 385.37 509.506 381.729C503.47 378.103 498.267 373.14 492.483 369.068C488.038 365.977 484.173 367.047 482.79 372.263C480.337 381.521 478.419 390.884 476.635 398.403V398.403ZM354.966 452.898C359.173 453.76 364.555 454.919 369.832 455.989C388.416 459.764 391.404 458.099 397.812 440.222C398.555 438.037 399.373 435.778 399.596 433.504C399.774 431.855 399.536 429.611 398.555 428.526C391.285 420.769 383.852 413.249 377.102 406.354C369.49 422.403 362.384 437.22 354.891 452.898H354.966ZM500.898 584.267C515.453 575.009 529.234 566.271 543.581 557.102C536.786 551.053 530.081 544.946 523.109 539.18C521.949 538.199 518.842 538.021 517.623 538.838C509.55 544.099 501.775 549.657 494.044 555.318C492.885 556.166 491.666 558.439 492.008 559.584C494.832 568.054 498.029 576.465 500.898 584.267V584.267ZM376.181 397.333C383.421 404.571 390.884 412.105 398.496 419.506C399.254 420.189 400.919 420.665 401.9 420.368C409.69 418.005 417.48 415.672 425.033 412.67C426.594 412.045 428.318 408.523 427.917 406.785C425.672 397.304 422.758 387.956 420.305 379.456C405.438 385.489 390.943 391.374 376.181 397.333ZM443.393 595.16C444.092 595.071 444.716 594.982 445.356 594.863L452.685 565.26C449.741 562.689 447.719 561.471 446.5 559.777C444.538 557.087 443.393 553.699 441.252 551.187C436.406 545.451 425.152 541.988 421.643 545.391C414.775 551.96 408.486 559.138 400.874 567.311C421.301 569.332 435.945 577.179 443.393 595.16ZM493.063 581.667C490.803 575.44 488.618 568.574 485.689 562.036C484.351 559.212 481.125 554.679 479.46 554.962C472.978 556.062 463.538 557.013 461.174 561.248C456.446 569.674 455.629 580.225 453.101 590.375C466.987 587.358 479.683 584.624 493.063 581.667V581.667ZM532.817 449.941C527.554 441.663 523.064 434.114 518.099 426.787C515.081 422.225 511.007 420.472 506.458 425.064C502.132 429.507 498.044 434.233 493.94 438.721C497.107 440.801 500.556 442.064 502.295 444.487C510.948 456.658 510.77 456.806 525.384 452.363C527.851 451.575 530.319 450.743 532.817 449.941V449.941ZM520.641 527.44C527.732 516.279 534.318 505.877 541.291 494.835C534.586 493.914 525.815 489.99 520.641 492.695C514.278 495.95 509.952 504.346 506.785 511.375C505.863 513.485 511.632 518.642 514.62 522.164C516.493 524.289 518.902 525.968 520.641 527.44V527.44ZM399.373 507.051L419.904 537.783C425.033 532.255 429.879 526.964 434.666 521.852C431.039 515.819 427.976 510.112 424.111 504.911C422.788 503.068 419.264 501.403 417.124 501.805C411.088 502.949 405.2 505.238 399.373 507.051V507.051ZM396.251 501.463C398.733 500.764 401.513 499.992 404.219 499.13C418.937 494.538 419.74 493.334 415.756 478.86C414.879 475.754 412.931 471.504 410.389 470.552C404.383 468.309 397.752 467.699 391.226 466.466C392.965 478.34 394.526 489.455 396.251 501.463V501.463ZM540.652 488.519V454.295L518.084 461.101C517.965 463.865 517.965 465.886 517.742 467.907C516.092 483.66 516.032 483.66 531.88 486.944C534.705 487.494 537.545 487.969 540.652 488.519ZM466.987 410.976C459.197 409.846 452.388 408.093 445.698 408.315C442.694 408.375 437.164 412.699 437.387 414.572C438.249 421.72 441.015 428.615 442.397 433.519C448.522 432.895 452.953 432.687 457.234 431.81C459.256 431.379 462.215 430.057 462.78 428.467C464.623 422.894 465.604 417.039 466.987 410.976V410.976ZM514.813 532.165C498.267 516.829 500.675 512.014 481.244 530.977C483.548 536.951 485.957 543.058 488.335 549.24L514.813 532.165V532.165ZM501.775 420.917C495.472 416.459 490.134 411.778 483.95 408.672C481.512 407.454 475.015 408.821 474.316 410.515C471.774 417.009 470.808 424.098 469.811 428.615C476.561 431.498 481.69 433.638 487.577 436.061L501.775 420.917ZM430.058 536.089C438.487 542.523 446.158 548.334 454.811 554.947C456.595 548.111 458.557 540.859 459.88 535.658C456.417 532.373 453.711 530.59 452.09 528.108C447.645 521.243 444.538 520.723 438.874 526.652C435.662 530.07 432.422 533.518 430.058 536.089V536.089ZM407.163 435.035C402.316 444.903 398.57 452.452 394.467 460.744C401.276 462.097 407.906 463.969 414.552 464.326C416.856 464.504 420.201 461.22 421.465 458.708C422.624 456.539 422.565 452.511 421.182 450.609C417.198 445.23 412.292 440.563 407.163 435.035V435.035ZM431.039 417.41C422.55 420.516 414.938 423.31 407.267 426.178C406.643 427.189 406.003 428.229 405.305 429.269C409.006 431.81 412.976 433.935 416.202 436.878C424.795 444.814 424.617 444.947 436.971 438.84L431.039 417.41V417.41ZM480.307 547.502C478.063 541.424 476.16 536.103 474.019 530.858C473.617 529.892 472.027 528.435 471.372 528.643C470.094 529.015 468.414 530.129 468.072 531.274C466.169 537.619 464.638 544.009 462.765 551.351L480.307 547.502ZM444.478 470.315C451.406 467.209 457.398 462.825 463.924 462.008C470.57 461.235 477.646 463.999 484.53 465.173C469.752 451.887 447.719 455.157 444.478 470.315ZM502.236 459.11L503.946 456.479C499.248 452.779 494.773 448.425 489.421 445.958C487.904 445.259 483.697 450.193 480.129 453.046C484.098 454.8 487.666 455.216 488.544 456.91C492.364 464.445 497.33 460.923 502.236 459.11V459.11ZM510.71 489.976C502.176 486.751 498.608 488.281 494.104 495.801C490.015 502.637 495.174 504.717 499.307 507.868C503.277 501.686 506.964 495.831 510.71 489.976V489.976ZM446.738 508.061C444.597 504.569 443.274 499.962 440.227 497.986C437.342 496.202 432.615 497.183 426.787 496.812C430.236 501.924 432.213 504.584 433.938 507.392C439.691 516.918 439.87 516.948 446.738 508.061V508.061ZM424.527 492.398C429.656 490.704 435.767 491.551 434.964 483.481C434.22 475.442 430.058 472.44 421.866 473.257C422.728 479.424 423.591 485.428 424.527 492.398V492.398ZM499.01 466.852C501.24 481.683 501.24 481.683 511.409 481.208C510.651 475.784 509.952 470.419 509.253 465.069C505.804 465.678 502.355 466.287 499.01 466.852V466.852ZM461.397 440.682C460.356 439.389 459.316 438.096 458.23 436.848C454.365 438.542 448.998 439.3 447.095 442.213C445.43 444.843 447.496 449.822 447.957 453.775C448.998 454.012 450.098 454.235 451.124 454.443C454.588 449.851 457.992 445.23 461.397 440.682V440.682ZM474.569 513.396C476.264 516.458 477.706 519.236 479.386 522.224L492.706 513.01C486.522 501.745 480.947 508.804 474.569 513.396V513.396ZM464.222 448.35L467.002 451.07C472.012 448.529 477.096 446.002 482.106 443.432C481.868 442.168 481.586 440.92 481.363 439.657C477.602 439.137 472.993 437.071 470.406 438.498C467.388 440.162 466.169 444.918 464.222 448.35V448.35ZM465.247 515.7C461.01 513.916 457.814 512.534 453.889 510.87L448.864 516.457C453.131 519.519 456.833 522.105 460.46 524.705C462.2 521.48 463.88 518.271 465.247 515.7V515.7ZM441.49 458.902L439.305 445.408C435.841 446.909 433.418 447.919 429.909 449.42C433.819 452.616 436.525 454.859 441.49 458.902ZM436.926 468.873L437.967 466.451C435.321 463.761 432.659 461.056 429.433 457.713C427.768 461.339 426.668 463.791 425.226 466.852L436.926 468.873" fill="white"/>
<rect opacity="0.1" x="100" y="100" width="750" height="750" rx="375" fill="#143D85"/>
<rect opacity="0.1" x="200" y="200" width="550" height="550" rx="275" fill="#143D85"/>
</svg>
