<svg width="350" height="350" viewBox="0 0 350 350" fill="none" xmlns="http://www.w3.org/2000/svg">
<path d="M175 350C271.65 350 350 271.65 350 175C350 78.3502 271.65 0 175 0C78.3502 0 0 78.3502 0 175C0 271.65 78.3502 350 175 350Z" fill="#143D85"/>
<path fill-rule="evenodd" clip-rule="evenodd" d="M236.191 32.9615C239.804 32.228 240.822 33.6293 243.219 33.9084C241.593 35.0907 238.566 34.8553 236.476 35.545C235.972 34.9976 235.912 34.1054 236.191 32.9615Z" fill="#00783A"/>
<path fill-rule="evenodd" clip-rule="evenodd" d="M205.705 47.4279C204.583 49.3656 204.096 51.8889 201.326 52.1844C199.805 50.7613 202.766 50.3836 203.324 48.8565C201.419 49.9895 199.547 51.1609 196.493 51.139C196.926 50.0114 196.11 49.9239 195.24 49.8965C194.999 48.134 196.904 48.5117 197.145 47.209C200.226 47.3239 202.202 49.2616 205.705 47.4279" fill="#00783A"/>
<path fill-rule="evenodd" clip-rule="evenodd" d="M243.253 50.7562C242.47 52.1027 240.592 53.5203 239.383 52.2341C240.116 50.8766 241.999 49.459 243.253 50.7562Z" fill="#00783A"/>
<path fill-rule="evenodd" clip-rule="evenodd" d="M254.85 63.126C256.333 63.7554 258.298 64.0291 259.574 64.8282C258.167 66.3225 254.626 64.8501 254.85 63.126Z" fill="#00783A"/>
<path fill-rule="evenodd" clip-rule="evenodd" d="M46.0418 74.1177C48.3516 74.0903 51.6795 73.2036 50.8092 75.8254C48.4665 75.8473 45.1551 76.745 46.0418 74.1177Z" fill="#00783A"/>
<path fill-rule="evenodd" clip-rule="evenodd" d="M226.063 67.79C226.38 70.4173 222.116 71.4409 223.069 68.5892C223.78 68.0473 224.815 67.8065 226.063 67.79Z" fill="#00783A"/>
<path fill-rule="evenodd" clip-rule="evenodd" d="M231.154 67.5428C232.95 67.51 232.451 69.8855 231.34 70.7613C229.49 70.7886 229.988 68.4131 231.154 67.5428Z" fill="#00783A"/>
<path fill-rule="evenodd" clip-rule="evenodd" d="M82.6488 87.1875C81.5431 89.3933 79.9886 91.1503 76.918 91.3638C77.0931 88.2384 80.2842 88.118 82.6488 87.1875" fill="#00783A"/>
<path fill-rule="evenodd" clip-rule="evenodd" d="M221.57 94.5505C224.077 93.9867 224.055 95.5138 224.044 97.019C221.532 97.5883 221.57 96.0557 221.57 94.5505Z" fill="#00783A"/>
<path fill-rule="evenodd" clip-rule="evenodd" d="M273.849 99.717C277.243 99.6021 272.771 101.261 272.727 102.372C280.149 101.069 277.051 106.05 279.684 107.845C277.03 107.637 276.531 107.188 275.125 109.361C273.548 109.361 275.283 106.614 275.059 105.486C273.094 106.449 268.945 107.944 266.975 106.526C267.478 102.465 270.959 101.386 273.849 99.7061" fill="#00783A"/>
<path fill-rule="evenodd" clip-rule="evenodd" d="M257.535 103.132C258.531 101.791 263.742 101.715 262.39 104.178C260.283 105.847 258.942 103.702 257.535 103.132Z" fill="#00783A"/>
<path fill-rule="evenodd" clip-rule="evenodd" d="M229.215 109.06C230.19 109.054 231.159 108.961 232.122 108.912C232.27 111.403 228.208 111.6 229.215 109.06Z" fill="#00783A"/>
<path fill-rule="evenodd" clip-rule="evenodd" d="M229.262 117.473C228.638 120.439 220.406 122.306 216.58 124.577C219.815 121.217 225.42 120.253 229.262 117.473Z" fill="#00783A"/>
<path fill-rule="evenodd" clip-rule="evenodd" d="M224.015 174.699C222.219 175.181 220.555 175.805 218.136 175.635C217.162 172.121 212.542 171.629 208.946 170.271C207.069 170.518 209.767 171.35 208.53 172.882C207.501 171.853 207.069 170.326 204.605 170.49C211.639 165.416 221.519 170.611 224.015 174.699" fill="#00783A"/>
<path fill-rule="evenodd" clip-rule="evenodd" d="M235.909 176.697C233.671 178.262 229.932 178.344 226.254 178.481C226.643 174.08 234.103 175.7 235.909 176.697Z" fill="#00783A"/>
<path fill-rule="evenodd" clip-rule="evenodd" d="M215.492 178.361C217.205 178.06 218.256 178.328 219.017 178.837C218.951 180.512 213.718 181.339 215.492 178.361Z" fill="#00783A"/>
<path fill-rule="evenodd" clip-rule="evenodd" d="M248.888 185.115L251.05 185.006C250.552 186.538 249.759 187.748 248.954 188.996C246.053 188.06 250.355 187.195 248.888 185.115" fill="#00783A"/>
<path fill-rule="evenodd" clip-rule="evenodd" d="M195.572 341.176C196.289 341.133 197.023 341.089 197.74 341.062C198.107 342.249 198.583 343.399 198.561 344.92C196.952 344.149 195.917 342.95 195.572 341.176Z" fill="#00783A"/>
<path fill-rule="evenodd" clip-rule="evenodd" d="M225.186 42.5889C227.605 41.3628 224.529 36.2122 228.777 33.9899C230.244 33.9078 231.689 33.8367 233.117 33.771C232.926 34.8602 232.756 35.9549 232.575 37.0332C232.964 38.7848 235.991 38.3359 238.043 38.7027C245.438 31.9921 247.507 43.7438 254.464 39.1843C254.031 40.5199 252.313 40.5637 251.88 41.8992C255.526 42.0689 258.596 42.7148 260.841 44.0448C261.07 46.0317 258.662 45.3968 258.865 47.3782C261.738 50.0602 267.294 50.5529 270.928 52.6109C270.343 54.8386 267.737 54.9919 267.261 57.3236C263.512 57.4222 263.495 54.45 260.66 53.7768C259.582 54.4719 257.868 54.5267 257.458 55.8786C258.027 59.524 262.428 60.0276 262.565 64.0397C262.258 65.9718 257.639 67.4387 261.092 68.6429C258.799 69.5789 256.44 65.731 251.235 67.1815C250.413 61.489 241.032 62.4578 236.385 61.4507C237.616 59.119 241.59 59.5459 244.71 59.0916C245.487 58.5935 244.754 56.0592 246.806 55.1068C250.222 54.149 250.348 57.6137 253.205 55.4407C254.01 53.0707 251.388 53.5524 249.209 53.6783C248.646 43.7766 233.686 44.0284 218.317 44.8604C213.801 41.943 215.881 33.7436 224.414 34.1979C225.728 35.1886 225.558 37.389 224.879 39.9999C223.664 35.632 222.575 42.4247 225.17 42.5889H225.186ZM259.538 64.8224C258.263 64.0232 256.292 63.755 254.814 63.1201C254.59 64.8497 258.131 66.3221 259.538 64.8224Z" fill="#00783A"/>
<path fill-rule="evenodd" clip-rule="evenodd" d="M124.72 54.691C128.524 54.3954 134.036 51.3466 137.928 48.8507C145.569 50.1808 154.682 50.9033 162.635 51.5218C163.177 53.5853 160.216 52.1239 160.769 54.1983C164.972 56.2892 173.227 53.2678 174.349 58.7085C175.224 55.7364 177.397 54.1217 179.083 51.998C177.452 51.5327 175.602 53.0763 178.257 52.6822C177.337 54.6198 175.985 52.414 174.633 52.8628C182.395 48.6372 189.352 58.2378 198.536 51.686C200.353 51.4889 200.616 52.5946 201.952 52.8081C204.201 52.0199 204.957 49.7374 206.33 48.057C206.648 46.1085 203.079 47.3783 202.324 46.311C202.28 43.9902 203.687 43.1199 204.53 41.6804C211.651 40.6678 209.259 47.5152 211.705 50.3833C214.541 50.4107 214.404 47.4878 217.179 47.5152C218.865 48.7576 217.557 52.4523 219.018 53.9028C222.324 52.923 224.18 50.4654 224.546 46.5026C227.71 46.1687 229.183 47.1813 230.737 48.1446C228.537 50.9087 230.868 51.7845 230.398 54.6362C227.825 55.8897 225.471 57.3292 221.366 57.0282C219.286 61.8558 230.244 60.4929 229.987 65.6709C225.083 62.6057 222.932 68.2927 218.29 66.897C217.316 65.5614 220.682 63.6293 220.107 60.3178C220.321 58.2707 215.006 59.0862 213.709 60.0058C213.835 61.5603 216.183 61.3139 217.715 61.7518C210.841 66.0267 201.968 69.5188 198.941 79.5135C200.178 81.8561 205.061 81.1938 203.643 85.7424C210.633 86.339 213.057 90.7233 220.792 90.7233C218.673 97.3353 221.52 99.8531 225.466 101.484C230.392 98.2932 229.615 89.3987 233.851 85.5398C231.279 80.3071 233.485 74.6584 235.948 68.6047C243.556 65.5888 246.26 70.7722 251.252 71.7301C251.619 74.1275 249.155 73.6787 249.134 75.7148C249.675 77.3624 250.447 78.7691 252.117 79.4533C256.435 79.2672 259.528 74.4285 262.21 75.069C262.779 81.7193 265.28 86.7714 272.248 88.1671C271.871 90.5864 267.59 89.1195 267.333 91.6538C268.822 93.5586 271.871 90.6521 274.596 91.2871C275.653 92.7759 275.85 94.9707 274.312 97.1328C264.613 101.123 248.98 99.1416 244.421 108.315C247.617 109.191 250.732 103.488 256.572 104.478C256.572 106.498 254.689 106.646 252.615 106.618C251.783 111.873 258.252 109.125 258.061 112.82C261.088 112.809 261.52 110.182 264.262 109.93C261.323 113.816 255.724 115.053 251.509 117.686C251.865 114.741 254.848 114.418 256.616 112.891C251.941 112.82 239.735 115.792 241.421 122.059C237.251 124.708 231.542 125.874 230.485 131.66C229.297 131.134 229.702 129.323 228.044 129.191C228.865 138.491 220.436 143.368 213.884 149.318C214.015 154.096 215.247 157.944 215.247 162.837C210.731 164.189 211.53 156.619 210.359 153.373C207.141 152.629 203.747 152.071 198.969 152.645C197.327 153.932 198.366 155.037 198.312 156.554C192.034 154.742 184.595 154.698 179.888 159.422C176.385 169.931 175.197 183.505 189.538 179.001C190.791 177.971 191.207 176.094 191.754 174.364C193.895 173.456 195.75 172.284 198.607 172.087C200.096 175.853 195.126 179.083 195.192 183.894C196.079 186.182 202.192 184.124 204.289 185.388C203.358 191.042 201.317 197.6 205.608 198.919C209.976 198.333 214.59 196.976 215.466 200.375C218.854 195.503 221.388 194.409 226.292 191.425C227.809 192.493 222.729 196.166 226.024 197.271C228.383 196.034 228.777 192.92 230.628 191.217C233.654 193.976 238.767 194.994 245.921 194.332C247.596 204.77 265.954 201.426 266.583 212.728C264.832 215.307 261.909 216.713 260.398 219.505C262.648 221.234 266.386 214.661 268.805 216.505C268.472 219.209 264.481 218.246 263.814 220.632C266.89 222.915 269.758 218.498 272.199 217.627C278.313 222.148 290.962 221.256 295.013 227.496C293.967 234.842 288.954 238.202 284.646 242.264C282.785 251.049 280.639 259.56 275.16 264.733C267.142 265.357 262.839 269.659 257.913 273.353C257.048 282.281 248.055 296.523 237.36 293.151C235.307 295.231 239.889 296.643 239.15 299.528C237.075 303.02 231.717 303.228 227.535 304.629C225.45 306.857 224.552 310.272 219.527 309.555C219.182 311.542 219.637 312.856 221.06 313.359C217.557 315.177 217.168 320.147 213.233 321.531C212.346 324.662 212.975 326.611 215.98 326.567C210.337 331.57 207.223 339.123 200.945 343.491C202.116 339.709 198.881 339.567 195.898 339.211C198.531 337.268 195.652 329.829 200.934 330.557C201.798 327.197 196.615 325.894 196.85 324.925C197.195 322.057 198.925 324.646 199.724 324.777C202.275 321.816 203.484 314.509 201.902 311.734C208.142 296.917 214.42 278.893 218.432 259.774C208.186 253.605 204.989 241.618 201.957 229.527C201.957 227.485 204.185 227.693 204.661 226.15C201.005 217.288 220.896 207.561 211.295 199.291C205.416 203.752 202.165 197.632 197.852 198.005C198.706 188.497 186.171 190.046 181.322 185.235C172.405 184.978 160.539 183.067 160.993 173.297C155.547 167.123 153.407 158.196 147.2 152.613C145.191 159.909 151.436 165.273 153.467 171.08C145.383 166.559 145.711 158.442 142.564 150.253C132.804 144.38 127.249 132.229 134.178 114.424C136.193 114.889 136.537 115.135 137.884 113.586C136.587 109.038 133.521 105.962 127.856 105.031C129.931 103.104 128.311 99.9298 126.192 101.867C124.184 101.61 127.512 100.806 127.249 99.875C126.904 98.4683 124.977 98.3753 124.052 97.4448C128.869 89.4589 116.548 90.9586 117.654 84.166C108.458 82.9508 99.4323 81.6098 92.7765 78.2764C89.0161 78.8457 89.1803 83.323 85.3653 83.8266C83.4988 82.617 86.4162 79.8473 87.593 79.1905C83.3784 77.034 80.6143 82.8414 79.2513 86.0762C73.5479 90.7616 66.4323 94.0621 59.3879 97.4119C60.7891 94.2318 70.9918 93.2849 71.9004 87.0834C67.2533 85.4194 55.3156 86.0762 56.9631 77.4718C60.0337 74.4286 67.0782 75.4138 66.9687 69.2068C61.6977 71.9436 54.9543 71.0076 54.5 66.5904C59.1142 63.3994 63.5313 67.7399 66.9906 64.6747C65.7153 61.0457 59.0157 61.927 58.9062 57.3018C68.7859 53.2405 79.7659 44.543 89.465 50.6077C100.056 49.4418 111.835 51.9323 120.462 54.2531C121.649 55.3423 119.706 59.0424 122.602 58.6812C124.851 56.9734 122.58 54.2476 122.968 52.1896C124.83 53.4758 128.004 51.0018 129.843 49.9071C132.804 50.5201 125.109 52.4742 124.698 54.691H124.72ZM202.039 112.355C205.301 110.981 212.455 111.233 212.477 114.418C210.512 113.975 210.447 115.431 208.755 115.245C207.825 117.177 205.471 123.012 208.044 123.701C209.472 119.558 210.222 114.703 215.373 114.27C215.674 116.832 216.391 119.054 218.739 119.936C218.504 117.177 221.202 117.308 221.656 115.25C215.132 114.659 212.882 110.521 209.325 107.445C206.686 108.386 201.842 111.085 202.039 112.355V112.355ZM232.089 108.912L229.183 109.06C228.175 111.599 232.237 111.402 232.089 108.912ZM216.539 124.577C220.365 122.306 228.597 120.439 229.221 117.472C225.384 120.253 219.779 121.216 216.539 124.577Z" fill="#00783A"/>
<path fill-rule="evenodd" clip-rule="evenodd" d="M209.364 107.446C212.922 110.522 215.171 114.655 221.696 115.252C221.241 117.31 218.543 117.178 218.778 119.937C216.425 119.056 215.708 116.833 215.412 114.272C210.267 114.704 209.511 119.554 208.083 123.703C205.51 123.019 207.864 117.178 208.794 115.246C210.486 115.432 210.546 113.976 212.516 114.42C212.495 111.229 205.335 110.977 202.078 112.356C201.876 111.086 206.72 108.388 209.364 107.446Z" fill="#00783A"/>
</svg>
