<svg width="253" height="50" viewBox="0 0 253 50" fill="none" xmlns="http://www.w3.org/2000/svg">
<path d="M73.1 32.225C71.7833 32.225 70.5583 32.075 69.425 31.775C68.2917 31.4583 67.3667 31.0167 66.65 30.45C66.4 30.2667 66.2167 30.075 66.1 29.875C66 29.6583 65.95 29.3917 65.95 29.075C65.95 28.6583 66.075 28.2917 66.325 27.975C66.5917 27.6583 66.8917 27.5 67.225 27.5C67.4083 27.5 67.5833 27.5333 67.75 27.6C67.9333 27.65 68.15 27.75 68.4 27.9C69.1167 28.35 69.8417 28.6833 70.575 28.9C71.3083 29.1 72.1167 29.2 73 29.2C74.1 29.2 74.9417 29.0167 75.525 28.65C76.1083 28.2833 76.4 27.7583 76.4 27.075C76.4 26.5583 76.125 26.1417 75.575 25.825C75.0417 25.5083 74.0833 25.2083 72.7 24.925C71.15 24.6083 69.9083 24.225 68.975 23.775C68.0583 23.325 67.3833 22.7667 66.95 22.1C66.5333 21.4333 66.325 20.625 66.325 19.675C66.325 18.625 66.625 17.6833 67.225 16.85C67.8417 16 68.6833 15.3417 69.75 14.875C70.8333 14.3917 72.05 14.15 73.4 14.15C75.7667 14.15 77.7167 14.7417 79.25 15.925C79.5 16.125 79.675 16.3333 79.775 16.55C79.8917 16.75 79.95 17 79.95 17.3C79.95 17.7167 79.8167 18.0833 79.55 18.4C79.3 18.7167 79.0083 18.875 78.675 18.875C78.4917 18.875 78.3167 18.85 78.15 18.8C78 18.75 77.7833 18.6417 77.5 18.475C76.8167 18.0417 76.1833 17.7167 75.6 17.5C75.0333 17.2833 74.3083 17.175 73.425 17.175C72.4083 17.175 71.6083 17.375 71.025 17.775C70.4417 18.1583 70.15 18.6917 70.15 19.375C70.15 19.775 70.2583 20.1083 70.475 20.375C70.7083 20.625 71.0833 20.85 71.6 21.05C72.1333 21.25 72.8833 21.4583 73.85 21.675C76.1167 22.175 77.7417 22.8167 78.725 23.6C79.725 24.3833 80.225 25.4583 80.225 26.825C80.225 27.8917 79.925 28.8333 79.325 29.65C78.7417 30.4667 77.9083 31.1 76.825 31.55C75.7583 32 74.5167 32.225 73.1 32.225ZM90.3342 19.425C91.3842 19.425 92.3175 19.7 93.1342 20.25C93.9675 20.7833 94.6092 21.5417 95.0592 22.525C95.5258 23.4917 95.7592 24.6083 95.7592 25.875C95.7592 27.1417 95.5258 28.2583 95.0592 29.225C94.6092 30.175 93.9758 30.9083 93.1592 31.425C92.3425 31.9417 91.4008 32.2 90.3342 32.2C89.5008 32.2 88.7425 32.0333 88.0592 31.7C87.3925 31.35 86.8758 30.8667 86.5092 30.25V34.975C86.5092 35.475 86.3425 35.875 86.0092 36.175C85.6758 36.475 85.2342 36.625 84.6842 36.625C84.1008 36.625 83.6258 36.4667 83.2592 36.15C82.9092 35.8333 82.7342 35.4167 82.7342 34.9V21.25C82.7342 20.7167 82.9008 20.2917 83.2342 19.975C83.5842 19.6417 84.0425 19.475 84.6092 19.475C85.1758 19.475 85.6258 19.6417 85.9592 19.975C86.2925 20.2917 86.4592 20.7167 86.4592 21.25V21.45C86.8258 20.8167 87.3508 20.325 88.0342 19.975C88.7175 19.6083 89.4842 19.425 90.3342 19.425ZM89.2342 29.325C90.1175 29.325 90.8008 29.0333 91.2842 28.45C91.7675 27.85 92.0092 26.9917 92.0092 25.875C92.0092 24.7417 91.7675 23.8667 91.2842 23.25C90.8008 22.6167 90.1175 22.3 89.2342 22.3C88.3508 22.3 87.6675 22.6083 87.1842 23.225C86.7008 23.825 86.4592 24.6917 86.4592 25.825C86.4592 26.9417 86.7008 27.8083 87.1842 28.425C87.6675 29.025 88.3508 29.325 89.2342 29.325ZM99.9662 32.15C99.4162 32.15 98.9579 32 98.5912 31.7C98.2412 31.4 98.0662 30.9583 98.0662 30.375V21.25C98.0662 20.6667 98.2495 20.225 98.6162 19.925C98.9829 19.625 99.4329 19.475 99.9662 19.475C100.5 19.475 100.941 19.625 101.291 19.925C101.658 20.225 101.841 20.6667 101.841 21.25V30.375C101.841 30.9583 101.658 31.4 101.291 31.7C100.941 32 100.5 32.15 99.9662 32.15ZM99.9662 17.475C99.2995 17.475 98.7745 17.3083 98.3912 16.975C98.0079 16.625 97.8162 16.1583 97.8162 15.575C97.8162 14.9917 98.0079 14.5333 98.3912 14.2C98.7745 13.8667 99.2995 13.7 99.9662 13.7C100.616 13.7 101.133 13.875 101.516 14.225C101.916 14.5583 102.116 15.0083 102.116 15.575C102.116 16.1583 101.925 16.625 101.541 16.975C101.158 17.3083 100.633 17.475 99.9662 17.475ZM115.206 14.25C115.79 14.25 116.256 14.4083 116.606 14.725C116.973 15.0417 117.156 15.4583 117.156 15.975V30.375C117.156 30.9083 116.981 31.3417 116.631 31.675C116.298 31.9917 115.848 32.15 115.281 32.15C114.715 32.15 114.256 31.9917 113.906 31.675C113.573 31.3417 113.406 30.9083 113.406 30.375V30.175C113.04 30.8083 112.515 31.3083 111.831 31.675C111.165 32.025 110.406 32.2 109.556 32.2C108.506 32.2 107.565 31.9333 106.731 31.4C105.915 30.85 105.273 30.0917 104.806 29.125C104.356 28.1417 104.131 27.0167 104.131 25.75C104.131 24.4833 104.356 23.375 104.806 22.425C105.273 21.4583 105.915 20.7167 106.731 20.2C107.548 19.6833 108.49 19.425 109.556 19.425C110.39 19.425 111.14 19.6 111.806 19.95C112.49 20.3 113.015 20.7917 113.381 21.425V15.9C113.381 15.4 113.548 15 113.881 14.7C114.215 14.4 114.656 14.25 115.206 14.25ZM110.656 29.325C111.54 29.325 112.215 29.025 112.681 28.425C113.165 27.8083 113.406 26.9333 113.406 25.8C113.406 24.6667 113.165 23.8 112.681 23.2C112.215 22.6 111.54 22.3 110.656 22.3C109.773 22.3 109.09 22.6 108.606 23.2C108.123 23.7833 107.881 24.6333 107.881 25.75C107.881 26.8833 108.123 27.7667 108.606 28.4C109.09 29.0167 109.773 29.325 110.656 29.325ZM129.913 28.35C130.247 28.35 130.513 28.4833 130.713 28.75C130.93 29.0167 131.038 29.3583 131.038 29.775C131.038 30.0583 130.955 30.325 130.788 30.575C130.622 30.8083 130.388 31.0083 130.088 31.175C129.522 31.475 128.863 31.725 128.113 31.925C127.363 32.1083 126.672 32.2 126.038 32.2C124.705 32.2 123.538 31.9417 122.538 31.425C121.555 30.9083 120.797 30.175 120.263 29.225C119.73 28.2583 119.463 27.125 119.463 25.825C119.463 24.575 119.722 23.4667 120.238 22.5C120.755 21.5333 121.472 20.7833 122.388 20.25C123.305 19.7 124.347 19.425 125.513 19.425C126.63 19.425 127.605 19.675 128.438 20.175C129.288 20.6583 129.947 21.3583 130.413 22.275C130.88 23.175 131.113 24.2333 131.113 25.45C131.113 25.8167 131.022 26.1 130.838 26.3C130.672 26.4833 130.43 26.575 130.113 26.575H123.113C123.23 27.5583 123.53 28.275 124.013 28.725C124.497 29.1583 125.188 29.375 126.088 29.375C126.572 29.375 127.005 29.3167 127.388 29.2C127.772 29.0833 128.197 28.925 128.663 28.725C128.897 28.625 129.122 28.5417 129.338 28.475C129.555 28.3917 129.747 28.35 129.913 28.35ZM125.613 22.025C124.897 22.025 124.322 22.2583 123.888 22.725C123.455 23.175 123.197 23.8333 123.113 24.7H127.938C127.888 23.8167 127.663 23.15 127.263 22.7C126.88 22.25 126.33 22.025 125.613 22.025ZM140.718 19.475C141.218 19.4417 141.61 19.5583 141.893 19.825C142.193 20.075 142.343 20.4583 142.343 20.975C142.343 21.525 142.21 21.9333 141.943 22.2C141.677 22.4667 141.202 22.6333 140.518 22.7L139.768 22.775C138.852 22.875 138.185 23.175 137.768 23.675C137.368 24.175 137.168 24.8167 137.168 25.6V30.375C137.168 30.9583 136.985 31.4 136.618 31.7C136.268 32 135.827 32.15 135.293 32.15C134.743 32.15 134.285 32 133.918 31.7C133.568 31.4 133.393 30.9583 133.393 30.375V21.2C133.393 20.65 133.577 20.225 133.943 19.925C134.31 19.625 134.752 19.475 135.268 19.475C135.768 19.475 136.185 19.625 136.518 19.925C136.852 20.2083 137.018 20.6083 137.018 21.125V21.8C137.318 21.0833 137.768 20.5333 138.368 20.15C138.985 19.7667 139.652 19.55 140.368 19.5L140.718 19.475ZM150.078 32.225C148.761 32.225 147.536 32.075 146.403 31.775C145.269 31.4583 144.344 31.0167 143.628 30.45C143.378 30.2667 143.194 30.075 143.078 29.875C142.978 29.6583 142.928 29.3917 142.928 29.075C142.928 28.6583 143.053 28.2917 143.303 27.975C143.569 27.6583 143.869 27.5 144.203 27.5C144.386 27.5 144.561 27.5333 144.728 27.6C144.911 27.65 145.128 27.75 145.378 27.9C146.094 28.35 146.819 28.6833 147.553 28.9C148.286 29.1 149.094 29.2 149.978 29.2C151.078 29.2 151.919 29.0167 152.503 28.65C153.086 28.2833 153.378 27.7583 153.378 27.075C153.378 26.5583 153.103 26.1417 152.553 25.825C152.019 25.5083 151.061 25.2083 149.678 24.925C148.128 24.6083 146.886 24.225 145.953 23.775C145.036 23.325 144.361 22.7667 143.928 22.1C143.511 21.4333 143.303 20.625 143.303 19.675C143.303 18.625 143.603 17.6833 144.203 16.85C144.819 16 145.661 15.3417 146.728 14.875C147.811 14.3917 149.028 14.15 150.378 14.15C152.744 14.15 154.694 14.7417 156.228 15.925C156.478 16.125 156.653 16.3333 156.753 16.55C156.869 16.75 156.928 17 156.928 17.3C156.928 17.7167 156.794 18.0833 156.528 18.4C156.278 18.7167 155.986 18.875 155.653 18.875C155.469 18.875 155.294 18.85 155.128 18.8C154.978 18.75 154.761 18.6417 154.478 18.475C153.794 18.0417 153.161 17.7167 152.578 17.5C152.011 17.2833 151.286 17.175 150.403 17.175C149.386 17.175 148.586 17.375 148.003 17.775C147.419 18.1583 147.128 18.6917 147.128 19.375C147.128 19.775 147.236 20.1083 147.453 20.375C147.686 20.625 148.061 20.85 148.578 21.05C149.111 21.25 149.861 21.4583 150.828 21.675C153.094 22.175 154.719 22.8167 155.703 23.6C156.703 24.3833 157.203 25.4583 157.203 26.825C157.203 27.8917 156.903 28.8333 156.303 29.65C155.719 30.4667 154.886 31.1 153.803 31.55C152.736 32 151.494 32.225 150.078 32.225ZM167.487 19.425C170.337 19.425 171.762 21.15 171.762 24.6V30.375C171.762 30.925 171.587 31.3583 171.237 31.675C170.903 31.9917 170.445 32.15 169.862 32.15C169.278 32.15 168.82 31.9917 168.487 31.675C168.153 31.3583 167.987 30.925 167.987 30.375V24.55C167.987 23.8167 167.828 23.275 167.512 22.925C167.212 22.5583 166.737 22.375 166.087 22.375C165.303 22.375 164.67 22.625 164.187 23.125C163.72 23.625 163.487 24.2917 163.487 25.125V30.375C163.487 30.925 163.32 31.3583 162.987 31.675C162.653 31.9917 162.195 32.15 161.612 32.15C161.028 32.15 160.562 31.9917 160.212 31.675C159.878 31.3583 159.712 30.925 159.712 30.375V15.975C159.712 15.4583 159.887 15.0417 160.237 14.725C160.603 14.4083 161.078 14.25 161.662 14.25C162.212 14.25 162.653 14.4 162.987 14.7C163.32 15 163.487 15.4 163.487 15.9V21.35C163.92 20.7167 164.478 20.2417 165.162 19.925C165.845 19.5917 166.62 19.425 167.487 19.425ZM176.48 32.15C175.93 32.15 175.472 32 175.105 31.7C174.755 31.4 174.58 30.9583 174.58 30.375V21.25C174.58 20.6667 174.763 20.225 175.13 19.925C175.497 19.625 175.947 19.475 176.48 19.475C177.013 19.475 177.455 19.625 177.805 19.925C178.172 20.225 178.355 20.6667 178.355 21.25V30.375C178.355 30.9583 178.172 31.4 177.805 31.7C177.455 32 177.013 32.15 176.48 32.15ZM176.48 17.475C175.813 17.475 175.288 17.3083 174.905 16.975C174.522 16.625 174.33 16.1583 174.33 15.575C174.33 14.9917 174.522 14.5333 174.905 14.2C175.288 13.8667 175.813 13.7 176.48 13.7C177.13 13.7 177.647 13.875 178.03 14.225C178.43 14.5583 178.63 15.0083 178.63 15.575C178.63 16.1583 178.438 16.625 178.055 16.975C177.672 17.3083 177.147 17.475 176.48 17.475ZM188.845 19.425C189.912 19.425 190.853 19.6833 191.67 20.2C192.487 20.7167 193.12 21.4583 193.57 22.425C194.037 23.375 194.27 24.4833 194.27 25.75C194.27 27.0167 194.037 28.1417 193.57 29.125C193.12 30.0917 192.478 30.85 191.645 31.4C190.828 31.9333 189.895 32.2 188.845 32.2C187.995 32.2 187.228 32.025 186.545 31.675C185.862 31.3083 185.337 30.8083 184.97 30.175V30.375C184.97 30.9083 184.803 31.3417 184.47 31.675C184.137 31.9917 183.687 32.15 183.12 32.15C182.553 32.15 182.095 31.9917 181.745 31.675C181.412 31.3417 181.245 30.9083 181.245 30.375V15.975C181.245 15.4583 181.42 15.0417 181.77 14.725C182.137 14.4083 182.612 14.25 183.195 14.25C183.745 14.25 184.187 14.4 184.52 14.7C184.853 15 185.02 15.4 185.02 15.9V21.375C185.387 20.7583 185.903 20.2833 186.57 19.95C187.253 19.6 188.012 19.425 188.845 19.425ZM187.745 29.325C188.628 29.325 189.312 29.0167 189.795 28.4C190.278 27.7667 190.52 26.8833 190.52 25.75C190.52 24.6333 190.278 23.7833 189.795 23.2C189.312 22.6 188.628 22.3 187.745 22.3C186.862 22.3 186.178 22.6083 185.695 23.225C185.212 23.825 184.97 24.6833 184.97 25.8C184.97 26.9333 185.212 27.8083 185.695 28.425C186.178 29.025 186.862 29.325 187.745 29.325ZM202.102 19.425C203.902 19.425 205.235 19.8667 206.102 20.75C206.969 21.6167 207.402 22.95 207.402 24.75V30.4C207.402 30.95 207.244 31.3833 206.927 31.7C206.61 32 206.169 32.15 205.602 32.15C205.069 32.15 204.635 31.9917 204.302 31.675C203.985 31.3417 203.827 30.9167 203.827 30.4V30.225C203.577 30.8417 203.16 31.325 202.577 31.675C201.994 32.025 201.31 32.2 200.527 32.2C199.694 32.2 198.935 32.0333 198.252 31.7C197.585 31.3667 197.052 30.9 196.652 30.3C196.269 29.7 196.077 29.0333 196.077 28.3C196.077 27.4 196.302 26.6917 196.752 26.175C197.219 25.6583 197.96 25.2833 198.977 25.05C199.994 24.8167 201.385 24.7 203.152 24.7H203.802V24.25C203.802 23.55 203.644 23.0417 203.327 22.725C203.027 22.4083 202.519 22.25 201.802 22.25C201.085 22.25 200.052 22.5 198.702 23C198.319 23.1833 197.994 23.275 197.727 23.275C197.36 23.275 197.069 23.15 196.852 22.9C196.635 22.6333 196.527 22.2917 196.527 21.875C196.527 21.5417 196.602 21.2667 196.752 21.05C196.902 20.8333 197.144 20.6333 197.477 20.45C198.06 20.1333 198.769 19.8833 199.602 19.7C200.452 19.5167 201.285 19.425 202.102 19.425ZM201.352 29.6C202.085 29.6 202.677 29.3583 203.127 28.875C203.577 28.375 203.802 27.7333 203.802 26.95V26.525H203.377C202.027 26.525 201.077 26.6333 200.527 26.85C199.994 27.0667 199.727 27.4583 199.727 28.025C199.727 28.4917 199.877 28.875 200.177 29.175C200.494 29.4583 200.885 29.6 201.352 29.6Z" fill="white"/>
<path d="M219.457 32.15C218.857 32.15 218.382 31.975 218.032 31.625C217.682 31.275 217.507 30.8 217.507 30.2V16.175C217.507 15.5917 217.682 15.125 218.032 14.775C218.382 14.425 218.857 14.25 219.457 14.25C220.057 14.25 220.532 14.425 220.882 14.775C221.232 15.125 221.407 15.5917 221.407 16.175V30.2C221.407 30.8 221.232 31.275 220.882 31.625C220.532 31.975 220.057 32.15 219.457 32.15ZM232.304 19.425C233.771 19.425 234.863 19.8583 235.579 20.725C236.296 21.575 236.654 22.8667 236.654 24.6V30.375C236.654 30.925 236.479 31.3583 236.129 31.675C235.796 31.9917 235.338 32.15 234.754 32.15C234.171 32.15 233.713 31.9917 233.379 31.675C233.046 31.3583 232.879 30.925 232.879 30.375V24.775C232.879 23.9417 232.721 23.3333 232.404 22.95C232.104 22.5667 231.629 22.375 230.979 22.375C230.196 22.375 229.563 22.625 229.079 23.125C228.613 23.625 228.379 24.2917 228.379 25.125V30.375C228.379 30.925 228.213 31.3583 227.879 31.675C227.546 31.9917 227.088 32.15 226.504 32.15C225.921 32.15 225.454 31.9917 225.104 31.675C224.771 31.3583 224.604 30.925 224.604 30.375V21.2C224.604 20.6833 224.779 20.2667 225.129 19.95C225.496 19.6333 225.963 19.475 226.529 19.475C227.046 19.475 227.463 19.6333 227.779 19.95C228.113 20.25 228.279 20.6417 228.279 21.125V21.475C228.713 20.8083 229.271 20.3 229.954 19.95C230.654 19.6 231.438 19.425 232.304 19.425ZM249.397 19.475C249.981 19.475 250.439 19.6333 250.772 19.95C251.122 20.2667 251.297 20.7 251.297 21.25V30.425C251.297 30.9417 251.114 31.3583 250.747 31.675C250.397 31.9917 249.939 32.15 249.372 32.15C248.839 32.15 248.414 32 248.097 31.7C247.781 31.4 247.622 31 247.622 30.5V30.25C247.239 30.8833 246.731 31.3667 246.097 31.7C245.481 32.0333 244.781 32.2 243.997 32.2C242.447 32.2 241.289 31.775 240.522 30.925C239.772 30.0583 239.397 28.7583 239.397 27.025V21.25C239.397 20.7 239.564 20.2667 239.897 19.95C240.247 19.6333 240.714 19.475 241.297 19.475C241.881 19.475 242.339 19.6333 242.672 19.95C243.006 20.2667 243.172 20.7 243.172 21.25V27.1C243.172 27.8333 243.322 28.375 243.622 28.725C243.939 29.075 244.414 29.25 245.047 29.25C245.781 29.25 246.372 29 246.822 28.5C247.289 28 247.522 27.3417 247.522 26.525V21.25C247.522 20.7 247.689 20.2667 248.022 19.95C248.356 19.6333 248.814 19.475 249.397 19.475Z" fill="#E11D2E"/>
<rect width="50" height="50" rx="15" fill="#E22F2F"/>
<g opacity="0.300003">
<g opacity="0.300003">
<path opacity="0.300003" d="M43 41.6159C43 42.225 35.165 42.7188 25.5 42.7188C15.835 42.7188 8 42.225 8 41.6159C8 41.0069 15.835 40.5131 25.5 40.5131C35.165 40.5131 43 41.0069 43 41.6159Z" fill="#000072"/>
</g>
</g>
<path d="M40.2299 40.2368C39.5354 41.0277 38.5166 41.4727 37.4527 41.4727H13.5458C12.4819 41.4727 11.463 41.0277 10.7685 40.2368C10.3848 39.7996 10.1012 39.3126 9.91043 38.8143C9.90971 38.8143 9.90971 38.8143 9.90971 38.8136C9.30954 37.25 9.61534 35.572 10.5728 34.9685C12.1804 33.9537 13.42 35.1938 13.42 35.1938C13.5572 34.8773 13.743 34.6029 13.9509 34.3678C14.734 33.4793 15.8314 33.141 15.8314 33.141C15.2348 29.7802 16.5666 26.7351 16.5666 26.7351C16.5666 26.7351 19.8483 29.171 25.4992 29.171C31.1501 29.171 34.4318 26.7351 34.4318 26.7351C34.4318 26.7351 35.7636 29.7802 35.167 33.141C35.167 33.141 36.924 33.6828 37.5784 35.1938C37.5784 35.1938 38.8181 33.9537 40.4257 34.9685C41.6882 35.765 41.8175 38.4297 40.2299 40.2368Z" fill="#B11313"/>
<g opacity="0.300003">
<g opacity="0.300003">
<path opacity="0.300003" d="M14.377 38.292C14.5985 36.1859 13.4238 35.2771 13.4238 35.2771C13.561 34.9606 13.7468 34.6862 13.9547 34.4511C15.7767 36.5916 14.377 38.292 14.377 38.292Z" fill="#000072"/>
</g>
</g>
<g opacity="0.300003">
<g opacity="0.300003">
<path opacity="0.300003" d="M36.6347 38.292C36.4132 36.1859 37.5878 35.2771 37.5878 35.2771C37.4506 34.9606 37.2649 34.6862 37.057 34.4511C35.235 36.5916 36.6347 38.292 36.6347 38.292Z" fill="#000072"/>
</g>
</g>
<g opacity="0.300003">
<g opacity="0.300003">
<path opacity="0.300003" d="M36.8213 40.0596C36.651 40.018 36.4755 40.0036 36.3012 40.0225C36.0527 40.0492 35.6252 40.0908 34.9982 40.137C34.0545 40.2064 33.2303 39.5099 33.1659 38.5825C33.1382 38.1841 33.1989 37.8748 33.2209 37.7791C32.9745 38.8138 32.5194 39.7671 32.242 40.2899C30.8335 40.3476 29.0495 40.3945 26.8434 40.4083C26.7244 36.2214 29.2007 32.2956 29.2007 32.2956C25.4066 35.2768 21.8108 32.2956 21.8108 32.2956C24.3144 36.6603 24.1841 40.2265 24.1841 40.2265L24.6057 40.4106C22.1966 40.4007 20.2699 40.3514 18.7695 40.29C18.492 39.7672 18.037 38.8139 17.7905 37.7791C17.8134 37.8787 17.8781 38.2093 17.8417 38.6309C17.7634 39.5384 16.9385 40.2051 16.0139 40.137C15.3865 40.0908 14.9588 40.0492 14.7103 40.0225C14.5359 40.0036 14.3604 40.018 14.1902 40.0596C11.47 40.7248 9.96259 38.9558 9.91406 38.8973C10.1048 39.3956 10.3885 39.8826 10.7722 40.3198C11.4667 41.1107 12.4855 41.5557 13.5494 41.5557H25.5057H37.462C38.5259 41.5557 39.5448 41.1107 40.2393 40.3198C40.6229 39.8826 40.9066 39.3956 41.0974 38.8973C41.0488 38.9558 39.5415 40.7248 36.8213 40.0596Z" fill="#000072"/>
</g>
</g>
<g opacity="0.300003">
<g opacity="0.300003">
<path opacity="0.300003" d="M17.785 37.7793C17.7803 37.7587 17.7773 37.7475 17.7773 37.7475C17.7798 37.7581 17.7825 37.7687 17.785 37.7793Z" fill="#000072"/>
</g>
</g>
<g opacity="0.300003">
<g opacity="0.300003">
<path opacity="0.300003" d="M33.2207 37.7793C33.2232 37.7687 33.2259 37.7582 33.2283 37.7475C33.2283 37.7475 33.2254 37.7588 33.2207 37.7793Z" fill="#000072"/>
</g>
</g>
<path d="M25.4962 41.3122H37.4526C38.4556 41.3122 39.3995 40.8926 40.0424 40.1609C40.873 39.2155 41.2825 37.9064 41.1113 36.7444C41.011 36.0641 40.7124 35.5216 40.2919 35.2561C38.8701 34.3583 37.7997 35.4027 37.7548 35.4475C37.6969 35.5055 37.6134 35.5314 37.5321 35.5161C37.4508 35.501 37.3826 35.447 37.3502 35.3723C36.7474 33.9803 35.109 33.4615 35.0925 33.4564C34.974 33.4199 34.9013 33.3027 34.9227 33.1825C35.3971 30.5117 34.6134 28.0128 34.3133 27.194C33.4148 27.771 30.3231 29.4975 25.4991 29.4975C20.6751 29.4975 17.5833 27.771 16.6849 27.194C16.3848 28.0128 15.601 30.5117 16.0755 33.1825C16.0968 33.3027 16.0242 33.4199 15.9056 33.4564C15.8894 33.4615 14.2484 33.9859 13.648 35.3723C13.6156 35.447 13.5474 35.501 13.4661 35.5161C13.3849 35.5313 13.3013 35.5055 13.2433 35.4475C13.1986 35.4034 12.119 34.364 10.7063 35.2561C10.2858 35.5216 9.98712 36.0641 9.88689 36.7444C9.71567 37.9064 10.1252 39.2156 10.9557 40.1609C11.5986 40.8926 12.5426 41.3122 13.5456 41.3122H25.4962ZM37.4526 41.7988H13.5456C12.3984 41.7988 11.3178 41.3177 10.5807 40.4787C9.65915 39.4298 9.20543 37.9722 9.39662 36.6747C9.51918 35.8428 9.88916 35.1936 10.4384 34.8468C11.7455 34.0216 12.8484 34.5605 13.3331 34.8962C13.9478 33.7906 15.0884 33.2484 15.5539 33.0653C15.0355 29.7543 16.2844 26.8465 16.3388 26.7219C16.3689 26.6532 16.4294 26.6019 16.503 26.5828C16.5767 26.5636 16.6551 26.5788 16.7158 26.6239C16.7479 26.6476 20.0067 29.0109 25.4991 29.0109C30.9915 29.0109 34.2503 26.6476 34.2826 26.6237C34.3434 26.5788 34.4219 26.5637 34.4953 26.5829C34.5688 26.6021 34.6294 26.6533 34.6593 26.7219C34.7138 26.8465 35.9626 29.7543 35.4442 33.0653C35.9098 33.2484 37.0504 33.7906 37.6651 34.8962C38.1497 34.5605 39.2526 34.0213 40.5598 34.8468C41.109 35.1936 41.479 35.8427 41.6016 36.6747C41.7928 37.9722 41.3391 39.4298 40.4175 40.4787C39.6804 41.3177 38.5997 41.7988 37.4526 41.7988Z" fill="#000072"/>
<path d="M13.5599 35.0792C13.5871 35.0974 13.5998 35.1075 13.6185 35.121C13.6362 35.134 13.6506 35.1463 13.6668 35.1591C13.6989 35.1846 13.7261 35.2115 13.7553 35.238C13.7851 35.2641 13.8097 35.2929 13.8365 35.3207C13.8635 35.3484 13.8888 35.377 13.9125 35.4065C14.0112 35.5227 14.0942 35.6479 14.1682 35.7772C14.3165 36.0358 14.415 36.3147 14.4835 36.5954C14.5503 36.8774 14.575 37.1636 14.575 37.4463C14.5755 37.5875 14.5595 37.7283 14.5497 37.8675C14.5283 38.0065 14.505 38.1444 14.4754 38.2804C14.4697 38.3063 14.4437 38.3228 14.4173 38.3173C14.3973 38.3131 14.3827 38.2973 14.3794 38.2786L14.3788 38.2752C14.3545 38.1387 14.3394 38.0041 14.3212 37.8707L14.2857 37.6721C14.2727 37.6065 14.2678 37.5402 14.2501 37.4758C14.2168 37.3468 14.199 37.2165 14.157 37.0919C14.1387 37.0292 14.1243 36.9657 14.1044 36.904L14.0405 36.7209C13.9524 36.4793 13.8448 36.2482 13.7151 36.0346C13.6813 35.9823 13.6497 35.9281 13.613 35.8785L13.56 35.8024L13.5031 35.7301C13.467 35.6803 13.4252 35.6365 13.386 35.5915C13.3658 35.5701 13.3458 35.547 13.3254 35.5279C13.3156 35.5182 13.3052 35.5066 13.2959 35.4981C13.2877 35.4903 13.2742 35.4779 13.2733 35.4761L13.2198 35.3706C13.1624 35.2574 13.2093 35.1199 13.3246 35.0635C13.4027 35.0253 13.4925 35.0343 13.5599 35.0792Z" fill="#000072"/>
<path d="M37.7139 35.4751C37.7129 35.4769 37.6994 35.4893 37.6912 35.4972C37.6819 35.5056 37.6715 35.5172 37.6617 35.527C37.6413 35.546 37.6213 35.5692 37.6011 35.5905C37.5619 35.6355 37.5201 35.6793 37.484 35.7292L37.4272 35.8015L37.3741 35.8776C37.3374 35.9271 37.3058 35.9813 37.272 36.0337C37.1423 36.2473 37.0347 36.4783 36.9466 36.7199L36.8827 36.903C36.8628 36.9647 36.8485 37.0283 36.8302 37.091C36.7882 37.2155 36.7703 37.3459 36.7371 37.4748C36.7193 37.5392 36.7144 37.6055 36.7015 37.6712L36.6659 37.8697C36.6477 38.0031 36.6326 38.1377 36.6083 38.2743L36.6077 38.2776C36.6031 38.3037 36.5778 38.3212 36.5512 38.3167C36.5309 38.3132 36.5158 38.298 36.5117 38.2794C36.4821 38.1435 36.4588 38.0056 36.4374 37.8665C36.4277 37.7273 36.4116 37.5865 36.4121 37.4453C36.4122 37.1626 36.4368 36.8764 36.5036 36.5945C36.5721 36.3137 36.6706 36.0349 36.8189 35.7762C36.8929 35.647 36.9759 35.5217 37.0746 35.4055C37.0983 35.3761 37.1237 35.3475 37.1506 35.3198C37.1774 35.2919 37.202 35.2632 37.2318 35.2371C37.261 35.2106 37.2882 35.1837 37.3204 35.1581C37.3366 35.1453 37.3509 35.133 37.3686 35.1201C37.3874 35.1065 37.4 35.0964 37.4272 35.0782C37.5336 35.007 37.6787 35.034 37.7513 35.1386C37.8004 35.2094 37.8036 35.2977 37.7675 35.3694L37.7139 35.4751Z" fill="#000072"/>
<path d="M16.079 33.1956L16.0991 33.39L16.1244 33.6074C16.1332 33.6815 16.1451 33.7559 16.1516 33.8339C16.1588 33.9117 16.1631 33.9923 16.1591 34.0794L16.1591 34.0798C16.1585 34.0935 16.1467 34.1041 16.1327 34.1035C16.1277 34.1033 16.1231 34.1016 16.1193 34.099C16.0466 34.0487 15.9839 33.9909 15.9297 33.928C15.8742 33.8655 15.8288 33.7973 15.7845 33.7274C15.7412 33.6571 15.7018 33.584 15.6675 33.5073C15.6514 33.4687 15.6346 33.4298 15.6216 33.3888C15.6146 33.3686 15.6083 33.3477 15.6026 33.3263C15.5965 33.3031 15.5924 33.2862 15.5871 33.2534C15.5656 33.1206 15.6578 32.9958 15.793 32.9748C15.9281 32.9536 16.0552 33.0442 16.0766 33.177C16.0773 33.1812 16.0779 33.1855 16.0783 33.1897L16.079 33.1956Z" fill="#000072"/>
<path d="M35.4173 33.2534C35.412 33.2862 35.4079 33.3031 35.4018 33.3263C35.3961 33.3477 35.3898 33.3686 35.3828 33.3889C35.3698 33.4298 35.3531 33.4687 35.3369 33.5073C35.3026 33.584 35.2632 33.6571 35.2199 33.7274C35.1756 33.7973 35.1302 33.8655 35.0747 33.928C35.0205 33.9909 34.9579 34.0487 34.8851 34.099C34.8737 34.1069 34.8579 34.1042 34.8499 34.093C34.847 34.089 34.8455 34.0844 34.8453 34.0798L34.8453 34.0795C34.8413 33.9923 34.8456 33.9117 34.8529 33.8339C34.8594 33.7559 34.8712 33.6815 34.8801 33.6074L34.9053 33.39L34.9255 33.1956L34.926 33.1905C34.9399 33.0567 35.0615 32.9593 35.1977 32.973C35.3339 32.9866 35.433 33.1061 35.4191 33.2399C35.4187 33.2441 35.418 33.2492 35.4173 33.2534Z" fill="#000072"/>
<path d="M17.2775 35.6071C17.2775 35.6071 16.1436 34.7434 15.8297 33.2245C15.8297 33.2245 15.1774 32.9007 14.7266 33.7769C14.7266 33.7769 15.2466 36.4518 17.7774 37.748C17.7774 37.748 17.4117 36.371 17.2775 35.6071Z" fill="#0096F2"/>
<path d="M14.9883 33.8116C15.0904 34.22 15.6404 36.0852 17.3909 37.2401C17.2801 36.7986 17.1333 36.1886 17.0492 35.7371C16.7866 35.5136 15.9319 34.7049 15.6179 33.412C15.4754 33.3879 15.2187 33.4161 14.9883 33.8116ZM17.777 37.9912C17.7379 37.9912 17.6986 37.9821 17.6625 37.9637C15.0555 36.6283 14.5051 33.9363 14.4829 33.8224C14.4727 33.7697 14.4805 33.715 14.5052 33.667C14.7868 33.1197 15.155 32.9646 15.4143 32.9309C15.7013 32.8932 15.9174 32.9955 15.9411 33.0073C16.0088 33.0409 16.0571 33.103 16.0721 33.176C16.3628 34.5825 17.4187 35.4068 17.4293 35.4149C17.4777 35.4522 17.5108 35.506 17.5212 35.5656C17.6521 36.3106 18.0131 37.6729 18.0167 37.6865C18.0414 37.7796 18.0079 37.8783 17.9313 37.9382C17.8866 37.9733 17.8319 37.9912 17.777 37.9912Z" fill="#000072"/>
<path d="M33.7264 35.6071C33.7264 35.6071 34.8603 34.7434 35.1742 33.2245C35.1742 33.2245 35.8265 32.9007 36.2774 33.7769C36.2774 33.7769 35.7573 36.4518 33.2266 37.748C33.2266 37.748 33.5923 36.371 33.7264 35.6071Z" fill="#0096F2"/>
<path d="M33.9521 35.7371C33.8679 36.1887 33.7211 36.7987 33.6103 37.2401C35.3608 36.0853 35.9108 34.2203 36.013 33.8115C35.8735 33.5714 35.7085 33.4375 35.5218 33.4132C35.4695 33.4064 35.4215 33.4092 35.3825 33.4153C35.0679 34.7064 34.2145 35.5137 33.9521 35.7371ZM33.2243 37.9912C33.1693 37.9912 33.1147 37.9732 33.07 37.9382C32.9933 37.8783 32.9599 37.7796 32.9846 37.6865C32.9882 37.6729 33.3492 36.3105 33.48 35.5656C33.4905 35.5058 33.5233 35.4522 33.572 35.415C33.5826 35.4068 34.6385 34.5825 34.9291 33.176C34.9442 33.103 34.9925 33.0409 35.0602 33.0073C35.0838 32.9955 35.2999 32.8932 35.5869 32.9309C35.8462 32.9646 36.2145 33.1197 36.4961 33.6671C36.5208 33.715 36.5286 33.7697 36.5184 33.8224C36.4962 33.9363 35.9458 36.6283 33.3388 37.9637C33.3027 37.9821 33.2634 37.9912 33.2243 37.9912Z" fill="#000072"/>
<path d="M20.6953 29.3923C20.6953 29.3923 21.121 30.5776 20.9985 32.307L22.4013 33.5059C22.4013 33.5059 22.7678 31.4165 22.1435 29.6812L20.6953 29.3923Z" fill="#0096F2"/>
<path d="M21.2491 32.2023L22.2083 33.022C22.2732 32.3553 22.3286 31.0481 21.95 29.8916L21.039 29.7098C21.1568 30.191 21.3139 31.0762 21.2491 32.2023ZM22.3969 33.749C22.3381 33.749 22.2801 33.7284 22.2343 33.6893L20.8316 32.4905C20.773 32.4404 20.7417 32.3662 20.7471 32.2901C20.8642 30.6375 20.4614 29.4843 20.4573 29.4728C20.4278 29.3903 20.4458 29.2984 20.5044 29.2324C20.563 29.1665 20.6532 29.1368 20.7403 29.1538L22.1884 29.4426C22.2737 29.4596 22.3437 29.5194 22.3727 29.6C23.0112 31.3747 22.6564 33.4592 22.641 33.5471C22.6258 33.6336 22.5643 33.7054 22.48 33.7349C22.4529 33.7444 22.4248 33.749 22.3969 33.749Z" fill="#000072"/>
<path d="M30.307 29.3923C30.307 29.3923 29.8813 30.5776 30.0038 32.307L28.6011 33.5059C28.6011 33.5059 28.2345 31.4165 28.8588 29.6812L30.307 29.3923Z" fill="#0096F2"/>
<path d="M29.0492 29.8916C28.6699 31.0502 28.7254 32.3562 28.7906 33.0222L29.7501 32.2023C29.6853 31.0762 29.8424 30.191 29.9601 29.7098L29.0492 29.8916ZM28.6023 33.749C28.5744 33.749 28.5463 33.7444 28.5192 33.7349C28.4349 33.7054 28.3734 33.6336 28.3582 33.5471C28.3428 33.4592 27.988 31.3747 28.6265 29.6C28.6555 29.5194 28.7255 29.4596 28.8108 29.4426L30.2589 29.1538C30.3463 29.1361 30.4366 29.1664 30.4951 29.2325C30.5536 29.2986 30.5714 29.3904 30.5419 29.473C30.5354 29.4912 30.1354 30.6424 30.2521 32.2901C30.2575 32.3662 30.2262 32.4404 30.1675 32.4905L28.7649 33.6893C28.7191 33.7284 28.6611 33.749 28.6023 33.749Z" fill="#000072"/>
<path d="M24.1011 40.7953C23.7481 42.4978 21.7361 43.2768 20.3221 42.2332C19.2154 41.417 18 39.5503 17.2491 35.4568C17.1776 35.0645 17.1098 34.6511 17.0469 34.2167L17.5249 33.7718L20.6936 30.82C20.6936 30.82 23.8153 35.5669 24.1611 39.2057V39.2064C24.2154 39.7699 24.2025 40.3068 24.1011 40.7953Z" fill="#B11313"/>
<g opacity="0.300003">
<g opacity="0.300003">
<path opacity="0.300003" d="M24.1002 40.7953C23.7472 42.4978 21.7352 43.2768 20.3212 42.2332C19.2145 41.417 17.9991 39.5503 17.2482 35.4568C16.1915 34.8315 15.8285 33.2237 15.8285 33.2237C15.3726 31.0888 15.8985 29.121 15.8985 29.121C15.7984 31.7195 16.8485 32.9591 17.2816 33.357C17.4023 33.4679 17.4866 33.6108 17.5234 33.7691C17.5236 33.77 17.5238 33.7709 17.524 33.7718C18.2978 37.1347 19.5939 41.2318 21.4744 41.5251C23.2899 41.8079 24.0723 39.485 24.1602 39.2064C24.2145 39.77 24.2016 40.3068 24.1002 40.7953Z" fill="#000072"/>
</g>
</g>
<path d="M20.9664 30.5935C21.3272 30.9795 21.6125 31.41 21.8712 31.8548C21.9996 32.0777 22.1167 32.3064 22.233 32.5354C22.3494 32.7645 22.4633 32.9948 22.5744 33.2265C23.0191 34.1531 23.424 35.1005 23.7603 36.0768C24.097 37.0518 24.3681 38.0593 24.4669 39.1082C24.5145 39.6319 24.5174 40.1677 24.4268 40.7041C24.4072 40.8357 24.3785 40.9771 24.3344 41.1131C24.2944 41.2502 24.2377 41.3825 24.1762 41.5121C24.048 41.7692 23.8771 42.0063 23.6733 42.2113C23.2616 42.6174 22.7175 42.8913 22.1399 42.9718C21.8518 43.016 21.5559 43.0063 21.2688 42.9563C20.9819 42.9028 20.7049 42.8016 20.4516 42.6623C20.3277 42.5904 20.203 42.5112 20.0953 42.424L19.9339 42.2939C19.8793 42.2512 19.8325 42.2016 19.7816 42.1556C19.7324 42.1082 19.6801 42.0632 19.6337 42.0136L19.4956 41.8642C19.4002 41.7667 19.3212 41.6585 19.2356 41.5545C18.9049 41.131 18.6412 40.6704 18.4097 40.2009C18.1744 39.7317 17.9945 39.2437 17.8203 38.756C17.6586 38.2646 17.5113 37.7697 17.3902 37.2699C17.3303 37.0199 17.266 36.7707 17.2171 36.5189C17.1668 36.2673 17.1065 36.0175 17.0699 35.7638C16.9889 35.2577 16.9509 34.7447 16.9955 34.2243C16.998 34.1949 17.0243 34.1731 17.0543 34.1755C17.0751 34.1772 17.0923 34.1904 17.0999 34.2081L17.1005 34.2096C17.2035 34.4514 17.2814 34.6954 17.3486 34.9408C17.4147 35.1863 17.4833 35.4302 17.5353 35.6771C17.5849 35.9246 17.6432 36.1696 17.698 36.4155C17.75 36.6622 17.8171 36.9046 17.8797 37.1483C18.0063 37.6352 18.1577 38.1139 18.3219 38.5869C18.498 39.0546 18.6789 39.5215 18.9089 39.961C19.1342 40.4021 19.3912 40.8254 19.6932 41.2067C19.7712 41.2995 19.8436 41.3981 19.9289 41.4829L20.0525 41.6148C20.0938 41.6586 20.1398 41.6966 20.1831 41.738C20.2278 41.7774 20.2692 41.8215 20.3164 41.8574L20.4558 41.9679C20.5483 42.0419 20.6427 42.0991 20.7413 42.1563C20.9404 42.2633 21.1549 42.3396 21.3766 42.3793C21.5986 42.4155 21.827 42.4223 22.0501 42.3856C22.4978 42.3206 22.919 42.102 23.2354 41.7872C23.393 41.629 23.5253 41.4466 23.6253 41.2478C23.6727 41.1472 23.7179 41.045 23.749 40.9377C23.7839 40.8316 23.8063 40.7232 23.8243 40.6036C23.9046 40.137 23.9054 39.6483 23.8621 39.1611C23.8182 38.673 23.73 38.1845 23.6158 37.7003C23.5023 37.2157 23.3604 36.7351 23.2025 36.2589C22.886 35.3063 22.4992 34.3722 22.0716 33.4562C21.9648 33.227 21.8551 32.9991 21.7431 32.7723C21.6315 32.5452 21.5141 32.321 21.4053 32.0924C21.1856 31.6361 20.9787 31.1724 20.8154 30.6822L20.8149 30.6806C20.7995 30.6343 20.8252 30.5844 20.8723 30.5693C20.9069 30.5582 20.9434 30.5688 20.9664 30.5935Z" fill="#000072"/>
<path d="M17.9431 38.5352C17.8764 38.5352 17.8098 38.5089 17.761 38.457C17.6683 38.3583 17.6744 38.2045 17.7748 38.1134C17.8667 38.0299 20.0637 36.0668 23.4275 35.8198C23.5635 35.8091 23.6827 35.9103 23.6929 36.0443C23.7031 36.1783 23.6008 36.295 23.4644 36.3051C20.2791 36.539 18.1323 38.4515 18.111 38.4707C18.0634 38.5138 18.0031 38.5352 17.9431 38.5352Z" fill="#000072"/>
<path d="M26.9002 40.7962C27.2532 42.4988 29.2652 43.2778 30.6792 42.2342C31.7859 41.418 33.0013 39.5513 33.7522 35.4577C33.8237 35.0654 33.8916 34.6521 33.9544 34.2177L33.4764 33.7727L30.3077 30.821C30.3077 30.821 27.186 35.5679 26.8402 39.2067V39.2074C26.7859 39.7709 26.7988 40.3078 26.9002 40.7962Z" fill="#B11313"/>
<g opacity="0.300003">
<g opacity="0.300003">
<path opacity="0.300003" d="M26.8924 40.7953C27.2454 42.4978 29.2574 43.2768 30.6714 42.2332C31.7781 41.417 32.9935 39.5503 33.7444 35.4568C34.8012 34.8315 35.1641 33.2237 35.1641 33.2237C35.62 31.0888 35.0941 29.121 35.0941 29.121C35.1942 31.7195 34.1441 32.9591 33.711 33.357C33.5904 33.4679 33.506 33.6108 33.4693 33.7691C33.469 33.77 33.4688 33.7709 33.4686 33.7718C32.6948 37.1347 31.3987 41.2318 29.5182 41.5251C27.7027 41.8079 26.9203 39.485 26.8324 39.2064C26.7781 39.77 26.791 40.3068 26.8924 40.7953Z" fill="#000072"/>
</g>
</g>
<path d="M30.1861 30.6822C30.0229 31.1724 29.8159 31.6361 29.5962 32.0924C29.4875 32.321 29.37 32.5452 29.2585 32.7723C29.1464 32.9991 29.0367 33.227 28.93 33.4562C28.5024 34.3722 28.1156 35.3063 27.7991 36.2589C27.6411 36.735 27.4993 37.2156 27.3858 37.7003C27.2716 38.1845 27.1834 38.673 27.1395 39.161C27.0962 39.6483 27.097 40.137 27.1773 40.6036C27.1953 40.7231 27.2176 40.8316 27.2526 40.9377C27.2837 41.045 27.3289 41.1472 27.3762 41.2478C27.4763 41.4466 27.6086 41.629 27.7662 41.7872C28.0826 42.1019 28.5038 42.3206 28.9515 42.3857C29.1746 42.4223 29.403 42.4155 29.625 42.3793C29.8467 42.3396 30.0612 42.2632 30.2603 42.1563C30.3589 42.0991 30.4533 42.0419 30.5457 41.9679L30.6852 41.8574C30.7324 41.8215 30.7738 41.7774 30.8185 41.738C30.8618 41.6966 30.9078 41.6586 30.9491 41.6148L31.0727 41.483C31.158 41.3981 31.2303 41.2995 31.3084 41.2067C31.6104 40.8254 31.8674 40.4021 32.0927 39.961C32.3227 39.5215 32.5036 39.0546 32.6797 38.5869C32.8439 38.1139 32.9953 37.6352 33.1219 37.1483C33.1845 36.9046 33.2515 36.6622 33.3036 36.4155C33.3584 36.1696 33.4166 35.9246 33.4663 35.6771C33.5183 35.4302 33.5868 35.1862 33.653 34.9408C33.7202 34.6954 33.7981 34.4514 33.9011 34.2096L33.9017 34.2081C33.9133 34.1809 33.9452 34.1681 33.9729 34.1794C33.9922 34.1874 34.0044 34.2051 34.0061 34.2243C34.0507 34.7446 34.0127 35.2577 33.9316 35.7638C33.895 36.0175 33.8347 36.2673 33.7844 36.5189C33.7356 36.7707 33.6713 37.0199 33.6114 37.2699C33.4903 37.7697 33.343 38.2646 33.1813 38.756C33.0071 39.2437 32.8272 39.7317 32.5919 40.2008C32.3604 40.6704 32.0966 41.131 31.766 41.5545C31.6804 41.6585 31.6013 41.7667 31.506 41.8642L31.3678 42.0136C31.3215 42.0632 31.2692 42.1082 31.22 42.1556C31.169 42.2016 31.1222 42.2512 31.0677 42.2939L30.9063 42.424C30.7986 42.5112 30.6739 42.5904 30.5499 42.6623C30.2967 42.8016 30.0196 42.9028 29.7327 42.9563C29.4456 43.0063 29.1498 43.016 28.8617 42.9717C28.2841 42.8913 27.74 42.6174 27.3282 42.2113C27.1245 42.0063 26.9536 41.7692 26.8253 41.5121C26.7639 41.3825 26.7071 41.2502 26.6671 41.1131C26.623 40.9771 26.5944 40.8357 26.5748 40.7041C26.4842 40.1677 26.4871 39.6318 26.5346 39.1082C26.6335 38.0593 26.9046 37.0518 27.2412 36.0767C27.5776 35.1005 27.9825 34.1531 28.4272 33.2265C28.5382 32.9948 28.6522 32.7645 28.7685 32.5354C28.8849 32.3064 29.002 32.0777 29.1304 31.8548C29.3891 31.41 29.6743 30.9795 30.0351 30.5935C30.0687 30.5576 30.1255 30.5552 30.162 30.5881C30.1888 30.6123 30.1973 30.6486 30.1867 30.6805L30.1861 30.6822Z" fill="#000072"/>
<path d="M33.0592 38.5352C32.9991 38.5352 32.9388 38.5138 32.8912 38.4706C32.8699 38.4513 30.7231 36.5388 27.5378 36.3049C27.4014 36.2949 27.2991 36.1781 27.3093 36.0441C27.3195 35.9102 27.4385 35.809 27.5747 35.8197C30.9385 36.0667 33.1355 38.0298 33.2274 38.1133C33.3278 38.2045 33.334 38.3584 33.2411 38.457C33.1923 38.5089 33.1258 38.5352 33.0592 38.5352Z" fill="#000072"/>
<path d="M25.5041 28.4702C31.982 28.4702 34.5541 25.6907 34.5541 25.6907C34.5541 25.6907 34.662 25.93 34.7145 26.2702C34.8015 26.8334 34.558 27.3983 34.0943 27.7405C33.075 28.4926 30.4796 29.9258 25.5007 29.9258C20.5219 29.9258 17.9264 28.4926 16.9072 27.7405C16.4435 27.3983 16.2 26.8334 16.287 26.2702C16.3395 25.93 16.4474 25.6907 16.4474 25.6907C16.4474 25.6907 19.0195 28.4702 25.4974 28.4702" fill="#751313"/>
<g opacity="0.300003">
<g opacity="0.300003">
<path opacity="0.300003" d="M34.6928 26.1398C34.6094 26.493 34.4007 26.814 34.0962 27.0387C33.077 27.7908 30.4816 29.224 25.5027 29.224C20.5238 29.224 17.9284 27.7908 16.9091 27.0387C16.6046 26.814 16.3959 26.493 16.3126 26.1398C16.304 26.1813 16.2959 26.2247 16.2889 26.2702C16.2019 26.8334 16.4454 27.3984 16.9091 27.7405C17.9284 28.4926 20.5238 29.9258 25.5027 29.9258C30.4816 29.9258 33.077 28.4926 34.0962 27.7405C34.5599 27.3984 34.8034 26.8334 34.7165 26.2702C34.7094 26.2247 34.7014 26.1813 34.6928 26.1398Z" fill="#000072"/>
</g>
</g>
<path d="M25.5005 30.1689C20.5283 30.1689 17.889 28.7692 16.7582 27.9349C16.2161 27.5348 15.9416 26.8829 16.0419 26.2336C16.0987 25.8654 16.2158 25.603 16.2207 25.592C16.2547 25.5168 16.325 25.4635 16.4076 25.4504C16.4902 25.4371 16.5741 25.466 16.6305 25.5269C16.6553 25.5535 19.2231 28.2268 25.4972 28.2268V28.7134C20.1385 28.7134 17.4203 26.8567 16.565 26.1337C16.5527 26.187 16.5412 26.245 16.5316 26.3065C16.4587 26.7786 16.6596 27.2535 17.0558 27.5459C18.1371 28.3437 20.6722 29.6824 25.5005 29.6824C30.3289 29.6824 32.864 28.3437 33.9454 27.5459C34.3415 27.2535 34.5423 26.7786 34.4694 26.3065C34.4599 26.245 34.4484 26.187 34.436 26.1337C33.5808 26.8567 30.8625 28.7134 25.5039 28.7134V28.2268C31.7993 28.2268 34.3456 25.5539 34.3706 25.5269C34.4269 25.466 34.5108 25.4372 34.5934 25.4504C34.6761 25.4635 34.7464 25.5168 34.7803 25.592C34.7853 25.603 34.9024 25.8654 34.9592 26.2336C35.0595 26.8829 34.785 27.5348 34.2429 27.9349C33.1122 28.7692 30.4728 30.1689 25.5005 30.1689Z" fill="#000072"/>
<path d="M16.457 27.7482L20.4511 36.6787" stroke="#000072" stroke-width="0.2" stroke-miterlimit="10"/>
<path d="M30.3848 36.6787L34.4636 27.7483" stroke="#000072" stroke-width="0.2" stroke-miterlimit="10"/>
<path fill-rule="evenodd" clip-rule="evenodd" d="M25.2077 31.395C25.2061 31.4165 25.1928 31.4357 25.1839 31.4569C25.1754 31.4774 25.1675 31.4993 25.1601 31.5209C25.1408 31.5769 25.1228 31.6321 25.1244 31.7047C25.1903 31.7132 25.2733 31.7069 25.3327 31.6987C25.3652 31.7129 25.3861 31.7348 25.4161 31.7507C25.4104 31.7235 25.4375 31.7184 25.4607 31.7107C25.4504 31.7224 25.4344 31.7303 25.4399 31.7527C25.4534 31.7587 25.4556 31.7426 25.4667 31.7407C25.482 31.7524 25.5014 31.7518 25.5173 31.7407C25.5286 31.7423 25.5256 31.7537 25.5381 31.7547C25.5557 31.7391 25.5305 31.7223 25.5232 31.7107C25.5453 31.7185 25.5704 31.7243 25.5679 31.7487C25.5919 31.7388 25.6212 31.7152 25.6452 31.6987C25.7072 31.7075 25.7865 31.7116 25.8595 31.7067C25.857 31.5851 25.8131 31.4914 25.7702 31.397C25.7821 31.3959 25.782 31.4064 25.7851 31.4109C25.8294 31.4752 25.8688 31.5487 25.9012 31.6268C25.9059 31.6381 25.9138 31.6535 25.919 31.6687C25.9236 31.682 25.9332 31.7052 25.9309 31.7127C25.9258 31.7291 25.8855 31.7346 25.8773 31.7487C25.8526 31.729 25.7812 31.7347 25.7137 31.7327C25.6945 31.7321 25.6689 31.7284 25.6571 31.7307C25.6312 31.7357 25.6198 31.7611 25.6065 31.7746C25.6432 31.7763 25.6722 31.7525 25.7047 31.7507C25.7254 31.7495 25.7556 31.7599 25.7821 31.7647C25.8589 31.7783 25.9444 31.7898 26.0143 31.8046C26.0185 31.6439 25.957 31.51 25.8744 31.4009C25.9565 31.477 26.0118 31.5661 26.0529 31.6707C26.0601 31.6888 26.0662 31.7061 26.0708 31.7247C26.0773 31.7509 26.0776 31.7832 26.0976 31.8026C26.0729 31.8207 26.0432 31.8354 26.0172 31.8526C25.9441 31.8233 25.8028 31.781 25.6839 31.7886C25.6554 31.7904 25.6303 31.8 25.6095 31.8126C25.6458 31.8224 25.671 31.8233 25.7196 31.8226C25.7317 31.8224 25.7492 31.8191 25.7583 31.8206C25.7686 31.8224 25.7852 31.8367 25.8 31.8466C25.8859 31.9043 25.9628 31.9466 26.0648 31.9925C26.0967 32.0068 26.1147 32.0214 26.1511 32.0025C26.1572 32.1921 26.0822 32.3321 25.9904 32.4601C25.9797 32.475 25.973 32.4923 25.9547 32.504C26.0237 32.3947 26.0767 32.2647 26.0767 32.1124C26.0767 32.0964 26.0813 32.0765 26.0767 32.0624C26.0703 32.0424 26.0235 32.0212 25.9964 32.0045C25.9195 31.9568 25.8583 31.9233 25.7732 31.8786C25.7565 31.8698 25.7423 31.8579 25.7286 31.8546C25.7141 31.851 25.6912 31.8503 25.675 31.8486C25.6547 31.8464 25.6352 31.8458 25.6184 31.8446C25.6513 31.8683 25.7035 31.8978 25.7494 31.9205C25.7577 31.9256 25.7665 31.9187 25.7762 31.9185C25.787 32.1413 25.7624 32.3595 25.669 32.522C25.6467 32.5608 25.622 32.5989 25.5827 32.6279C25.7096 32.4741 25.7192 32.21 25.6928 31.9785C25.7198 31.9628 25.7081 31.9497 25.6839 31.9305C25.6575 31.9095 25.6105 31.8788 25.5798 31.8686C25.5776 31.879 25.5829 31.8892 25.5887 31.8985C25.5945 31.9079 25.6074 31.9161 25.6095 31.9245C25.614 31.9424 25.6032 31.9816 25.5976 32.0025C25.5792 32.0714 25.5404 32.1471 25.5053 32.1983C25.493 32.1972 25.5017 32.1821 25.4934 32.1783C25.4802 32.1788 25.4882 32.1935 25.4815 32.1983C25.4406 32.1514 25.4056 32.0736 25.3863 32.0025C25.3794 31.977 25.3687 31.9464 25.3744 31.9245C25.3789 31.9071 25.4068 31.8914 25.4042 31.8706C25.3769 31.8748 25.3515 31.893 25.3298 31.9085C25.3081 31.9241 25.2856 31.9408 25.2703 31.9585C25.2721 31.9672 25.2848 31.9687 25.2881 31.9765C25.2686 32.2107 25.2692 32.4744 25.4012 32.6259C25.3873 32.6247 25.3808 32.6128 25.3744 32.6059C25.2515 32.474 25.2185 32.2706 25.2048 32.0604C25.2017 32.014 25.1986 31.9685 25.2077 31.9225C25.2103 31.9129 25.2256 31.9272 25.2345 31.9205C25.2815 31.8968 25.3238 31.8699 25.3685 31.8446C25.3296 31.8486 25.2873 31.8473 25.2524 31.8566C25.2221 31.8646 25.1889 31.8868 25.1601 31.9025C25.0728 31.9503 24.9807 32.0022 24.9072 32.0564C24.8922 32.2347 24.953 32.3784 25.0262 32.504C24.9206 32.3657 24.8225 32.2119 24.8328 32.0025C24.873 32.0281 24.9343 31.9864 24.9667 31.9705C25.0568 31.9262 25.153 31.8691 25.2226 31.8206C25.273 31.8256 25.3322 31.8216 25.3744 31.8146C25.3218 31.7696 25.187 31.7922 25.1066 31.8086C25.0526 31.8196 25.0022 31.8355 24.9697 31.8526C24.9388 31.8387 24.9151 31.8199 24.8863 31.8046C24.9074 31.7691 24.9119 31.7094 24.928 31.6687C24.9673 31.5695 25.0287 31.4817 25.1036 31.4009C25.1016 31.4163 25.0858 31.4295 25.0768 31.4429C25.0116 31.5403 24.9686 31.6611 24.9667 31.8026C25.0355 31.7921 25.1176 31.7792 25.1988 31.7647C25.2253 31.7599 25.2527 31.7502 25.2732 31.7507C25.3063 31.7514 25.3374 31.7744 25.3744 31.7746C25.3656 31.7559 25.3488 31.7425 25.3298 31.7307C25.2685 31.7354 25.2 31.728 25.1453 31.7347C25.1397 31.7353 25.1324 31.7375 25.1244 31.7407C25.1251 31.7404 25.1067 31.7486 25.1095 31.7487C25.0972 31.7486 25.0669 31.7198 25.053 31.7167C25.0816 31.594 25.1461 31.4955 25.2077 31.395Z" fill="#000072"/>
<path fill-rule="evenodd" clip-rule="evenodd" d="M25.502 30.1696V33.6201V30.1696Z" fill="#000072"/>
<path d="M25.502 30.1696V33.6201" stroke="#000072" stroke-width="0.2" stroke-miterlimit="10"/>
<path d="M24.4042 30.1456C24.4042 30.1456 24.5973 32.9722 24.3145 33.4727" stroke="#000072" stroke-width="0.2" stroke-miterlimit="10"/>
<path d="M23.5376 30.0917C23.5376 30.0917 23.973 31.3995 23.3438 33.166" stroke="#000072" stroke-width="0.2" stroke-miterlimit="10"/>
<path d="M26.5016 30.1691C26.5016 30.1691 26.2997 32.6736 26.5917 33.5264" stroke="#000072" stroke-width="0.2" stroke-miterlimit="10"/>
<path d="M27.5309 30.0917C27.5309 30.0917 27.0693 32.5752 27.7548 33.166" stroke="#000072" stroke-width="0.2" stroke-miterlimit="10"/>
<path d="M22.6367 30.5879C22.6367 30.5879 23.0715 30.1803 23.6426 30.5879C23.6426 30.5879 23.9403 30.1833 24.4353 30.6436C24.4353 30.6436 24.7052 30.1397 25.4998 30.5879C25.4998 30.5879 25.8352 30.1667 26.4368 30.5879C26.4368 30.5879 26.9095 30.1203 27.4632 30.5647C27.4632 30.5647 27.9568 30.0369 28.3842 30.5083" stroke="#000072" stroke-width="0.2" stroke-miterlimit="10"/>
<path d="M25.4377 31.2357C25.4221 31.2249 25.4067 31.2146 25.3914 31.205C24.8502 30.8643 24.4575 31.2451 24.4575 31.2451C24.056 30.8358 23.6837 31.2451 23.6837 31.2451C23.0596 30.53 22.7227 31.2451 22.7227 31.2451" stroke="#000072" stroke-width="0.2" stroke-miterlimit="10"/>
<path d="M25.4219 31.2431C25.4219 31.2431 25.9152 30.8546 26.4342 31.2431C26.4342 31.2431 26.9384 30.7623 27.3799 31.2646C27.3799 31.2646 28.0352 30.7693 28.2796 31.2546" stroke="#000072" stroke-width="0.2" stroke-miterlimit="10"/>
<path d="M22.7227 32.4392C22.7227 32.4392 23.1231 31.7913 23.5445 32.4942C23.5445 32.4942 24.3002 31.9814 24.461 32.6976C24.461 32.6976 25.0868 32.3851 25.5242 32.8994C25.5242 32.8994 25.9876 32.367 26.5244 32.7731C26.5244 32.7731 26.8828 31.9589 27.4894 32.587C27.4894 32.587 27.8631 31.9081 28.2798 32.2955" stroke="#000072" stroke-width="0.2" stroke-miterlimit="10"/>
<path d="M22.6836 32.8273C22.6836 32.8273 23.205 32.3078 23.4331 32.9C23.4331 32.9 24.1841 32.5665 24.3938 33.1664C24.3938 33.1664 25.1699 32.7665 25.493 33.4062C25.493 33.4062 25.9522 32.9812 26.5043 33.27C26.5043 33.27 27.0116 32.5204 27.5989 32.9629C27.5989 32.9629 28.0168 32.2618 28.2668 32.6982" stroke="#000072" stroke-width="0.2" stroke-miterlimit="10"/>
<path d="M18.1094 38.4701C18.1094 38.4701 20.4205 36.0838 23.3417 36.3142L24.0057 38.3175C24.0057 38.3175 23.288 41.292 18.763 40.2898L18.1094 38.4701Z" fill="#000072"/>
<path d="M18.1094 38.4701C18.1094 38.4701 20.4205 36.0838 23.3417 36.3142L24.0057 38.3175C24.0057 38.3175 23.288 41.292 18.763 40.2898L18.1094 38.4701Z" stroke="#000072" stroke-width="0.2" stroke-miterlimit="10"/>
<path d="M26.8906 38.8101L27.5711 35.968L30.778 36.9256L32.6887 37.9912V38.8101L32.24 40.2899C32.24 40.2899 29.0295 41.328 26.8906 38.8101Z" fill="#000072"/>
<path d="M26.8906 38.8101L27.5711 35.968L30.778 36.9256L32.6887 37.9912V38.8101L32.24 40.2899C32.24 40.2899 29.0295 41.328 26.8906 38.8101Z" stroke="#000072" stroke-width="0.2" stroke-miterlimit="10"/>
<path d="M10.6602 35.0251L13.1289 41.3125" stroke="#000072" stroke-width="0.2" stroke-miterlimit="10"/>
<path d="M10.0195 35.8184C10.0195 35.8184 10.4461 38.7287 12.3083 41.2646" stroke="#000072" stroke-width="0.2" stroke-miterlimit="10"/>
<path d="M11.6621 34.7831C11.6621 34.7831 13.5904 37.9985 13.8883 41.3633" stroke="#000072" stroke-width="0.2" stroke-miterlimit="10"/>
<path d="M12.8984 35.0251C12.8984 35.0251 14.0679 37.315 14.7272 41.3125" stroke="#000072" stroke-width="0.2" stroke-miterlimit="10"/>
<path d="M9.75781 37.1768C9.75781 37.1768 9.76269 36.5328 10.2287 36.7825C10.2287 36.7825 10.4022 35.6563 11.164 36.3713C11.164 36.3713 11.1928 35.228 12.2575 35.9135C12.2575 35.9135 12.5611 35.0745 13.1988 35.8187C13.1988 35.8187 13.5151 35.647 13.7186 36.0342" stroke="#000072" stroke-width="0.2" stroke-miterlimit="10"/>
<path d="M10.0898 36.2119C10.0898 36.2119 10.2533 35.3791 10.904 35.655C10.904 35.655 11.0328 34.9704 11.8908 35.1981C11.8908 35.1981 12.0171 34.7504 13.0352 35.3226" stroke="#000072" stroke-width="0.2" stroke-miterlimit="10"/>
<path d="M9.84766 37.5195C9.84766 37.5195 9.88358 36.8742 10.3806 37.3232C10.3806 37.3232 10.5372 36.2059 11.4056 36.9259C11.4056 36.9259 11.4289 35.8318 12.4393 36.4501C12.4393 36.4501 12.8111 35.8392 13.4591 36.3715C13.4591 36.3715 13.5748 36.0535 13.8982 36.3715" stroke="#000072" stroke-width="0.2" stroke-miterlimit="10"/>
<path d="M9.84766 38.0732C9.84766 38.0732 10.0494 37.4527 10.6013 37.9914C10.6013 37.9914 10.9391 36.9781 11.6617 37.6639C11.6617 37.6639 11.9528 36.3114 12.8391 37.2403C12.8391 37.2403 12.977 36.3572 13.6819 37.0105C13.6819 37.0105 13.7354 36.4682 14.1071 36.9037" stroke="#000072" stroke-width="0.2" stroke-miterlimit="10"/>
<path d="M10.0195 38.542C10.0195 38.542 10.2072 38.0309 10.7541 38.3978C10.7541 38.3978 11.3487 37.591 11.8944 38.1688C11.8944 38.1688 12.48 37.3004 13.0388 37.9604C13.0388 37.9604 13.3294 37.1455 13.9041 37.7128C13.9041 37.7128 14.1171 37.409 14.2891 37.6718" stroke="#000072" stroke-width="0.2" stroke-miterlimit="10"/>
<path d="M10.2148 39.1436C10.2148 39.1436 10.5454 38.5867 10.968 38.9193C10.968 38.9193 11.3384 38.2847 12.1454 38.8134C12.1454 38.8134 12.5294 37.9542 13.3196 38.603C13.3196 38.603 13.6054 37.872 14.1057 38.5348C14.1057 38.5348 14.1076 37.8255 14.4578 38.1687" stroke="#000072" stroke-width="0.2" stroke-miterlimit="10"/>
<path d="M10.4609 39.8457V39.6671C10.4609 39.6671 10.6824 39.0157 11.2126 39.4406C11.2126 39.4406 11.7601 38.8243 12.3394 39.2998C12.3394 39.2998 12.9381 38.5302 13.4796 39.1437C13.4796 39.1437 13.8057 38.471 14.29 39.1412" stroke="#000072" stroke-width="0.2" stroke-miterlimit="10"/>
<path d="M10.873 40.0645C10.873 40.0645 10.8936 39.7179 11.4189 39.846C11.4189 39.846 11.9819 39.427 12.5418 39.8176C12.5418 39.8176 12.9368 39.1295 13.6071 39.6511C13.6071 39.6511 14.0713 39.1148 14.3889 39.569" stroke="#000072" stroke-width="0.2" stroke-miterlimit="10"/>
<path d="M11.1641 40.4961C11.1641 40.4961 11.367 40.1929 11.7383 40.408C11.7383 40.408 12.2204 39.9486 12.7437 40.3309C12.7437 40.3309 13.1078 39.7889 13.7202 40.1789C13.7202 40.1789 14.1086 39.6847 14.4962 40.0636" stroke="#000072" stroke-width="0.2" stroke-miterlimit="10"/>
<path d="M11.5645 40.8037C11.5645 40.8037 11.6281 40.4827 11.9764 40.7896C11.9764 40.7896 12.3833 40.533 12.8978 40.8037C12.8978 40.8037 13.4588 40.4583 13.8122 40.7303C13.8122 40.7303 14.2715 40.3913 14.5768 40.7148" stroke="#000072" stroke-width="0.2" stroke-miterlimit="10"/>
<path d="M12.1543 41.0279C12.1543 41.0279 12.4249 40.7489 13.0388 41.083C13.0388 41.083 13.3757 40.881 13.6844 40.9522C13.7285 40.9624 13.772 40.9782 13.8138 41.0009" stroke="#000072" stroke-width="0.2" stroke-miterlimit="10"/>
<path d="M13.8555 41.085C13.8555 41.085 14.1676 40.8175 14.6979 41.0017" stroke="#000072" stroke-width="0.2" stroke-miterlimit="10"/>
<path d="M14.4591 38.075C14.366 38.2829 14.7274 41.5547 14.7274 41.5547H19.2354L19.1394 41.3125L18.1112 39.386L17.4676 37.5764C16.0092 37.3733 14.5776 34.0186 14.5776 34.0186L13.5625 35.0789L13.813 35.6555L14.2883 36.7344L14.4591 38.075Z" fill="#000072"/>
<path d="M40.1598 34.873L37.9531 41.3125" stroke="#000072" stroke-width="0.2" stroke-miterlimit="10"/>
<path d="M40.7476 35.659C40.7476 35.659 40.3553 39.7682 38.5137 41.4111" stroke="#000072" stroke-width="0.2" stroke-miterlimit="10"/>
<path d="M39.3077 34.8337C39.3077 34.8337 37.8132 38.3593 37.1035 41.3516" stroke="#000072" stroke-width="0.2" stroke-miterlimit="10"/>
<path d="M38.0641 35.1422C38.0641 35.1422 36.9764 37.1456 36.4121 41.7236" stroke="#000072" stroke-width="0.2" stroke-miterlimit="10"/>
<path d="M41.111 36.7441C41.111 36.7441 40.992 36.1745 40.6149 36.558C40.6149 36.558 40.4574 35.5397 39.7137 36.1684C39.7137 36.1684 39.5037 35.3006 38.851 35.9677C38.851 35.9677 38.343 35.1382 37.7103 35.9677C37.7103 35.9677 37.5795 35.7576 37.2734 36.0337" stroke="#000072" stroke-width="0.2" stroke-miterlimit="10"/>
<path d="M41.1494 37.3213C41.1494 37.3213 41.0097 36.7624 40.4953 37.1771C40.4953 37.1771 40.1962 36.4767 39.4547 36.926C39.4547 36.926 39.2808 36.2167 38.5101 36.6787C38.5101 36.6787 38.2824 36.1387 37.5148 36.5224C37.5148 36.5224 37.3352 36.1809 37.0137 36.5525" stroke="#000072" stroke-width="0.2" stroke-miterlimit="10"/>
<path d="M41.1464 37.9912C41.1464 37.9912 40.8526 37.3893 40.3508 37.7792C40.3508 37.7792 39.8817 37.1266 39.2039 37.6478C39.2039 37.6478 38.9476 37.0115 38.2959 37.4459C38.2959 37.4459 37.9624 36.7444 37.2705 37.2401C37.2705 37.2401 37.1436 36.8703 36.6406 37.1768" stroke="#000072" stroke-width="0.2" stroke-miterlimit="10"/>
<path d="M41.0269 38.5352C41.0269 38.5352 40.8538 37.9401 40.1687 38.4336C40.1687 38.4336 39.7019 37.6697 39.0048 38.2353C39.0048 38.2353 38.7035 37.4569 38.0647 38.0928C38.0647 38.0928 37.8632 37.4595 37.1026 37.9407C37.1026 37.9407 36.9912 37.4452 36.6666 37.8704C36.3419 38.2956 36.5807 37.8625 36.5807 37.8625" stroke="#000072" stroke-width="0.2" stroke-miterlimit="10"/>
<path d="M40.8431 39.125C40.8431 39.125 40.5952 38.4606 39.9843 38.9823C39.9843 38.9823 39.602 38.4398 38.817 38.7824C38.817 38.7824 38.3425 38.2227 37.7923 38.7821C37.7923 38.7821 37.4176 38.2132 36.9256 38.6871C36.9256 38.6871 36.734 37.7535 36.2715 38.6558" stroke="#000072" stroke-width="0.2" stroke-miterlimit="10"/>
<path d="M40.471 39.5859C40.471 39.5859 40.4559 38.979 39.7967 39.4672C39.7967 39.4672 39.3624 38.8718 38.5977 39.4316C38.5977 39.4316 38.1843 38.8189 37.6252 39.4664C37.6252 39.4664 37.2443 38.8726 36.7718 39.4474C36.7718 39.4474 36.7569 38.4575 36.1191 39.2335" stroke="#000072" stroke-width="0.2" stroke-miterlimit="10"/>
<path d="M40.156 40.0996C40.156 40.0996 40.0579 39.7685 39.5314 40.0243C39.5314 40.0243 38.9595 39.6024 38.3943 40.0134C38.3943 40.0134 38.068 39.5629 37.4709 39.9666C37.4709 39.9666 36.9795 39.5459 36.6418 39.9491C36.6418 39.9491 36.6716 39.1964 35.9551 39.7743" stroke="#000072" stroke-width="0.2" stroke-miterlimit="10"/>
<path d="M39.7768 40.5022C39.7768 40.5022 39.6961 40.1283 39.2588 40.5022C39.2588 40.5022 38.7622 40.1743 38.2039 40.5703C38.2039 40.5703 37.6545 40.2285 37.301 40.5703C37.301 40.5703 36.9222 40.066 36.5215 40.5703C36.5215 40.5703 36.3988 39.9039 36.0117 40.4532" stroke="#000072" stroke-width="0.2" stroke-miterlimit="10"/>
<path d="M39.4446 40.6943C39.4446 40.6943 39.2633 40.5314 39.0814 40.7673C39.0814 40.7673 38.3554 40.5578 38.0657 40.9785C38.0657 40.9785 37.7539 40.6447 37.1954 40.9785C37.1954 40.9785 36.9225 40.4856 36.5133 40.9785C36.5133 40.9785 36.2878 40.3232 35.8652 40.9785" stroke="#000072" stroke-width="0.2" stroke-miterlimit="10"/>
<path d="M33.683 37.5237L35.1318 36.1522L36.2714 34.2536L36.4125 33.8322L37.369 34.8732L37.4441 35.3903L36.9256 35.9685L36.6426 36.6788L36.522 37.5237V37.9774L36.5122 38.2802C36.5122 38.2802 36.0174 40.571 36.2714 41.4726L31.8588 41.5801L31.7148 41.3127L32.4356 39.9377L33.2267 38.1134L33.683 37.5237Z" fill="#000072"/>
<path d="M32.8752 28.6304C32.8752 28.6304 29.3438 35.3611 28.9473 37.2402" stroke="#000072" stroke-width="0.2" stroke-miterlimit="10"/>
<path d="M31.7459 29.147C31.7459 29.147 28.2939 35.9336 28.5992 36.5078" stroke="#000072" stroke-width="0.2" stroke-miterlimit="10"/>
<path d="M35.0444 28.7767C35.0444 28.7767 32.4199 35.7979 31.1992 37.4385" stroke="#000072" stroke-width="0.2" stroke-miterlimit="10"/>
<path d="M30.3105 30.169C30.3105 30.169 31.1092 29.3389 31.3066 30.0318C31.3066 30.0318 31.8428 29.2563 32.2797 29.7875C32.2797 29.7875 33.3203 28.9646 33.4869 29.8853C33.4869 29.8853 34.433 29.1531 34.5118 30.169C34.5118 30.169 34.8553 30.0735 34.847 30.927C34.847 30.927 35.1556 31.5901 35.066 31.8477" stroke="#000072" stroke-width="0.2" stroke-miterlimit="10"/>
<path d="M31.623 29.392C31.623 29.392 32.2484 28.8373 32.6053 29.1468C32.6053 29.1468 33.4468 28.3091 33.8855 29.006C33.8855 29.006 34.7176 28.8616 34.7323 29.5921C34.7323 29.5921 35.0692 30.0072 35.043 30.169C35.043 30.169 34.6573 32.7141 33.9197 34.2266C33.9197 34.2266 32.9417 37.5223 31.9458 37.7861" stroke="#000072" stroke-width="0.2" stroke-miterlimit="10"/>
<path d="M30.1875 30.6805C30.1875 30.6805 30.6875 30.0675 30.984 30.6805C30.984 30.6805 31.7171 29.9863 31.7468 30.6805C31.7468 30.6805 32.9041 30.1309 33.0569 30.8205C33.0569 30.8205 33.9114 30.2222 34.0841 31.2451C34.0841 31.2451 34.9055 30.9433 34.645 31.9841C34.645 31.9841 35.1007 31.867 35.0148 32.5215" stroke="#000072" stroke-width="0.2" stroke-miterlimit="10"/>
<path d="M29.7363 31.4465C29.7363 31.4465 30.4629 30.7798 30.5543 31.5644C30.5543 31.5644 31.2578 30.8916 31.2963 31.742C31.2963 31.742 32.5533 31.1082 32.5246 31.9838C32.5246 31.9838 33.4026 31.709 33.5602 32.5331C33.5602 32.5331 34.3187 32.2846 34.3976 32.9799C34.3976 32.9799 34.957 32.9458 34.9046 33.3896" stroke="#000072" stroke-width="0.2" stroke-miterlimit="10"/>
<path d="M29.3535 32.2959C29.3535 32.2959 29.9133 31.3778 30.2536 32.2905C30.2536 32.2905 30.7064 31.8892 30.9119 32.4577C30.9119 32.4577 32.0131 32.0967 32.1096 32.8998C32.1096 32.8998 32.8548 32.4399 33.2262 33.1661C33.2262 33.1661 34.0905 33.026 34.2162 33.5268C34.2162 33.5268 34.6103 33.4063 34.7517 33.832" stroke="#000072" stroke-width="0.2" stroke-miterlimit="10"/>
<path d="M29.1348 32.8279C29.1348 32.8279 29.6528 32.5619 29.8072 33.1663C29.8072 33.1663 30.3437 32.7052 30.5592 33.2582C30.5592 33.2582 31.4376 32.9283 31.7193 33.6201C31.7193 33.6201 32.6709 33.2657 32.9803 33.9183C32.9803 33.9183 33.6256 33.7498 33.9777 34.1798C33.9777 34.1798 34.4058 34.0219 34.4642 34.4512" stroke="#000072" stroke-width="0.2" stroke-miterlimit="10"/>
<path d="M28.7578 33.5377C28.7578 33.5377 29.476 33.0136 29.4748 33.8928C29.4748 33.8928 30.0987 33.4592 30.1857 34.0005C30.1857 34.0005 31.157 33.7239 31.397 34.451C31.397 34.451 32.2056 33.8722 32.6048 34.7556C32.6048 34.7556 33.4367 34.3181 33.6254 35.0391" stroke="#000072" stroke-width="0.2" stroke-miterlimit="10"/>
<path d="M28.4941 34.3796C28.4941 34.3796 29.0491 33.7916 29.2344 34.451C29.2344 34.451 29.7454 34.0263 29.934 34.6293C29.934 34.6293 30.8278 34.3858 31.1297 35.0391C31.1297 35.0391 31.9321 34.701 32.3225 35.3726C32.3225 35.3726 33.0162 34.9384 33.3745 35.5996" stroke="#000072" stroke-width="0.2" stroke-miterlimit="10"/>
<path d="M28.2461 34.9341C28.2461 34.9341 28.8149 34.5885 28.9939 35.0388C28.9939 35.0388 29.4921 34.7007 29.6839 35.2031C29.6839 35.2031 30.6611 35.0057 30.8127 35.5993C30.8127 35.5993 31.7047 35.3487 32.051 35.94C32.051 35.94 32.7287 35.7042 33.1211 36.1718C33.1211 36.1718 33.2799 36.0784 33.2796 36.5078" stroke="#000072" stroke-width="0.2" stroke-miterlimit="10"/>
<path d="M28.0254 35.457C28.0254 35.457 28.6333 35.1509 28.7565 35.5434C28.7565 35.5434 29.4087 35.2867 29.4613 35.7259C29.4613 35.7259 30.5673 35.48 30.633 36.1207C30.633 36.1207 31.6123 35.8327 31.757 36.508C31.757 36.508 32.606 36.1649 32.7936 36.9258C32.7936 36.9258 33.1248 36.7716 33.2207 37.2402" stroke="#000072" stroke-width="0.2" stroke-miterlimit="10"/>
<path d="M17.5684 28.1402C17.5684 28.1402 20.7163 33.2226 21.4519 36.5078" stroke="#000072" stroke-width="0.2" stroke-miterlimit="10"/>
<path d="M19.377 29.1212C19.377 29.1212 21.7287 33.3529 22.5095 36.1533" stroke="#000072" stroke-width="0.2" stroke-miterlimit="10"/>
<path d="M16.0566 28.9469C16.0566 28.9469 18.7981 36.5814 19.6959 37.1768" stroke="#000072" stroke-width="0.2" stroke-miterlimit="10"/>
<path d="M15.9453 30.3721C15.9453 30.3721 18.1626 37.1754 18.824 37.5234" stroke="#000072" stroke-width="0.2" stroke-miterlimit="10"/>
<path d="M16.2559 29.2539C16.2559 29.2539 16.317 28.4553 16.9794 28.9178C16.9794 28.9178 17.2434 28.3457 17.9938 28.8449C17.9938 28.8449 18.193 28.5386 18.8269 28.788" stroke="#000072" stroke-width="0.2" stroke-miterlimit="10"/>
<path d="M16.0957 30.8203C16.0957 30.8203 16.1551 30.2583 16.6225 30.4781C16.6225 30.4781 16.7672 29.6994 17.5716 30.2437C17.5716 30.2437 17.7209 29.4246 18.6088 29.9258C18.6088 29.9258 19.1668 29.208 19.8095 29.9258C19.8095 29.9258 20.2797 29.4967 20.6231 29.9258" stroke="#000072" stroke-width="0.2" stroke-miterlimit="10"/>
<path d="M15.9453 30.1455C15.9453 30.1455 16.1515 29.8034 16.3992 29.9257C16.3992 29.9257 16.6662 29.182 17.2429 29.5133C17.2429 29.5133 17.6083 28.9742 18.2678 29.3239C18.2678 29.3239 18.9544 29.0135 19.3752 29.2059" stroke="#000072" stroke-width="0.2" stroke-miterlimit="10"/>
<path d="M15.8711 31.8857C15.8711 31.8857 15.9504 31.5076 16.4001 31.7252C16.4001 31.7252 16.4621 31.1535 16.9776 31.4489C16.9776 31.4489 17.1098 30.664 18.0271 31.1501C18.0271 31.1501 18.1197 30.2342 19.0932 30.8202C19.0932 30.8202 19.5214 30.118 20.1699 30.6244C20.1699 30.6244 20.2422 30.2244 20.7391 30.5646" stroke="#000072" stroke-width="0.2" stroke-miterlimit="10"/>
<path d="M15.9453 32.7695C15.9453 32.7695 16.1505 32.1437 16.6743 32.5218C16.6743 32.5218 16.7826 31.8544 17.321 32.296C17.321 32.296 17.7199 31.6825 18.3041 31.9844C18.3041 31.9844 18.8297 31.1522 19.5113 31.629C19.5113 31.629 20.0061 30.988 20.5404 31.3665C20.5404 31.3665 20.5594 31.122 21.0651 31.2454" stroke="#000072" stroke-width="0.2" stroke-miterlimit="10"/>
<path d="M16.0957 33.3896C16.0957 33.3896 16.2367 32.7462 16.9005 33.1656C16.9005 33.1656 17.2087 32.7255 17.6103 33.0219C17.6103 33.0219 17.9557 32.2776 18.6694 32.7057C18.6694 32.7057 19.1485 32.028 19.9181 32.4546C19.9181 32.4546 20.2697 31.8887 20.9472 32.2129C20.9472 32.2129 20.8897 31.8803 21.4041 32.0921" stroke="#000072" stroke-width="0.2" stroke-miterlimit="10"/>
<path d="M16.3594 34.0186C16.3594 34.0186 16.5139 33.4539 17.0497 33.7373C17.0497 33.7373 17.3689 33.1464 17.8538 33.5919C17.8538 33.5919 18.0676 32.8407 18.9748 33.3542C18.9748 33.3542 19.4077 32.6985 20.2052 33.0192C20.2052 33.0192 20.5219 32.3992 21.2358 32.7784C21.2358 32.7784 21.3842 32.4707 21.7447 32.7168" stroke="#000072" stroke-width="0.2" stroke-miterlimit="10"/>
<path d="M16.3965 34.5791C16.3965 34.5791 16.6139 33.8561 17.2078 34.0185C17.2078 34.0185 17.7414 33.7364 18.0104 33.9948C18.0104 33.9948 18.7775 33.4288 19.1715 33.8319C19.1715 33.8319 19.9642 33.2165 20.4446 33.6085C20.4446 33.6085 20.9859 33.162 21.5158 33.473C21.5158 33.473 21.8062 33.1585 22.1648 33.39" stroke="#000072" stroke-width="0.2" stroke-miterlimit="10"/>
<path d="M22.5069 34.2533C22.5069 34.2533 21.9548 33.5368 21.8266 34.2107C21.8266 34.2107 20.8841 33.6562 20.7953 34.4509C20.7953 34.4509 19.8694 33.768 19.5438 34.6602C19.5438 34.6602 18.5971 34.149 18.3565 34.8687C18.3565 34.8687 17.7527 34.2486 17.6594 35.039C17.6594 35.039 17.3442 34.9208 17.2891 35.2275" stroke="#000072" stroke-width="0.2" stroke-miterlimit="10"/>
<path d="M22.7559 34.8686C22.7559 34.8686 22.2454 34.315 22.1096 34.9426C22.1096 34.9426 21.3592 34.4579 21.0419 35.1133C21.0419 35.1133 20.2326 34.7117 19.9182 35.4568C19.9182 35.4568 19.0525 34.9828 18.8229 35.7999C18.8229 35.7999 18.2284 35.5636 18.025 36.1534C18.025 36.1534 17.7193 36.0739 17.5684 36.5078" stroke="#000072" stroke-width="0.2" stroke-miterlimit="10"/>
<path d="M22.8762 35.3431C22.8762 35.3431 22.4909 34.6594 22.311 35.5106C22.311 35.5106 21.8329 35.2186 21.2731 35.8185C21.2731 35.8185 20.5571 35.5777 20.164 36.0431C20.164 36.0431 19.5969 35.89 19.1854 36.2986C19.1628 36.321 19.1407 36.3452 19.1191 36.3711" stroke="#000072" stroke-width="0.2" stroke-miterlimit="10"/>
<path d="M19.1389 36.345C19.1389 36.345 18.61 36.2978 18.3352 36.7821C18.3352 36.7821 17.9536 36.7981 17.7774 37.2398C17.6012 37.6814 17.6947 37.1765 17.6947 37.1765" stroke="#000072" stroke-width="0.2" stroke-miterlimit="10"/>
<path fill-rule="evenodd" clip-rule="evenodd" d="M25.4532 10.1835C31.5281 10.1835 36.2013 16.3937 36.2013 21.5793C36.2013 26.765 27.6357 28.8605 25.4532 28.9628C23.2706 29.065 14.2598 26.613 14.2598 21.4273C14.2598 16.2416 19.3783 10.1835 25.4532 10.1835Z" fill="#FF850B"/>
<path d="M25.4561 10.4347C19.3978 10.4347 14.5194 16.4477 14.5194 21.4263C14.5194 22.7209 15.1184 23.9384 16.2999 25.0448C18.9316 27.5094 23.7331 28.7125 25.3207 28.7126C25.3643 28.7126 25.4052 28.7117 25.4439 28.7099C26.5941 28.656 29.2439 28.0746 31.5338 26.9508C33.5473 25.9626 35.9474 24.2284 35.9474 21.5784C35.9474 16.4251 31.3646 10.4347 25.4561 10.4347ZM25.3272 29.2168C23.6242 29.2168 18.7161 28.0044 15.9456 25.4099C14.6585 24.2045 14.0059 22.8642 14.0059 21.4263C14.0059 18.8307 15.2721 15.938 17.3929 13.6884C19.6446 11.3001 22.5835 9.93033 25.4561 9.93033C28.3466 9.93033 31.1332 11.2944 33.3028 13.7714C35.2803 16.029 36.4609 18.9475 36.4609 21.5784C36.4609 23.8799 34.8365 25.8937 31.7633 27.4019C29.4067 28.5586 26.6635 29.1577 25.4683 29.2137C25.4242 29.2158 25.377 29.2168 25.3272 29.2168Z" fill="#000072"/>
<g opacity="0.5">
<g opacity="0.5">
<path opacity="0.5" fill-rule="evenodd" clip-rule="evenodd" d="M25.4528 10.1822C29.1864 10.1822 32.3901 12.5284 34.3052 15.5404C34.3251 15.6377 34.3443 15.7355 34.3612 15.834C32.6127 13.3166 29.8864 11.6566 26.8672 11.2088C27.0608 11.2806 27.173 11.3659 27.173 11.4575C27.173 11.7134 26.2953 11.9209 25.2127 11.9209C24.1302 11.9209 23.2525 11.7134 23.2525 11.4575C23.2525 11.3659 23.3645 11.2806 23.5583 11.2088C20.5389 11.6567 17.8129 13.3168 16.0645 15.834L16.0741 15.7809C18.0902 12.6486 21.5767 10.1822 25.4528 10.1822Z" fill="white"/>
</g>
</g>
<path fill-rule="evenodd" clip-rule="evenodd" d="M35.9128 23.1717C34.4022 27.1989 27.3967 28.8708 25.4532 28.9618C23.5296 29.0519 16.3035 27.1575 14.6152 23.157C14.7447 20.9779 15.8718 20.3823 17.9562 21.4472C18.8134 21.885 19.6853 22.3417 20.3763 21.994C24.3202 20.0085 26.7283 20.3828 29.4278 21.994C30.6901 22.7475 31.9221 21.6235 32.695 21.2809C35.1567 20.1891 36.2861 20.9527 35.9128 23.1717Z" fill="white"/>
<g opacity="0.300003">
<g opacity="0.300003">
<path opacity="0.300003" fill-rule="evenodd" clip-rule="evenodd" d="M36.1545 20.6731C36.1851 20.9775 36.2013 21.2798 36.2013 21.5787C36.2013 21.7697 36.1884 21.9559 36.1659 22.1387L36.1682 22.084C35.8682 25.5447 28.773 28.1871 24.956 28.4005C21.7698 28.5786 15.4061 25.2098 14.3361 22.084C14.3381 22.1488 14.3414 22.2135 14.3444 22.2781C14.2899 22.0028 14.2598 21.7193 14.2598 21.4266C14.2598 21.1936 14.2705 20.9589 14.2907 20.7229L14.3073 20.6723C16.7947 24.1848 20.8751 26.2792 25.2313 26.2792C29.5871 26.2792 33.6672 24.1849 36.1545 20.6731Z" fill="#000072"/>
</g>
</g>
<path fill-rule="evenodd" clip-rule="evenodd" d="M21.5246 19.0158C21.1849 18.867 20.8372 18.6177 20.4819 18.2683C19.8659 18.2958 19.373 18.9421 19.373 19.7352C19.373 20.5459 19.8877 21.2031 20.5225 21.2031C21.1573 21.2031 21.672 20.5459 21.672 19.7352C21.672 19.4738 21.6184 19.2284 21.5246 19.0158Z" fill="#000072"/>
<path d="M31.173 17.6343C30.7584 18.1752 30.3508 18.5935 29.9502 18.8891C29.3609 19.324 28.723 19.4001 28.6523 18.9212C28.9693 18.8855 29.2997 18.7408 29.6433 18.4872C30.4901 17.8622 30.7548 17.4597 31.173 17.6343Z" fill="#000072"/>
<path fill-rule="evenodd" clip-rule="evenodd" d="M29.2392 19.0158C29.5788 18.867 29.9266 18.6177 30.282 18.2683C30.898 18.2958 31.3907 18.9421 31.3907 19.7352C31.3907 20.5459 30.8762 21.2031 30.2413 21.2031C29.6064 21.2031 29.0918 20.5459 29.0918 19.7352C29.0918 19.4738 29.1453 19.2284 29.2392 19.0158Z" fill="#000072"/>
<path fill-rule="evenodd" clip-rule="evenodd" d="M29.7633 19.3612C29.5768 19.3612 29.4258 19.5193 29.4258 19.7143C29.4258 19.9093 29.5768 20.0674 29.7633 20.0674C29.9496 20.0674 30.1007 19.9093 30.1007 19.7143C30.1007 19.5193 29.9496 19.3612 29.7633 19.3612Z" fill="white"/>
<path fill-rule="evenodd" clip-rule="evenodd" d="M25.2345 19.9932C26.0565 19.9932 26.7229 20.4295 26.7229 20.9677C26.7229 21.506 26.0565 21.9424 25.2345 21.9424C24.4124 21.9424 23.7461 21.506 23.7461 20.9677C23.7461 20.4295 24.4124 19.9932 25.2345 19.9932Z" fill="#000072"/>
<path d="M26.6551 23.1367C26.1312 23.1367 25.6245 22.9454 25.2356 22.6034C24.8013 22.9919 24.2027 23.1726 23.6143 23.0807C22.9307 22.974 22.3511 22.5139 22.1013 21.8798C22.0502 21.7499 22.1159 21.6039 22.2482 21.5537C22.3804 21.5034 22.5291 21.568 22.5803 21.6979C22.7642 22.165 23.1913 22.504 23.6949 22.5826C24.1987 22.6612 24.7116 22.469 25.034 22.0811C25.0821 22.0232 25.154 21.9892 25.2301 21.9884C25.3069 21.9885 25.3787 22.02 25.4282 22.0769C25.7644 22.4639 26.2723 22.6694 26.7891 22.6269C27.3052 22.5843 27.7719 22.2983 28.0377 21.8617C28.1104 21.7421 28.2683 21.7031 28.3898 21.7746C28.5115 21.8461 28.5512 22.0009 28.4784 22.1205C28.128 22.6961 27.5126 23.0734 26.8321 23.1294C26.773 23.1343 26.7139 23.1367 26.6551 23.1367Z" fill="#000072"/>
<path fill-rule="evenodd" clip-rule="evenodd" d="M25.2336 22.2399C25.7688 22.7396 26.2946 22.9521 26.8112 22.8775C26.939 26.171 23.5395 26.0369 23.6552 22.831C24.2885 22.9099 24.8145 22.713 25.2336 22.2399Z" fill="#000072"/>
<path d="M23.9118 23.1007C23.9372 23.9399 24.2403 24.5997 24.745 24.8932C25.0785 25.0871 25.4553 25.0898 25.7789 24.9005C26.2621 24.6178 26.54 23.9851 26.5579 23.1439C26.121 23.1302 25.6821 22.9445 25.2475 22.5894C24.8733 22.9295 24.4297 23.1008 23.9234 23.1008C23.9196 23.1008 23.9157 23.1008 23.9118 23.1007ZM25.2727 25.5439C25.003 25.544 24.7318 25.4717 24.4834 25.3272C23.7525 24.9022 23.3574 23.9892 23.3995 22.8226L23.4095 22.5466L23.6884 22.5814C24.2367 22.6496 24.6784 22.4839 25.0407 22.0749L25.2168 21.8761L25.4113 22.0577C25.8907 22.5052 26.3371 22.692 26.7747 22.6285L27.0578 22.5876L27.0686 22.8684C27.1136 24.0271 26.7392 24.9257 26.0417 25.3339C25.8022 25.4739 25.5381 25.5439 25.2727 25.5439Z" fill="#000072"/>
<path fill-rule="evenodd" clip-rule="evenodd" d="M25.2623 24.0613C24.8052 24.0613 24.3759 24.2762 24.1074 24.6393C24.7254 25.5037 25.8212 25.5179 26.4116 24.632C26.1428 24.2733 25.7161 24.0613 25.2623 24.0613Z" fill="#FF0066"/>
<path d="M24.437 24.6458C24.675 24.9035 24.9744 25.0433 25.285 25.0404C25.5853 25.0356 25.8623 24.8964 26.0802 24.6444C25.863 24.4352 25.5675 24.3142 25.2594 24.3142C24.95 24.3142 24.6542 24.4356 24.437 24.6458ZM25.2691 25.5449C24.7403 25.5449 24.2404 25.269 23.8944 24.7849L23.7891 24.6376L23.8968 24.4919C24.2125 24.0648 24.7219 23.8099 25.2594 23.8099C25.7925 23.8099 26.2994 24.0616 26.6154 24.4832L26.7211 24.6243L26.6235 24.7708C26.3013 25.2543 25.8165 25.5363 25.2934 25.5447C25.2853 25.5449 25.2772 25.5449 25.2691 25.5449Z" fill="#000072"/>
<path fill-rule="evenodd" clip-rule="evenodd" d="M34.9504 16.3018C33.3015 13.6255 31.3246 11.8137 29.0195 10.8664C33.5411 4.64338 35.5181 6.45517 34.9504 16.3018Z" fill="#FF850B"/>
<path d="M29.4151 10.7606C31.4387 11.6678 33.225 13.2579 34.7363 15.4966C35.0121 9.42935 34.1742 7.81469 33.4035 7.54844C32.8152 7.3454 31.649 7.74917 29.4151 10.7606ZM35.1612 17.1289L34.7321 16.4324C33.1196 13.8153 31.1647 12.0209 28.9218 11.0991L28.625 10.9772L28.8119 10.72C30.8802 7.87343 32.4374 6.67994 33.5738 7.07267C35.0234 7.57348 35.5428 10.5107 35.2081 16.3161L35.1612 17.1289Z" fill="#000072"/>
<path fill-rule="evenodd" clip-rule="evenodd" d="M28.6291 16.6273C29.0094 16.4741 29.3928 16.5296 29.4853 16.7513C29.5778 16.9729 29.3445 17.2769 28.9643 17.4301C28.584 17.5832 28.2007 17.5276 28.1081 17.306C28.0156 17.0843 28.2489 16.7804 28.6291 16.6273Z" fill="white"/>
<path fill-rule="evenodd" clip-rule="evenodd" d="M22.0014 16.6127C21.6212 16.4594 21.2378 16.5151 21.1453 16.7367C21.0527 16.9584 21.286 17.2623 21.6662 17.4154C22.0464 17.5686 22.4298 17.5131 22.5223 17.2914C22.6149 17.0698 22.3816 16.7658 22.0014 16.6127Z" fill="white"/>
<path fill-rule="evenodd" clip-rule="evenodd" d="M20.693 19.3612C20.5065 19.3612 20.3555 19.5193 20.3555 19.7143C20.3555 19.9093 20.5065 20.0674 20.693 20.0674C20.8793 20.0674 21.0304 19.9093 21.0304 19.7143C21.0304 19.5193 20.8793 19.3612 20.693 19.3612Z" fill="white"/>
<path fill-rule="evenodd" clip-rule="evenodd" d="M15.6848 16.4297C17.3336 13.7534 19.3105 11.9416 21.6156 10.9942C17.094 4.77121 15.1171 6.58311 15.6848 16.4297Z" fill="#FF850B"/>
<path d="M17.507 7.63209C17.4038 7.63209 17.3128 7.64849 17.2325 7.67626C16.4618 7.94252 15.6239 9.55714 15.8997 15.6244C17.4108 13.3858 19.1971 11.7956 21.2208 10.8884C19.2919 8.2882 18.159 7.63209 17.507 7.63209ZM15.4748 17.2568L15.4279 16.444C15.0932 10.6385 15.6125 7.70131 17.0621 7.20046C18.1978 6.8082 19.7555 8.001 21.824 10.8477L22.0109 11.1049L21.7141 11.2269C19.4711 12.1488 17.5162 13.9432 15.9039 16.5603L15.4748 17.2568Z" fill="#000072"/>
<g opacity="0.649994">
<g opacity="0.649994">
<path opacity="0.649994" fill-rule="evenodd" clip-rule="evenodd" d="M21.0444 11.2471C21.2309 11.1565 21.4199 11.0719 21.611 10.9933C18.8086 7.13639 16.9842 6.36735 16.1367 8.68306C17.0393 7.05468 18.675 7.90924 21.0441 11.2469L21.0444 11.2471Z" fill="white"/>
</g>
</g>
<path fill-rule="evenodd" clip-rule="evenodd" d="M16.9187 14.6152C17.7225 13.6388 18.6334 12.7937 19.6516 12.08C17.3692 7.7145 16.4582 8.55956 16.9187 14.6152Z" fill="#000072"/>
<path d="M17.5073 9.58906C17.4961 9.58906 17.4884 9.59053 17.484 9.59177C17.4565 9.59937 17.2125 9.6981 17.1082 10.8099C17.0378 11.559 17.0461 12.6228 17.1326 13.9776C17.7962 13.2401 18.5304 12.5783 19.3232 12.0032C18.1223 9.74867 17.6241 9.58906 17.5073 9.58906ZM16.7122 15.2686L16.664 14.6339C16.3135 10.0259 16.8114 9.25383 17.3448 9.1063C17.9826 8.92945 18.7414 9.78462 19.8812 11.9646L19.9826 12.1585L19.8019 12.2851C18.8078 12.9819 17.9053 13.8192 17.1196 14.7737L16.7122 15.2686Z" fill="#000072"/>
<g opacity="0.300003">
<g opacity="0.300003">
<path opacity="0.300003" fill-rule="evenodd" clip-rule="evenodd" d="M17.2135 9.48282C16.3806 10.0946 15.8426 11.7498 15.5996 14.4483C15.6142 15.068 15.6418 15.7284 15.6822 16.4297C15.8054 16.2109 15.9356 15.9946 16.0732 15.7818L16.0636 15.8348C16.7289 14.8381 17.4446 13.974 18.2104 13.2424C17.7626 13.6572 17.3406 14.1038 16.9444 14.5821C16.9367 14.5915 16.9289 14.6008 16.9212 14.6104C16.9204 14.6111 16.9198 14.612 16.919 14.6131C16.9183 14.6139 16.9177 14.6147 16.917 14.6155C16.6938 11.6813 16.7927 9.9705 17.2135 9.48282ZM33.4184 9.35529C34.2514 9.96717 34.7893 11.6223 35.0322 14.3208C35.0176 14.9405 34.99 15.6009 34.9497 16.3022C34.8264 16.0833 34.6962 15.8672 34.5586 15.6542L34.5682 15.7073C33.903 14.7105 33.1873 13.8464 32.4214 13.1149C32.8693 13.5298 33.2912 13.9764 33.6874 14.4547C33.6951 14.464 33.7029 14.4734 33.7107 14.4828C33.7114 14.4837 33.7121 14.4846 33.7129 14.4856C33.7136 14.4864 33.7142 14.4871 33.7149 14.488C33.9381 11.5539 33.8391 9.84295 33.4184 9.35529Z" fill="#000072"/>
</g>
</g>
<g opacity="0.649994">
<g opacity="0.649994">
<path opacity="0.649994" fill-rule="evenodd" clip-rule="evenodd" d="M29.5842 11.1201C29.3977 11.0295 29.2087 10.945 29.0176 10.8664C31.8199 7.00953 33.6444 6.2404 34.492 8.5561C33.5894 6.92773 31.9536 7.78237 29.5845 11.12L29.5842 11.1201Z" fill="white"/>
</g>
</g>
<path fill-rule="evenodd" clip-rule="evenodd" d="M33.7192 14.4873C32.9154 13.5108 32.0045 12.6656 30.9863 11.9519C33.2687 7.58646 34.1798 8.43161 33.7192 14.4873Z" fill="#000072"/>
<path d="M31.3117 11.8761C32.1046 12.4513 32.8389 13.1132 33.5023 13.8505C33.5888 12.4957 33.5971 11.432 33.5267 10.6828C33.4223 9.57102 33.1785 9.47226 33.151 9.46468C33.1003 9.45087 32.6284 9.40431 31.3117 11.8761ZM33.9226 15.1416L33.5153 14.6466C32.7298 13.6923 31.8274 12.855 30.833 12.158L30.6523 12.0314L30.7537 11.8375C31.8934 9.65767 32.6516 8.80254 33.2902 8.97923C33.8235 9.12674 34.3215 9.89882 33.9709 14.5069L33.9226 15.1416Z" fill="#000072"/>
<path d="M17.5071 7.63212C17.4039 7.63212 17.3129 7.64852 17.2326 7.67629C16.4619 7.94254 15.6239 9.55721 15.8997 15.6244C17.4109 13.3858 19.1972 11.7956 21.2209 10.8884C19.2921 8.28823 18.1591 7.63212 17.5071 7.63212ZM15.4747 17.2568L15.4279 16.444C15.0932 10.6385 15.6126 7.7013 17.0622 7.20049C18.1979 6.80823 19.7556 8.00103 21.8241 10.8478L22.011 11.1049L21.7142 11.2269C19.4712 12.1488 17.5163 13.9432 15.9039 16.5603L15.4747 17.2568Z" fill="#000072"/>
<path d="M25.4561 10.4347C19.3978 10.4347 14.5194 16.4477 14.5194 21.4263C14.5194 22.7209 15.1184 23.9384 16.2999 25.0448C18.9316 27.5094 23.7331 28.7125 25.3207 28.7126C25.3643 28.7126 25.4052 28.7117 25.4439 28.7099C26.5941 28.656 29.2439 28.0746 31.5338 26.9508C33.5473 25.9626 35.9474 24.2284 35.9474 21.5784C35.9474 16.4251 31.3646 10.4347 25.4561 10.4347ZM25.3272 29.2168C23.6242 29.2168 18.7161 28.0044 15.9456 25.4099C14.6585 24.2045 14.0059 22.8642 14.0059 21.4263C14.0059 18.8307 15.2721 15.938 17.3929 13.6884C19.6446 11.3001 22.5835 9.93033 25.4561 9.93033C28.3466 9.93033 31.1332 11.2944 33.3028 13.7714C35.2803 16.029 36.4609 18.9475 36.4609 21.5784C36.4609 23.8799 34.8365 25.8937 31.7633 27.4019C29.4067 28.5586 26.6635 29.1577 25.4683 29.2137C25.4242 29.2158 25.377 29.2168 25.3272 29.2168Z" fill="#000072"/>
<g opacity="0.559998">
<g opacity="0.559998">
<path opacity="0.559998" fill-rule="evenodd" clip-rule="evenodd" d="M25.7226 20.3836C25.9471 20.4417 26.1131 20.5477 26.0936 20.6204C26.0742 20.693 25.8765 20.7048 25.652 20.6467C25.4275 20.5886 25.2613 20.4826 25.2809 20.4099C25.3004 20.3373 25.4982 20.3254 25.7226 20.3836Z" fill="white"/>
</g>
</g>
<path d="M19.7754 17.6343C20.1901 18.1752 20.5977 18.5935 20.9983 18.8891C21.5877 19.324 22.2255 19.4001 22.2962 18.9212C21.9792 18.8855 21.6488 18.7408 21.3052 18.4872C20.4584 17.8622 20.1936 17.4597 19.7754 17.6343Z" fill="#000072"/>
<path d="M29.4151 10.7606C31.4387 11.6678 33.225 13.2579 34.7363 15.4966C35.0121 9.42935 34.1742 7.81469 33.4035 7.54844C32.8152 7.3454 31.649 7.74917 29.4151 10.7606ZM35.1612 17.1289L34.7321 16.4324C33.1196 13.8153 31.1647 12.0209 28.9218 11.0991L28.625 10.9772L28.8119 10.72C30.8802 7.87343 32.4374 6.67994 33.5738 7.07267C35.0234 7.57348 35.5428 10.5107 35.2081 16.3161L35.1612 17.1289Z" fill="#000072"/>
</svg>
