<svg width="268" height="34" viewBox="0 0 268 34" fill="none" xmlns="http://www.w3.org/2000/svg">
<path d="M10.2589 26.896C8.72286 26.896 7.18686 26.728 5.65086 26.392C4.11486 26.056 2.78286 25.564 1.65486 24.916C0.982859 24.556 0.562859 24.076 0.394859 23.476C0.226859 22.852 0.262859 22.252 0.502859 21.676C0.742859 21.1 1.12686 20.692 1.65486 20.452C2.18286 20.212 2.81886 20.272 3.56286 20.632C4.52286 21.184 5.59086 21.592 6.76686 21.856C7.94286 22.12 9.10686 22.252 10.2589 22.252C11.9869 22.252 13.2229 21.988 13.9669 21.46C14.7349 20.908 15.1189 20.224 15.1189 19.408C15.1189 18.712 14.8549 18.16 14.3269 17.752C13.7989 17.344 12.8749 16.996 11.5549 16.708L7.48686 15.844C2.95086 14.884 0.68286 12.532 0.68286 8.788C0.68286 7.18 1.11486 5.776 1.97886 4.576C2.84286 3.352 4.04286 2.404 5.57886 1.732C7.13886 1.06 8.93886 0.723999 10.9789 0.723999C12.3229 0.723999 13.6429 0.891999 14.9389 1.228C16.2349 1.54 17.3749 2.008 18.3589 2.632C18.9589 2.992 19.3309 3.46 19.4749 4.036C19.6189 4.612 19.5709 5.164 19.3309 5.692C19.1149 6.22 18.7309 6.592 18.1789 6.808C17.6509 7.024 16.9909 6.94 16.1989 6.556C15.4069 6.148 14.5669 5.848 13.6789 5.656C12.7909 5.464 11.8789 5.368 10.9429 5.368C9.43086 5.368 8.25486 5.668 7.41486 6.268C6.59886 6.844 6.19086 7.6 6.19086 8.536C6.19086 9.232 6.44286 9.796 6.94686 10.228C7.45086 10.66 8.32686 11.008 9.57486 11.272L13.6429 12.136C18.2989 13.144 20.6269 15.424 20.6269 18.976C20.6269 20.56 20.1949 21.952 19.3309 23.152C18.4909 24.328 17.2909 25.252 15.7309 25.924C14.1949 26.572 12.3709 26.896 10.2589 26.896ZM26.5174 33.304C24.6934 33.304 23.7814 32.38 23.7814 30.532V11.272C23.7814 9.448 24.6694 8.536 26.4454 8.536C28.2454 8.536 29.1454 9.448 29.1454 11.272V11.38C29.6494 10.492 30.3934 9.784 31.3774 9.256C32.3614 8.728 33.4654 8.464 34.6894 8.464C36.2254 8.464 37.5694 8.836 38.7214 9.58C39.8974 10.324 40.8094 11.38 41.4574 12.748C42.1054 14.116 42.4294 15.748 42.4294 17.644C42.4294 19.54 42.1054 21.184 41.4574 22.576C40.8094 23.944 39.8974 25.012 38.7214 25.78C37.5694 26.524 36.2254 26.896 34.6894 26.896C33.5134 26.896 32.4334 26.644 31.4494 26.14C30.4894 25.636 29.7454 24.964 29.2174 24.124V30.532C29.2174 32.38 28.3174 33.304 26.5174 33.304ZM33.0694 22.828C34.2214 22.828 35.1574 22.408 35.8774 21.568C36.5974 20.728 36.9574 19.42 36.9574 17.644C36.9574 15.892 36.5974 14.608 35.8774 13.792C35.1574 12.952 34.2214 12.532 33.0694 12.532C31.8934 12.532 30.9454 12.952 30.2254 13.792C29.5054 14.608 29.1454 15.892 29.1454 17.644C29.1454 19.42 29.5054 20.728 30.2254 21.568C30.9454 22.408 31.8934 22.828 33.0694 22.828ZM48.49 5.584C47.482 5.584 46.702 5.356 46.15 4.9C45.622 4.42 45.358 3.748 45.358 2.884C45.358 1.996 45.622 1.324 46.15 0.868C46.702 0.387999 47.482 0.147998 48.49 0.147998C50.554 0.147998 51.586 1.06 51.586 2.884C51.586 4.684 50.554 5.584 48.49 5.584ZM48.49 26.788C47.602 26.788 46.918 26.536 46.438 26.032C45.982 25.504 45.754 24.772 45.754 23.836V11.524C45.754 9.532 46.666 8.536 48.49 8.536C49.354 8.536 50.014 8.8 50.47 9.328C50.95 9.832 51.19 10.564 51.19 11.524V23.836C51.19 24.772 50.962 25.504 50.506 26.032C50.05 26.536 49.378 26.788 48.49 26.788ZM62.2628 26.896C60.7268 26.896 59.3708 26.524 58.1948 25.78C57.0428 25.012 56.1428 23.944 55.4948 22.576C54.8468 21.184 54.5228 19.54 54.5228 17.644C54.5228 15.748 54.8468 14.116 55.4948 12.748C56.1428 11.38 57.0428 10.324 58.1948 9.58C59.3708 8.836 60.7268 8.464 62.2628 8.464C63.4388 8.464 64.5188 8.716 65.5028 9.22C66.4868 9.724 67.2308 10.396 67.7348 11.236V3.568C67.7348 1.72 68.6348 0.795998 70.4348 0.795998C72.2588 0.795998 73.1708 1.72 73.1708 3.568V24.052C73.1708 25.9 72.2708 26.824 70.4708 26.824C68.6708 26.824 67.7708 25.9 67.7708 24.052V23.944C67.2908 24.856 66.5468 25.576 65.5388 26.104C64.5548 26.632 63.4628 26.896 62.2628 26.896ZM63.8828 22.828C65.0348 22.828 65.9708 22.408 66.6908 21.568C67.4348 20.728 67.8068 19.42 67.8068 17.644C67.8068 15.892 67.4348 14.608 66.6908 13.792C65.9708 12.952 65.0348 12.532 63.8828 12.532C62.7308 12.532 61.7948 12.952 61.0748 13.792C60.3548 14.608 59.9948 15.892 59.9948 17.644C59.9948 19.42 60.3548 20.728 61.0748 21.568C61.7948 22.408 62.7308 22.828 63.8828 22.828ZM86.5395 26.896C84.4515 26.896 82.6515 26.524 81.1395 25.78C79.6515 25.012 78.4995 23.944 77.6835 22.576C76.8915 21.184 76.4955 19.552 76.4955 17.68C76.4955 15.856 76.8795 14.26 77.6475 12.892C78.4395 11.5 79.5075 10.42 80.8515 9.652C82.2195 8.86 83.7915 8.464 85.5675 8.464C88.1355 8.464 90.1755 9.28 91.6875 10.912C93.1995 12.52 93.9555 14.704 93.9555 17.464C93.9555 18.376 93.3915 18.832 92.2635 18.832H81.6795C81.8715 20.224 82.3755 21.244 83.1915 21.892C84.0315 22.516 85.1835 22.828 86.6475 22.828C87.2235 22.828 87.8715 22.768 88.5915 22.648C89.3355 22.504 90.0435 22.264 90.7155 21.928C91.4115 21.592 91.9995 21.532 92.4795 21.748C92.9595 21.94 93.2835 22.276 93.4515 22.756C93.6435 23.236 93.6435 23.74 93.4515 24.268C93.2835 24.772 92.8875 25.192 92.2635 25.528C91.4235 25.984 90.4875 26.32 89.4555 26.536C88.4475 26.776 87.4755 26.896 86.5395 26.896ZM85.7835 12.064C84.6315 12.064 83.6955 12.412 82.9755 13.108C82.2795 13.804 81.8475 14.776 81.6795 16.024H89.4555C89.3115 13.384 88.0875 12.064 85.7835 12.064ZM99.9253 26.824C98.0533 26.824 97.1173 25.9 97.1173 24.052V11.272C97.1173 9.448 98.0053 8.536 99.7813 8.536C101.557 8.536 102.445 9.448 102.445 11.272V11.92C103.309 9.784 105.097 8.632 107.809 8.464C108.409 8.416 108.865 8.572 109.177 8.932C109.513 9.268 109.693 9.832 109.717 10.624C109.765 11.368 109.609 11.956 109.249 12.388C108.913 12.82 108.337 13.084 107.521 13.18L106.693 13.252C104.005 13.516 102.661 14.884 102.661 17.356V24.052C102.661 25.9 101.749 26.824 99.9253 26.824ZM121.493 26.896C119.957 26.896 118.421 26.728 116.885 26.392C115.349 26.056 114.017 25.564 112.889 24.916C112.217 24.556 111.797 24.076 111.629 23.476C111.461 22.852 111.497 22.252 111.737 21.676C111.977 21.1 112.361 20.692 112.889 20.452C113.417 20.212 114.053 20.272 114.797 20.632C115.757 21.184 116.825 21.592 118.001 21.856C119.177 22.12 120.341 22.252 121.493 22.252C123.221 22.252 124.457 21.988 125.201 21.46C125.969 20.908 126.353 20.224 126.353 19.408C126.353 18.712 126.089 18.16 125.561 17.752C125.033 17.344 124.109 16.996 122.789 16.708L118.721 15.844C114.185 14.884 111.917 12.532 111.917 8.788C111.917 7.18 112.349 5.776 113.213 4.576C114.077 3.352 115.277 2.404 116.813 1.732C118.373 1.06 120.173 0.723999 122.213 0.723999C123.557 0.723999 124.877 0.891999 126.173 1.228C127.469 1.54 128.609 2.008 129.593 2.632C130.193 2.992 130.565 3.46 130.709 4.036C130.853 4.612 130.805 5.164 130.565 5.692C130.349 6.22 129.965 6.592 129.413 6.808C128.885 7.024 128.225 6.94 127.433 6.556C126.641 6.148 125.801 5.848 124.913 5.656C124.025 5.464 123.113 5.368 122.177 5.368C120.665 5.368 119.489 5.668 118.649 6.268C117.833 6.844 117.425 7.6 117.425 8.536C117.425 9.232 117.677 9.796 118.181 10.228C118.685 10.66 119.561 11.008 120.809 11.272L124.877 12.136C129.533 13.144 131.861 15.424 131.861 18.976C131.861 20.56 131.429 21.952 130.565 23.152C129.725 24.328 128.525 25.252 126.965 25.924C125.429 26.572 123.605 26.896 121.493 26.896ZM137.752 26.824C135.928 26.824 135.016 25.9 135.016 24.052V3.568C135.016 1.72 135.928 0.795998 137.752 0.795998C139.552 0.795998 140.452 1.72 140.452 3.568V11.236C141.076 10.324 141.88 9.64 142.864 9.184C143.848 8.704 144.94 8.464 146.14 8.464C150.292 8.464 152.368 10.936 152.368 15.88V24.052C152.368 25.9 151.456 26.824 149.632 26.824C148.768 26.824 148.096 26.584 147.616 26.104C147.16 25.624 146.932 24.94 146.932 24.052V16.132C146.932 14.908 146.704 14.032 146.248 13.504C145.792 12.952 145.12 12.676 144.232 12.676C143.08 12.676 142.156 13.036 141.46 13.756C140.788 14.476 140.452 15.436 140.452 16.636V24.052C140.452 25.9 139.552 26.824 137.752 26.824ZM159.162 5.584C158.154 5.584 157.374 5.356 156.822 4.9C156.294 4.42 156.03 3.748 156.03 2.884C156.03 1.996 156.294 1.324 156.822 0.868C157.374 0.387999 158.154 0.147998 159.162 0.147998C161.226 0.147998 162.258 1.06 162.258 2.884C162.258 4.684 161.226 5.584 159.162 5.584ZM159.162 26.788C158.274 26.788 157.59 26.536 157.11 26.032C156.654 25.504 156.426 24.772 156.426 23.836V11.524C156.426 9.532 157.338 8.536 159.162 8.536C160.026 8.536 160.686 8.8 161.142 9.328C161.622 9.832 161.862 10.564 161.862 11.524V23.836C161.862 24.772 161.634 25.504 161.178 26.032C160.722 26.536 160.05 26.788 159.162 26.788ZM176.967 26.896C175.743 26.896 174.639 26.632 173.655 26.104C172.671 25.576 171.927 24.856 171.423 23.944V24.052C171.423 25.9 170.535 26.824 168.759 26.824C166.959 26.824 166.059 25.9 166.059 24.052V3.568C166.059 1.72 166.971 0.795998 168.795 0.795998C170.595 0.795998 171.495 1.72 171.495 3.568V11.2C172.023 10.36 172.767 9.7 173.727 9.22C174.711 8.716 175.791 8.464 176.967 8.464C178.503 8.464 179.847 8.836 180.999 9.58C182.175 10.324 183.087 11.38 183.735 12.748C184.383 14.116 184.707 15.748 184.707 17.644C184.707 19.54 184.383 21.184 183.735 22.576C183.087 23.944 182.175 25.012 180.999 25.78C179.847 26.524 178.503 26.896 176.967 26.896ZM175.347 22.828C176.499 22.828 177.435 22.408 178.155 21.568C178.875 20.728 179.235 19.42 179.235 17.644C179.235 15.892 178.875 14.608 178.155 13.792C177.435 12.952 176.499 12.532 175.347 12.532C174.171 12.532 173.223 12.952 172.503 13.792C171.783 14.608 171.423 15.892 171.423 17.644C171.423 19.42 171.783 20.728 172.503 21.568C173.223 22.408 174.171 22.828 175.347 22.828ZM194.007 26.896C192.687 26.896 191.523 26.644 190.515 26.14C189.507 25.636 188.703 24.952 188.103 24.088C187.527 23.224 187.239 22.252 187.239 21.172C187.239 19.9 187.575 18.88 188.247 18.112C188.919 17.344 190.011 16.804 191.523 16.492C193.035 16.156 195.039 15.988 197.535 15.988H198.831V15.376C198.831 14.32 198.591 13.576 198.111 13.144C197.631 12.688 196.815 12.46 195.663 12.46C195.015 12.46 194.307 12.544 193.539 12.712C192.771 12.856 191.943 13.108 191.055 13.468C190.383 13.756 189.819 13.78 189.363 13.54C188.907 13.276 188.607 12.892 188.463 12.388C188.319 11.86 188.355 11.332 188.571 10.804C188.811 10.276 189.267 9.892 189.939 9.652C191.067 9.22 192.123 8.92 193.107 8.752C194.115 8.56 195.039 8.464 195.879 8.464C198.615 8.464 200.655 9.088 201.999 10.336C203.343 11.56 204.015 13.468 204.015 16.06V24.052C204.015 25.9 203.175 26.824 201.495 26.824C199.791 26.824 198.939 25.9 198.939 24.052V23.836C198.579 24.772 197.967 25.516 197.103 26.068C196.263 26.62 195.231 26.896 194.007 26.896ZM195.231 23.26C196.239 23.26 197.091 22.912 197.787 22.216C198.483 21.52 198.831 20.62 198.831 19.516V18.796H197.571C195.723 18.796 194.415 18.964 193.647 19.3C192.879 19.612 192.495 20.164 192.495 20.956C192.495 21.628 192.723 22.18 193.179 22.612C193.659 23.044 194.343 23.26 195.231 23.26Z" fill="white"/>
<path d="M221.401 26.824C220.489 26.824 219.793 26.572 219.313 26.068C218.833 25.564 218.593 24.856 218.593 23.944V3.676C218.593 1.756 219.529 0.795998 221.401 0.795998C223.249 0.795998 224.173 1.756 224.173 3.676V23.944C224.173 25.864 223.249 26.824 221.401 26.824ZM231.549 26.824C229.725 26.824 228.813 25.9 228.813 24.052V11.272C228.813 9.448 229.701 8.536 231.477 8.536C233.253 8.536 234.141 9.448 234.141 11.272V11.416C234.741 10.456 235.545 9.724 236.553 9.22C237.561 8.716 238.689 8.464 239.937 8.464C242.025 8.464 243.585 9.076 244.617 10.3C245.649 11.5 246.165 13.36 246.165 15.88V24.052C246.165 25.9 245.253 26.824 243.429 26.824C242.565 26.824 241.893 26.584 241.413 26.104C240.957 25.624 240.729 24.94 240.729 24.052V16.132C240.729 14.908 240.501 14.032 240.045 13.504C239.589 12.952 238.917 12.676 238.029 12.676C236.877 12.676 235.953 13.036 235.257 13.756C234.585 14.476 234.249 15.436 234.249 16.636V24.052C234.249 25.9 233.349 26.824 231.549 26.824ZM256.739 26.896C254.483 26.896 252.815 26.272 251.735 25.024C250.679 23.776 250.151 21.904 250.151 19.408V11.272C250.151 9.448 251.051 8.536 252.851 8.536C254.675 8.536 255.587 9.448 255.587 11.272V19.552C255.587 21.64 256.487 22.684 258.287 22.684C259.319 22.684 260.159 22.324 260.807 21.604C261.479 20.86 261.815 19.888 261.815 18.688V11.272C261.815 9.448 262.715 8.536 264.515 8.536C266.339 8.536 267.251 9.448 267.251 11.272V24.052C267.251 25.9 266.375 26.824 264.623 26.824C263.759 26.824 263.099 26.584 262.643 26.104C262.187 25.624 261.959 24.952 261.959 24.088C260.783 25.96 259.043 26.896 256.739 26.896Z" fill="#E11D2E"/>
</svg>
