<svg width="644" height="662" viewBox="0 0 644 662" fill="none" xmlns="http://www.w3.org/2000/svg">
<path opacity="0.03" fill-rule="evenodd" clip-rule="evenodd" d="M549.232 75.2337C533.047 92.7554 516.789 110.236 500.356 127.996C522.053 145.435 534.757 169.149 549.874 191.124C561.324 207.724 573.872 223.589 585.778 239.888C588.285 243.285 590.855 243.482 594.72 242.239C609.433 237.455 624.23 232.991 639.037 228.538C640.498 228.093 642.27 228.663 643.876 228.777L644 230.744C642.363 231.345 640.705 232.028 639.057 232.546C623.94 237.268 608.863 242.135 593.621 246.557C589.145 247.862 587.187 249.913 586.213 254.5C578.1 293.8 582.286 332.437 591.093 371.115C593.621 382.278 597.611 388.916 610.304 389.6C619.049 390.035 627.649 392.862 636.291 394.633C636.457 395.223 636.612 395.813 636.736 396.424C635.317 396.911 633.763 397.946 632.467 397.708C621.759 395.783 611.085 393.674 600.45 391.381C596.564 390.542 593.507 391.091 590.212 393.431C567.645 409.503 551.822 430.857 539.761 454.975C531.71 471.026 525.027 487.699 517.722 504.071C516.707 506.37 515.515 508.596 514.178 511.392C530.353 525.932 546.859 540.761 563.396 555.59C561.49 559.939 559.656 558.003 557.604 556.18C545.056 544.945 532.467 533.781 519.96 522.545C509.453 513.142 509.495 513.122 496.812 519.811C479.591 528.914 462.225 537.716 445.221 547.161C430.767 555.145 418.167 565.345 407.784 578.165C405.619 580.858 405.09 583.043 406.365 586.44C413.079 604.044 419.524 621.742 426.031 639.398C426.156 639.74 426.394 640.061 426.436 640.434C426.601 642.64 426.715 644.897 426.84 647.124C425.399 645.415 423.42 643.944 422.695 642.008C415.883 624.446 409.313 606.791 402.987 589.049C401.505 584.886 399.505 583.623 395.112 583.675C365.892 583.933 337.615 590.126 309.307 596.402C293.671 599.871 278.015 603.547 262.389 606.975C259.208 607.648 257.851 609.077 257.125 612.153C253.623 626.951 249.883 641.656 246.225 656.392C245.738 658.287 245.22 660.172 244.774 661.963C240.029 662.336 241.117 659.809 241.718 657.438C245.696 641.293 249.841 625.19 253.416 608.922C254.266 605.194 254.027 600.606 252.608 597.054C239.697 564.413 213.969 548.051 179.661 543.029C167.238 541.216 154.731 540.057 142.307 538.369C138.971 537.882 136.919 538.814 134.712 541.216C120.005 557.198 105.208 573.098 90.3229 588.915C89.152 590.095 87.1833 590.561 85.6187 591.358C85.2146 590.747 84.769 590.157 84.3649 589.546C101.296 571.258 118.258 552.98 135.676 534.154C132.184 530.126 128.879 526.097 125.314 522.307C113.253 509.839 100.871 497.702 89.0484 484.985C70.5942 465.134 64.4394 454.447 51.2593 421.775C48.8036 422.479 46.2339 423.152 43.7056 423.949C31.0436 427.884 18.3713 431.892 5.70929 435.703C4.10323 436.21 2.13451 435.661 0.36266 435.579C1.8133 434.398 3.09815 432.71 4.74566 432.151C18.4127 427.688 32.0902 423.307 45.8816 419.206C49.705 418.088 51.4769 416.069 52.4716 412.341C59.5486 386.338 58.1809 360.355 52.3162 334.497C48.4202 317.379 43.5916 300.5 38.8045 283.62C38.2865 281.86 35.551 279.902 33.4786 279.447C22.5678 276.91 11.5015 274.87 0.486999 272.653L0 270.883C1.40919 270.427 2.93236 269.391 4.22757 269.599C12.2268 270.966 20.226 272.291 28.1113 274.259C33.0227 275.501 36.1105 274.58 39.8096 270.841C59.673 250.648 75.1534 227.803 85.3286 201.583C93.2138 181.306 97.5139 160.295 98.7988 138.714C98.9127 136.259 97.545 133.091 95.7835 131.278C84.3649 119.483 72.6251 107.968 60.8335 96.1935C62.1598 93.1593 63.8073 94.4434 65.8175 96.3902C76.9563 107.222 88.0951 118.075 99.3894 128.721C100.757 130.005 103.254 131.258 104.933 130.947C143.934 123.657 180.252 110.308 210.757 84.4916C215.782 80.2562 220.207 75.3269 224.994 70.8532C227.605 68.4404 227.926 65.9654 226.921 62.5998C221.616 44.3739 216.559 26.0548 211.399 7.76673C211.161 6.91756 210.715 6.01662 210.757 5.15711C210.809 3.42771 211.088 1.71904 211.285 0C212.363 1.2841 214.062 2.41286 214.508 3.88336C218.207 16.3826 221.699 28.9336 225.284 41.4329C227.056 47.698 229.066 53.9321 230.558 60.2387C231.397 63.8735 233.408 65.6029 236.785 66.9492C269.715 80.018 303.37 80.1733 337.46 72.8001C346.464 70.8532 355.313 68.1194 364.234 65.9654C367.571 65.1784 369.032 63.5629 369.778 60.2594C373.881 42.2821 378.191 24.3564 382.523 6.43085C382.927 4.93964 384.222 3.65554 385.092 2.28859C385.735 2.5682 386.346 2.86851 386.999 3.16882C386.792 4.68075 386.678 6.22374 386.356 7.70459C382.367 24.781 378.285 41.8161 374.534 58.9857C374.088 61.15 374.772 64.4638 376.254 66.0586C408.064 99.9008 447.47 119.307 493.994 124.848C495.838 125.065 498.532 123.688 499.9 122.238C514.448 106.849 528.84 91.2953 543.274 75.8447C544.818 74.2292 546.372 71.0707 549.273 75.2337H549.232ZM138.629 530.985C146.514 522.525 154.027 514.602 161.269 506.453C162.233 505.365 162.399 502.714 161.756 501.264C158.898 494.211 155.773 487.267 152.389 480.45C139.044 453.639 121.097 430.339 96.8611 411.957C95.1722 410.694 92.6853 408.965 91.1518 409.41C79.3706 412.693 67.6619 416.483 55.7666 420.169C61.1962 439.669 69.9207 456.756 82.8625 471.306C100.799 491.447 119.657 510.75 138.629 530.985ZM583.571 245.491C571.344 228.497 559.49 212.197 547.916 195.659C537.813 181.234 528.488 166.249 518.002 152.041C512.375 144.389 505.091 137.896 498.087 130.408C489.082 140.091 480.969 148.676 473.115 157.53C472.286 158.493 472.732 161.268 473.498 162.749C478.804 172.877 484.026 183.057 489.808 192.936C503.868 216.868 521.659 237.683 544.849 253.713C546.362 254.759 548.672 256.043 550.154 255.618C561.448 252.439 572.649 248.867 583.571 245.491ZM259.457 603.412C306.375 594.134 351.22 579.75 399.423 579.543C395.599 569.228 392.221 559.567 388.315 550.039C387.177 547.719 385.193 545.922 382.771 545.017C369.861 540.916 356.567 541.082 343.324 543.174C317.949 547.192 294.552 557.195 270.917 566.391C270.197 566.701 269.549 567.158 269.016 567.732C268.482 568.306 268.075 568.985 267.819 569.726C264.969 580.568 262.4 591.441 259.457 603.412ZM40.6178 275.574C41.9856 276.361 42.5451 276.879 43.1979 277.024C53.6943 279.178 64.1285 281.342 74.6767 283.237C76.0445 283.475 78.1168 282.45 79.2151 281.383C111.067 250.523 127.552 212.85 130.879 169.387C130.961 167.823 131.158 165.628 130.278 164.748C121.75 156.122 112.994 147.723 103.379 138.362C99.0371 192.201 79.3809 237.993 40.5868 275.574H40.6178ZM106.974 134.903C115.543 143.602 123.656 151.938 131.987 160.098C132.909 161.02 135.085 161.341 136.495 161.082C170.875 154.537 202.799 142.659 229.128 119.09C240.184 109.2 240.143 109.148 236.205 95.3961C233.981 87.6288 231.743 79.8655 229.491 72.1063C196.074 108.185 153.591 125.2 106.974 134.861V134.903ZM94.3432 403.797C106.684 399.966 118.103 396.507 129.449 392.686C130.899 392.209 132.381 389.91 132.671 388.264C133.997 380.611 135.448 372.948 135.811 365.243C136.66 346.914 130.982 329.599 127.169 311.912C124.682 300.5 119.937 294.349 107.513 293.665C99.2339 293.23 91.0689 290.714 82.3029 289.005C83.4531 327.828 96.4363 364.518 94.3432 403.745V403.797ZM582.897 249.902C572.411 253.112 563.003 256.25 553.428 258.839C549.097 259.999 547.315 262.153 546.424 266.45C539.316 300.852 543.17 334.601 551.221 368.35C553.024 375.868 556.195 379.203 563.966 380.114C572.608 381.098 581.125 383.314 589.042 384.836C585.436 362.344 581.25 340.39 578.556 318.249C575.872 295.747 577.872 273.244 582.897 249.902ZM511.215 508.544C529.793 463.518 547.242 419.134 588.969 389.103C577.229 386.731 566.785 384.463 556.247 382.589C554.61 382.289 552.154 383.2 550.828 384.36C543.119 391.07 534.985 397.46 528.218 404.988C514.189 420.625 504.905 439.172 496.75 458.216C492.885 467.143 489.186 476.142 485.28 485.441L511.215 508.544ZM81.8263 284.625C95.2136 287.317 107.44 289.844 119.74 292.06C121.066 292.298 123.076 290.9 124.247 289.73C148.815 265.322 161.922 235.818 164.575 201.769C164.699 200.123 164.533 197.855 163.528 196.788C154.721 187.582 145.716 178.624 136.754 169.605C136.225 169.791 135.666 169.988 135.189 170.184C131.22 214.217 114.6 252.595 81.8263 284.614V284.625ZM367.664 68.9375C322.601 82.5033 278.564 87.8676 233.449 69.7866C236.298 79.9766 239.075 88.7374 241.127 97.6743C242.246 102.655 244.95 105.11 249.686 106.932C285.548 120.653 321.099 116.439 356.608 105.627C357.317 105.33 357.956 104.887 358.483 104.327C359.009 103.766 359.412 103.102 359.665 102.376C362.369 91.7198 364.815 80.9914 367.664 68.9375ZM372.285 68.0158C369.591 79.4795 367.104 89.628 364.897 99.8387C364.787 100.666 364.849 101.506 365.079 102.308C365.309 103.11 365.702 103.856 366.234 104.499C392.687 133.028 425.368 150.063 464.37 155.397C466.069 155.614 468.514 155.614 469.488 154.63C477.477 146.47 485.176 138.051 493.776 128.855C445.605 122.549 405.515 102.935 372.285 68.0158ZM468.514 162.149C459.873 171.396 451.739 179.971 443.905 188.752C443.139 189.632 443.48 192.128 444.144 193.474C447.076 199.501 450.174 205.425 453.428 211.338C465.25 232.878 479.923 252.17 500.273 266.771C501.952 267.983 504.438 269.609 506.024 269.164C518.168 265.746 530.146 261.894 543.564 257.731C508.158 233.074 486.564 199.398 468.514 162.149ZM137.645 165.079C143.955 171.386 149.664 177.216 155.498 182.922C167.041 194.168 167.082 194.21 182.915 190.171C207.721 183.802 230.361 173.436 248.815 155.438C251.302 152.984 252.11 150.861 251.022 147.361C248.287 138.942 246.111 130.367 243.666 121.844C242.94 119.235 242.06 116.625 240.972 113.187C212.425 142.897 176.76 156.919 137.645 165.069V165.079ZM542.994 262.174C531.524 265.694 521.276 269.07 510.852 271.96C506.78 273.109 504.946 275.015 504.055 279.178C497.942 308.525 501.485 337.345 509.298 365.875C509.723 367.542 512.272 369.375 514.199 369.851C520.955 371.539 527.856 372.668 534.736 374.035C539.326 374.915 543.865 375.837 549.284 376.883C539.129 338.785 534.29 301.452 542.994 262.143V262.174ZM547.688 381.149C545.73 380.58 544.548 380.145 543.378 379.907C533.969 377.991 524.654 375.878 515.163 374.418C512.469 374.004 508.925 374.677 506.666 376.189C496.139 383.169 487.217 392.064 481.145 402.855C471.25 420.511 462.442 438.737 453.2 456.673C463.22 465.651 472.141 473.615 481.995 482.407C497.662 444.267 512.562 406.707 547.688 381.149ZM97.3688 406.987C130.381 431.82 151.208 463.932 166.005 500.032C166.885 499.773 167.331 499.794 167.528 499.566C172.678 494.15 177.786 488.672 182.884 483.215C191.733 473.625 191.733 473.605 186.303 461.633C175.123 436.997 159.922 415.333 138.07 398.588C136.36 397.273 133.583 395.886 131.853 396.372C120.734 399.479 109.751 403.114 97.3688 406.987ZM358.069 109.418C319.917 120.664 282.729 124.651 244.526 109.097C248.142 121.938 251.364 133.526 254.742 145.062C254.981 145.849 256.027 146.584 256.877 146.957C286.148 159.394 315.814 157.778 345.573 148.883C346.992 148.448 348.951 147.361 349.241 146.211C352.246 134.375 354.981 122.445 358.069 109.418ZM464.95 159.694C444.89 156.443 426.394 151.213 409.049 142.38C391.848 133.577 376.969 121.762 362.949 107.46L354.183 144.73C356.39 146.801 358.473 148.572 360.318 150.457C380.108 170.433 403.971 182.901 431.979 187.623C434.466 188.027 438.175 188.069 439.564 186.66C448.071 178.179 456.101 169.211 464.95 159.694ZM403.06 577.13C413.801 563.68 427.071 552.462 442.123 544.106C458.432 534.941 475.156 526.501 491.683 517.699C496.315 515.255 500.895 512.687 506.013 509.922C497.714 502.507 490.17 495.6 482.399 488.952C481.446 488.092 478.917 487.854 477.747 488.444C460.184 497.609 442.558 506.732 425.192 516.311C413.091 522.906 402.476 531.915 394.003 542.78C392.895 544.251 392.045 546.86 392.605 548.445C395.692 557.703 399.236 566.805 403.07 577.13H403.06ZM141.644 533.678C143.893 534.071 145.105 534.33 146.307 534.496C158.731 536.142 171.196 537.426 183.557 539.497C216.425 544.996 241.355 561.182 255.188 591.793C255.509 592.487 256.193 593.098 257.084 594.258C259.457 584.648 261.788 575.732 263.798 566.774C264.202 565.148 263.798 563.15 263.239 561.545C254.224 536.753 237.138 520.246 210.601 514.571C196.769 511.62 182.573 510.295 168.543 508.358C167.217 508.172 165.29 508.441 164.523 509.269C156.969 517.088 149.612 525.093 141.644 533.647V533.678ZM42.6487 280.917C55.1967 325.54 69.2265 368.878 55.7148 415.748C67.2163 412.154 77.5469 409.058 87.7635 405.609C88.8826 405.206 89.9706 402.834 89.9706 401.374C90.012 392.893 90.3747 384.349 89.3282 375.951C85.7948 347.504 81.7745 319.098 77.7852 290.683C77.578 289.492 76.1377 287.793 75.0083 287.545C64.6466 285.287 54.1813 283.289 42.6487 280.969V280.917ZM384.999 540.688C380.875 529.577 377.083 519.107 372.98 508.762C372.472 507.457 370.285 506.111 368.773 505.956C360.514 505.189 352.235 503.864 344.081 504.392C326.383 505.51 310.302 512.759 293.619 517.896C282.242 521.417 276.17 527.299 274.958 539.011C274.191 546.529 271.58 553.881 269.611 562.083C281.31 557.744 291.889 553.55 302.665 549.843C324.663 542.293 346.93 535.821 370.731 538.431C375.249 538.907 379.694 539.829 384.999 540.688ZM389.797 541.279C412.665 512.283 447.128 501.938 476.876 483.857C468.152 476.059 459.914 468.603 451.521 461.302C450.63 460.525 448.34 460.225 447.294 460.784C431.119 469.421 414.696 477.705 399.132 487.264C391.807 491.768 385.973 498.717 379.829 504.868C378.616 506.069 378.026 508.948 378.554 510.574C381.901 520.495 385.683 530.271 389.797 541.279ZM266.555 556.066C269.166 545.338 271.663 535.252 274.036 525.124C274.274 524.14 273.922 522.96 273.559 521.945C266.928 502.662 254.898 488.196 234.154 482.945C222.248 479.953 209.907 478.627 197.68 476.898C195.991 476.68 193.577 478.099 192.209 479.466C187.298 484.354 182.656 489.521 177.972 494.616C175.237 497.588 172.584 500.643 169.403 504.185C179.765 505.531 189.059 506.68 198.312 507.965C228.589 512.2 252.193 525.683 264.897 554.213C265.104 554.617 265.591 554.938 266.555 556.066ZM170.533 202.422L168.885 203.271C165.393 237.765 152.079 267.931 126.464 293.479C137.479 295.664 147.395 297.745 157.311 299.506C158.513 299.723 160.409 298.625 161.446 297.621C180.625 278.411 190.925 255.225 193.173 228.549C193.287 227.099 192.852 225.173 191.878 224.168C184.894 216.806 177.693 209.629 170.533 202.422ZM499.485 271.338C471.012 250.948 453.967 223.516 439.294 193.568C432.165 201.179 425.617 208.014 419.4 215.087C418.612 216.008 418.809 218.462 419.441 219.788C422.198 225.494 425.171 231.117 428.27 236.668C437.315 252.802 448.382 267.331 463.582 278.504C465.136 279.664 467.675 280.938 469.291 280.493C479.021 277.831 488.616 274.714 499.485 271.338ZM198.582 223.475C207.431 232.432 215.958 241.121 224.642 249.674C225.45 250.482 227.356 250.679 228.62 250.461C241.21 248.152 253.229 244.269 264.12 237.403C274.481 230.817 274.481 230.837 271.197 219.001L269.673 213.802C267.58 206.408 265.456 199.015 263.322 191.538C240.961 201.697 217.44 207.889 198.582 223.475ZM498.698 275.874C490.336 278.453 481.176 281.135 472.162 284.21C470.701 284.718 469.354 286.903 468.939 288.529C463.23 312.357 465.965 335.823 472.4 359.082C472.665 359.801 473.095 360.449 473.654 360.974C474.213 361.498 474.887 361.886 475.622 362.105C485.072 364.187 494.584 365.978 504.159 367.894C501.755 352.34 498.335 337.335 497.444 322.195C496.532 307.065 498.17 291.749 498.698 275.874ZM504.728 372.244C498.491 371.001 493.559 370.721 489.248 368.971C475.747 363.493 466.421 369.189 458.329 379.078C456.122 381.781 453.386 384.184 451.811 387.156C444.111 402.109 436.567 417.143 429.181 432.255C428.736 433.104 428.943 434.895 429.585 435.485C436.383 441.751 443.325 447.902 450.941 454.695C463.686 423.877 475.788 393.576 504.728 372.244ZM127.293 297.818C136.101 328.512 145.188 358.191 136.619 390.376C141.8 388.833 145.986 387.622 150.131 386.296C169.31 380.269 169.828 379.379 170.201 359.164C170.481 340.98 164.896 323.924 159.985 306.734C159.705 305.688 158.7 304.217 157.778 304.021C147.965 301.898 138.111 299.992 127.293 297.818ZM194.727 470.487C201.566 463.176 207.711 456.725 213.606 450.077C214.047 449.473 214.346 448.778 214.482 448.043C214.618 447.308 214.588 446.552 214.394 445.831C205.307 422.738 192.282 402.254 172.087 386.762C170.926 385.861 168.947 384.815 167.745 385.178C158.492 387.839 149.291 390.811 139.033 394.022C165.694 414.391 182.418 440.394 194.727 470.487ZM265.612 183.636C266.7 183.378 267.549 182.974 268.347 183.046C269.394 183.129 270.482 183.491 271.487 183.906C293.194 192.791 315.109 191.382 337.107 185.138C338.527 184.734 340.485 183.626 340.775 182.487C343.304 172.949 345.469 163.319 348.018 152.507C317.213 161.31 287.371 163.805 256.452 150.944C259.778 162.946 262.638 173.125 265.612 183.636ZM353.23 149.214L345.822 180.737C348.474 182.87 350.66 184.32 352.505 186.143C367.944 201.51 386.367 211.462 408.075 215.356C409.753 215.656 412.323 215.956 413.214 215.055C420.322 207.91 427.14 200.464 434.808 192.252C402.324 187.033 375.891 173.043 353.23 149.214ZM462.391 282.833C439.864 265.953 426.363 244.01 414.789 219.86C405.826 229.502 397.651 238.262 390.056 246.443L397.039 259.419C403.557 271.452 411.162 282.719 422.218 291.304C423.835 292.547 426.695 293.634 428.456 293.137C439.398 290.103 450.205 286.571 462.391 282.833ZM199.152 229.968C198.582 230.268 198.022 230.61 197.463 230.931C194.24 257.514 183.837 280.907 164.171 300.955C176.677 303.451 188.013 305.823 199.432 307.79C200.882 308.028 203.1 306.547 204.301 305.263C216.197 292.681 222.921 277.676 225.129 260.734C225.367 258.932 225.129 256.437 224.041 255.235C215.917 246.661 207.514 238.345 199.193 229.968H199.152ZM370.596 501.906C367.26 492.783 364.4 484.582 361.146 476.546C360.535 475.054 358.338 473.346 356.774 473.263C349.448 472.776 341.739 471.316 334.817 472.983C319.814 476.556 305.255 481.827 290.552 486.487C289.464 486.849 288.055 487.875 287.775 488.858C285.247 498.551 282.916 508.306 280.294 518.859C309.835 508.099 337.864 495.32 370.596 501.906ZM464.919 286.395C454.319 289.647 444.827 292.868 435.129 295.394C430.611 296.554 428.933 298.967 428.166 303.089C425.316 319.005 426.653 334.694 430.653 350.238C430.974 351.563 432.311 353.438 433.481 353.676C444.734 356.141 456.029 358.295 468.172 360.728C462.028 335.947 458.93 311.818 464.919 286.395ZM468.214 364.964C458.64 363.027 450.039 361.888 441.802 359.434C434.31 357.187 429.016 359.454 424.156 364.601C423.14 365.647 422.011 366.61 421.058 367.697C410.8 378.809 405.329 392.458 399.868 406.096C399.505 406.997 399.785 408.768 400.459 409.379C408.313 416.618 416.26 423.711 424.829 431.343C435.17 406.303 444.983 382.03 468.214 364.964ZM171.766 379.503C182.501 376.168 191.909 373.031 201.442 370.38C205.182 369.334 206.747 367.325 207.514 363.783C210.042 351.771 207.192 340.245 205.379 328.439C203.441 315.93 197.784 309.292 184.448 309.054C179.578 308.929 174.719 307.2 169.828 306.278C168.16 305.957 166.471 305.719 164.14 305.336C171.217 329.92 178.335 353.5 171.745 379.503H171.766ZM446.164 456.445C438.984 449.994 432.134 443.718 425.099 437.712C424.311 437.008 421.959 437.287 420.809 437.898C410.997 442.869 400.811 447.384 391.651 453.349C383.175 458.868 375.725 465.941 367.975 472.496C366.887 473.418 365.768 475.551 366.13 476.67C368.98 485.255 372.244 493.715 375.684 503.118C394.335 479.518 421.918 470.985 446.164 456.445ZM218.663 444.806C226.424 436.449 233.542 428.941 240.495 421.205C241.303 420.252 241.541 418.129 241.086 416.928C234.796 400.608 225.781 386.068 211.834 374.853C210.508 373.807 208.384 372.523 207.13 372.886C196.437 375.982 185.858 379.42 174.242 383.076C195.39 399.717 208.736 420.449 218.663 444.806ZM275.517 515.369C275.926 515.18 276.33 514.984 276.73 514.779C278.056 509.559 279.424 504.319 280.626 499.121C281.393 495.838 283.102 492.11 282.253 489.179C277.807 473.905 269.487 461.105 253.198 456.207C243.23 453.194 232.651 452.179 222.32 450.418C221.201 450.211 219.43 450.418 218.746 451.112C212.114 457.988 205.638 465.02 198.198 472.994C231.491 475.624 261.778 481.247 275.517 515.369ZM339.532 188.794C314.871 195.69 291.246 196.446 266.482 186.702L276.978 223.91C280.108 224.054 282.605 223.588 284.615 224.344C298.81 229.75 313.12 229.346 327.554 225.711C329.129 225.308 331.139 223.599 331.543 222.139C334.31 211.493 336.672 200.765 339.491 188.794H339.532ZM409.163 219.767C385.041 215.242 365.27 205.021 348.971 188.493C346.36 185.821 344.475 186.443 343.625 190.016C341.097 200.703 338.568 211.41 336.216 221.29C339.232 223.278 341.988 224.583 344.029 226.509C354.204 236.181 365.985 242.964 379.808 246.06C381.549 246.443 384.243 246.298 385.227 245.252C393.133 237.206 400.728 228.849 409.163 219.767ZM195.028 220.782C212 207.196 232.34 199.967 252.328 192.014C254.897 191.029 257.361 189.791 259.685 188.317C260.648 187.717 261.633 185.946 261.415 185.024C259.001 175.818 256.307 166.695 253.447 156.608C230.372 179.618 201.939 190.647 171.745 196.954C179.465 204.865 187.07 212.622 195.028 220.782ZM420.198 433.238C411.877 425.803 404.23 418.771 396.314 412.061C395.382 411.253 392.895 411.336 391.6 411.957C385.486 414.867 379.176 417.643 373.591 421.423C366.835 425.958 360.639 431.364 354.401 436.594C353.323 437.494 352.318 439.628 352.681 440.705C356.059 450.543 359.727 460.277 363.654 470.922C378.544 451.992 400.324 444.93 420.198 433.238ZM289.184 482.345C312.022 474.06 333.615 464.823 358.38 469.079C354.836 459.521 351.293 450.791 348.402 441.875C347.044 437.66 344.64 436.417 340.413 436.21C325.917 435.485 312.996 440.87 299.961 445.82C299.038 446.172 297.951 447.146 297.754 447.985C294.904 459.096 292.169 470.239 289.184 482.345ZM222.849 446.411C249.986 448.42 273.507 454.333 284.605 482.862C287.506 471.047 289.951 461.136 292.366 451.216C292.49 450.708 292.687 450.035 292.448 449.631C288.998 443.811 286.18 437.349 281.755 432.286C273.113 422.427 260.524 421.619 248.38 420.47C247.499 420.366 246.287 421.257 245.603 421.992C238.371 429.655 231.211 437.412 222.849 446.411ZM369.798 268.273L374.472 274.787C380.585 283.309 386.533 291.946 392.822 300.324C393.817 301.629 396.47 302.954 397.858 302.55C405.267 300.665 412.489 298.211 419.659 295.964C413.628 289.088 407.515 283.061 402.583 276.195C397.589 269.319 393.775 261.645 389.506 254.252C387.849 251.321 386.129 250.637 383.642 253.371C378.969 258.446 374.233 263.509 369.798 268.273ZM427.192 356.762C419.628 355.24 413.556 353.79 407.401 352.951C404.97 352.673 402.516 353.224 400.438 354.515C388.698 362.706 383.839 375.33 378.886 387.829C378.585 388.668 379.124 390.356 379.901 391.029C384.802 395.627 389.838 400.048 395.382 404.988C402.966 387.063 410.012 369.499 427.192 356.762ZM424.726 298.791C417.379 301.059 410.986 302.726 404.873 305.077C403.815 305.548 402.866 306.232 402.083 307.085C401.301 307.938 400.702 308.943 400.324 310.037C397.433 321.47 398.324 332.944 401.174 344.294C401.495 345.516 402.469 347.349 403.422 347.566C410.831 349.296 418.302 350.683 426.549 352.371C422.239 334.321 420.478 317.224 424.726 298.791ZM231.211 260.6L229.315 261.811C226.703 279.695 219.264 295.446 206.477 309.343C214.56 310.99 221.554 312.616 228.631 313.651C230.32 313.89 232.848 312.626 234.06 311.259C241.543 303.043 246.315 292.724 247.727 281.704C247.935 280.255 247.644 278.308 246.764 277.324C241.749 271.608 236.443 266.14 231.211 260.6ZM205.4 313.361C210.301 331.287 215.648 348.467 211.109 367.149C217.989 365.026 223.688 363.037 229.522 361.546C233.387 360.562 234.786 358.367 235.314 354.753C237.086 342.74 233.625 331.525 230.289 320.279C230.009 319.233 228.392 318.032 227.232 317.763C220.393 316.251 213.565 314.967 205.4 313.361ZM245.365 416.017C250.629 410.352 255.177 405.558 259.478 400.701C260.244 399.841 260.731 397.967 260.327 396.952C255.623 384.836 249.188 373.787 238.775 365.44C237.687 364.56 235.677 363.949 234.392 364.322C227.719 366.175 221.129 368.381 213.565 370.752C228.641 383.045 238.288 398.153 245.406 416.017H245.365ZM329.709 230.216C321.482 231.024 313.959 232.546 306.561 232.225C298.924 231.883 291.402 229.615 283.765 228.404C280.387 227.876 278.854 229.926 279.641 232.981C281.517 240.095 283.641 247.168 285.216 252.646C289.236 252.864 292.252 252.501 294.863 253.309C303.381 255.919 312.438 256.237 321.119 254.231C322.539 253.91 324.414 252.377 324.787 251.052C326.621 244.31 328.072 237.413 329.709 230.237V230.216ZM230.568 254.459C236.475 260.548 241.946 266.254 247.572 271.877C248.059 272.312 249.302 272.312 250.111 272.156C260.472 270.272 270.533 267.258 279.144 260.983C280.47 260.04 281.838 257.669 281.558 256.323C279.869 249.198 277.693 242.177 275.445 234.286C262.089 245.356 246.857 250.855 230.568 254.459ZM329.626 249.985C333.004 251.973 335.512 253.506 338.03 254.987C345.231 259.202 352.36 263.509 359.685 267.559C360.877 268.221 363.488 268.439 364.224 267.724C369.685 262.339 374.865 256.675 380.43 250.741C359.499 244.031 356.432 242.384 340.827 229.067C337.812 226.488 335.284 226.529 334.227 230.413C332.299 237.33 330.921 244.383 329.626 249.985ZM391.154 407.277C385.652 402.347 380.999 398.05 376.119 393.939C375.207 393.152 373.228 392.354 372.441 392.768C362.67 397.998 351.8 401.757 344.816 411.036C344.008 412.123 342.713 413.718 343.034 414.64C345.138 421.05 347.583 427.346 350.277 434.678C361.364 420.936 376.762 415.53 391.154 407.277ZM250.587 416.659C270.616 418.067 286.211 424.115 293.93 442.745C296.179 435.869 297.826 429.314 299.401 422.727C299.567 422.065 299.639 421.205 299.318 420.677C297.391 417.581 295.256 414.608 293.371 411.512C287.661 402.192 278.294 400.121 268.243 399.417C267.363 399.355 266.109 400.059 265.435 400.784C260.804 405.609 256.265 410.549 250.587 416.659ZM344.775 432.41C342.506 426.3 340.257 420.998 338.62 415.53C337.449 411.761 335.325 409.783 331.419 410.673C323.378 412.517 315.42 414.629 307.463 416.742C306.54 416.99 305.328 417.943 305.131 418.761C303.162 425.979 301.391 433.249 299.298 441.564C314.529 435.869 328.528 430.722 344.775 432.41ZM389.444 305.367C382.927 295.363 376.616 285.733 370.379 276.092C368.7 273.482 366.41 272.415 364.068 274.642C359.095 279.571 354.494 284.832 350.526 289.109C352.857 291.76 354.65 293.53 356.069 295.56C359.292 300.117 362.183 304.963 365.602 309.364C366.514 310.534 369.187 311.373 370.659 310.969C377.217 309.302 383.652 307.127 389.444 305.367ZM397.92 350.973C390.17 349.389 383.735 348.001 377.259 346.862C376.202 346.655 374.814 347.318 373.798 347.98C365.726 353.324 362.224 361.681 358.919 370.162C358.639 370.887 359.126 372.337 359.727 372.937C364.462 377.349 369.301 381.626 374.637 386.452C380.15 373.051 385.538 360.604 397.92 350.973ZM395.392 346.158V307.966C388.263 310.131 381.486 312.191 374.772 314.356C374.088 314.563 373.239 315.536 373.239 316.199C373.114 323.872 372.959 331.587 373.239 339.271C373.28 340.348 375.508 341.964 376.938 342.326C383.165 343.828 389.527 344.967 395.392 346.158ZM241.075 357.166C262.659 351.439 265.239 354.97 259.643 329.858C259.364 328.636 259.125 327.331 258.524 326.244C257.996 325.219 257.156 323.852 256.193 323.634C249.354 322.071 242.443 320.755 236.122 319.492C237.863 332.55 239.469 344.925 241.075 357.166ZM265.684 394.187C270.026 389.517 274.813 384.391 280.481 378.281C275.859 371.57 271.311 364.694 266.482 358.067C265.56 356.824 263.228 355.499 262.016 355.799C255.385 357.528 248.909 359.755 243.407 361.484C250.888 372.461 258.162 383.107 265.684 394.187ZM323.181 258.218C312.125 260.382 302.147 259.978 292.262 256.923C291.257 256.644 287.641 259.895 287.879 260.962C289.444 268.211 291.702 275.325 294.034 283.506C296.966 279.333 299.546 278.867 303.287 280.192C306.623 281.352 310.53 281.435 314.146 281.311C315.638 281.228 317.876 279.623 318.28 278.277C320.125 272.084 321.409 265.715 323.181 258.218ZM323.14 277.624C326.808 279.478 329.543 280.7 332.072 282.181C335.211 284.055 338.102 286.323 341.356 287.99C342.464 288.58 344.879 288.518 345.645 287.752C350.567 282.926 355.137 277.831 360.017 272.643C354.857 270.251 350.205 268.542 346.049 266.005C341.843 263.478 338.216 260.02 334.185 257.182C331.087 255.028 328.393 255.774 327.43 259.409C325.72 265.86 324.383 272.384 323.14 277.624ZM238.34 315.598C241.272 316.199 245.023 317.007 248.701 317.752C261.653 320.383 263.736 319.223 268.202 306.765C268.72 305.243 269.29 303.669 269.445 302.084C269.57 300.935 269.404 299.371 268.72 298.615C263.653 293.209 258.472 287.969 253.768 283.164C248.463 294.349 243.51 304.673 238.288 315.598H238.34ZM340.05 407.142C350.194 400.691 359.799 394.601 369.798 388.212C365.063 383.997 360.39 379.741 355.53 375.723C354.722 375.04 352.557 374.915 351.707 375.485C346.081 379.151 340.661 383.024 335.273 386.969C334.465 387.56 333.615 389.144 333.854 389.941C335.823 395.844 338.05 401.705 340.05 407.142ZM253.126 276.879C258.172 281.922 263.374 287.172 268.679 292.329C269.207 292.806 270.368 293.137 271.052 292.93C276.481 291.283 281.911 289.657 287.174 287.566C288.262 287.131 289.464 284.676 289.184 283.465C287.62 276.858 285.589 270.344 283.879 264.421C273.518 268.625 263.415 272.726 253.126 276.879ZM299.971 414.733C300.458 414.671 300.893 414.608 301.339 414.526L306.447 393.897C304.395 392.106 302.986 391.257 302.137 390.076C300.769 388.202 299.971 385.841 298.479 384.09C295.101 380.093 287.257 377.68 284.812 380.052C280.025 384.629 275.642 389.631 270.337 395.326C284.574 396.735 294.78 402.202 299.971 414.733ZM334.589 405.33C333.014 400.991 331.491 396.207 329.45 391.65C328.517 389.682 326.269 386.524 325.108 386.721C320.591 387.487 314.011 388.15 312.364 391.101C309.069 396.973 308.499 404.325 306.737 411.398C316.415 409.296 325.264 407.391 334.589 405.33ZM362.297 313.538C358.629 307.769 355.499 302.509 352.039 297.403C349.935 294.224 347.096 293.002 343.925 296.202C340.91 299.299 338.061 302.592 335.201 305.719C337.408 307.169 339.812 308.049 341.024 309.737C347.055 318.218 346.93 318.322 357.116 315.225C358.836 314.677 360.556 314.097 362.297 313.538ZM353.81 367.542C358.753 359.765 363.343 352.516 368.203 344.822C363.53 344.18 357.416 341.446 353.81 343.331C349.376 345.599 346.36 351.449 344.153 356.348C343.511 357.818 347.531 361.412 349.614 363.866C350.919 365.347 352.598 366.517 353.81 367.542ZM269.29 353.334L283.6 374.75C287.174 370.897 290.552 367.211 293.889 363.648C291.36 359.444 289.226 355.467 286.532 351.843C285.61 350.559 283.154 349.399 281.662 349.679C277.455 350.476 273.352 352.071 269.29 353.334ZM267.114 349.44C268.844 348.954 270.782 348.415 272.668 347.815C282.926 344.615 283.486 343.776 280.709 333.69C280.097 331.525 278.74 328.564 276.968 327.901C272.782 326.337 268.161 325.913 263.612 325.053C264.824 333.327 265.912 341.073 267.114 349.44ZM367.757 340.421V316.572L352.028 321.315C351.945 323.241 351.945 324.649 351.79 326.057C350.64 337.034 350.598 337.034 361.644 339.323C363.613 339.706 365.592 340.038 367.757 340.421ZM316.415 286.385C310.986 285.598 306.24 284.376 301.577 284.531C299.484 284.573 295.629 287.586 295.785 288.891C296.386 293.872 298.313 298.677 299.277 302.095C303.546 301.66 306.634 301.515 309.618 300.904C311.027 300.603 313.089 299.682 313.483 298.574C314.768 294.69 315.451 290.61 316.415 286.385ZM349.749 370.835C338.216 360.148 339.895 356.793 326.352 370.007C327.958 374.17 329.637 378.426 331.294 382.734L349.749 370.835ZM340.661 293.313C336.268 290.206 332.548 286.944 328.238 284.78C326.538 283.931 322.01 284.883 321.523 286.064C319.751 290.589 319.078 295.529 318.384 298.677C323.088 300.686 326.663 302.177 330.766 303.865L340.661 293.313ZM290.677 373.569C296.552 378.053 301.898 382.102 307.929 386.71C309.172 381.947 310.54 376.893 311.462 373.269C309.048 370.98 307.162 369.738 306.033 368.008C302.934 363.224 300.769 362.861 296.821 366.993C294.583 369.375 292.324 371.778 290.677 373.569ZM274.72 303.151C271.342 310.027 268.73 315.288 265.871 321.066C270.616 322.008 275.238 323.313 279.869 323.562C281.475 323.686 283.807 321.397 284.688 319.647C285.496 318.135 285.454 315.329 284.491 314.004C281.714 310.255 278.294 307.003 274.72 303.151ZM291.36 290.869C285.444 293.033 280.139 294.98 274.792 296.979C274.357 297.683 273.911 298.408 273.424 299.133C276.004 300.904 278.771 302.385 281.02 304.435C287.009 309.965 286.884 310.058 295.495 305.802L291.36 290.869ZM325.699 381.522C324.134 377.287 322.808 373.579 321.316 369.924C321.036 369.251 319.928 368.236 319.472 368.381C318.581 368.64 317.41 369.417 317.171 370.214C315.845 374.636 314.778 379.089 313.472 384.204L325.699 381.522ZM300.727 327.735C305.556 325.571 309.732 322.516 314.281 321.946C318.912 321.408 323.844 323.334 328.642 324.152C318.342 314.894 302.986 317.172 300.727 327.735ZM340.983 319.927L342.174 318.094C338.9 315.515 335.781 312.481 332.051 310.762C330.994 310.276 328.062 313.714 325.575 315.702C328.341 316.924 330.828 317.214 331.439 318.394C334.102 323.645 337.563 321.19 340.983 319.927ZM346.889 341.436C340.941 339.188 338.454 340.255 335.315 345.495C332.465 350.259 336.061 351.708 338.941 353.904C341.708 349.596 344.278 345.516 346.889 341.436ZM302.302 354.038C300.81 351.605 299.888 348.395 297.764 347.017C295.754 345.775 292.459 346.458 288.397 346.199C290.801 349.762 292.179 351.615 293.381 353.572C297.391 360.21 297.515 360.231 302.302 354.038ZM286.822 343.124C290.397 341.943 294.655 342.533 294.096 336.91C293.578 331.308 290.677 329.216 284.967 329.786C285.568 334.083 286.169 338.267 286.822 343.124ZM338.734 325.322C340.288 335.657 340.288 335.657 347.376 335.326C346.847 331.546 346.36 327.808 345.873 324.08C343.469 324.504 341.066 324.929 338.734 325.322ZM312.519 307.086C311.794 306.185 311.068 305.284 310.312 304.414C307.618 305.595 303.877 306.123 302.551 308.153C301.391 309.986 302.831 313.455 303.152 316.209C303.877 316.375 304.644 316.53 305.359 316.675C307.773 313.475 310.146 310.255 312.519 307.086ZM321.699 357.756C322.881 359.889 323.886 361.826 325.057 363.907L334.341 357.487C330.03 349.637 326.145 354.556 321.699 357.756ZM314.488 312.429L316.425 314.325C319.917 312.554 323.461 310.793 326.953 309.002C326.787 308.122 326.59 307.252 326.435 306.371C323.813 306.009 320.601 304.57 318.798 305.564C316.695 306.724 315.845 310.037 314.488 312.429ZM315.203 359.361C312.25 358.119 310.022 357.155 307.286 355.996L303.784 359.889C306.758 362.023 309.338 363.824 311.866 365.637C313.079 363.39 314.249 361.153 315.203 359.361ZM298.645 319.782L297.122 310.379C294.707 311.425 293.018 312.129 290.573 313.175C293.298 315.402 295.184 316.965 298.645 319.782ZM295.464 326.731L296.189 325.043C294.345 323.168 292.49 321.284 290.241 318.954C289.081 321.48 288.314 323.189 287.309 325.322L295.464 326.731Z" fill="white"/>
</svg>
