<svg width="59" height="40" viewBox="0 0 59 40" fill="none" xmlns="http://www.w3.org/2000/svg">
<path fill-rule="evenodd" clip-rule="evenodd" d="M37.7811 0C35.5897 0 33.8132 1.78311 33.8132 3.98269C33.8132 6.18228 35.5897 7.96539 37.7811 7.96539H45.4854L30.8281 23.2326L23.5077 15.8849C22.7562 15.1306 21.7346 14.7104 20.6718 14.7185C19.609 14.7266 18.5939 15.1624 17.8539 15.9281L1.11977 33.2442C-0.406008 34.823 -0.367754 37.3444 1.20522 38.8759C2.77819 40.4074 5.29022 40.369 6.816 38.7901L20.7451 24.3767L28.0748 31.7338C28.8279 32.4897 29.8522 32.91 30.9172 32.9001C31.9823 32.8902 32.9986 32.451 33.7377 31.6811L51.0649 13.6329V20.9524C51.0649 23.152 52.8414 24.9351 55.0328 24.9351C57.2242 24.9351 59.0007 23.152 59.0007 20.9524V3.98269C59.0007 1.78311 57.2242 0 55.0328 0L37.7811 0Z" fill="url(#paint0_linear_39_534)"/>
<defs>
<linearGradient id="paint0_linear_39_534" x1="29.5003" y1="0" x2="29.5003" y2="39.9999" gradientUnits="userSpaceOnUse">
<stop stop-color="#E75C5C"/>
<stop offset="1" stop-color="#E13600"/>
</linearGradient>
</defs>
</svg>
